<?xml version="1.0" encoding="utf-8" standalone="no"?>
<!DOCTYPE svg PUBLIC "-//W3C//DTD SVG 1.1//EN"
  "http://www.w3.org/Graphics/SVG/1.1/DTD/svg11.dtd">
<svg height="360pt" version="1.1" viewBox="0 0 576 360" width="576pt" xmlns="http://www.w3.org/2000/svg" xmlns:xlink="http://www.w3.org/1999/xlink">
 <metadata>
  <rdf:RDF xmlns:cc="http://creativecommons.org/ns#" xmlns:dc="http://purl.org/dc/elements/1.1/" xmlns:rdf="http://www.w3.org/1999/02/22-rdf-syntax-ns#">
   <cc:Work>
    <dc:type rdf:resource="http://purl.org/dc/dcmitype/StillImage"/>
    <dc:date>2022-04-24T20:37:05.057630</dc:date>
    <dc:format>image/svg+xml</dc:format>
    <dc:creator>
     <cc:Agent>
      <dc:title>Matplotlib v3.4.3, https://matplotlib.org/</dc:title>
     </cc:Agent>
    </dc:creator>
   </cc:Work>
  </rdf:RDF>
 </metadata>
 <defs>
  <style type="text/css">*{stroke-linecap:butt;stroke-linejoin:round;}</style>
 </defs>
 <g id="figure_1">
  <g id="patch_1">
   <path d="M 0 360 
L 576 360 
L 576 0 
L 0 0 
z
" style="fill:#ffffff;"/>
  </g>
  <g id="axes_1">
   <g id="patch_2">
    <path d="M 72 320.4 
L 518.4 320.4 
L 518.4 43.2 
L 72 43.2 
z
" style="fill:#ffffff;"/>
   </g>
   <g id="matplotlib.axis_1">
    <g id="xtick_1">
     <g id="line2d_1">
      <path clip-path="url(#p0bdc401243)" d="M 92.290909 320.4 
L 92.290909 43.2 
" style="fill:none;stroke:#b0b0b0;stroke-linecap:square;stroke-width:0.8;"/>
     </g>
     <g id="line2d_2">
      <defs>
       <path d="M 0 0 
L 0 3.5 
" id="m3a8ebd64a3" style="stroke:#000000;stroke-width:0.8;"/>
      </defs>
      <g>
       <use style="stroke:#000000;stroke-width:0.8;" x="92.290909" xlink:href="#m3a8ebd64a3" y="320.4"/>
      </g>
     </g>
     <g id="text_1">
      <!-- 0.5 -->
      <g transform="translate(84.339347 334.998438)scale(0.1 -0.1)">
       <defs>
        <path d="M 2034 4250 
Q 1547 4250 1301 3770 
Q 1056 3291 1056 2328 
Q 1056 1369 1301 889 
Q 1547 409 2034 409 
Q 2525 409 2770 889 
Q 3016 1369 3016 2328 
Q 3016 3291 2770 3770 
Q 2525 4250 2034 4250 
z
M 2034 4750 
Q 2819 4750 3233 4129 
Q 3647 3509 3647 2328 
Q 3647 1150 3233 529 
Q 2819 -91 2034 -91 
Q 1250 -91 836 529 
Q 422 1150 422 2328 
Q 422 3509 836 4129 
Q 1250 4750 2034 4750 
z
" id="DejaVuSans-30" transform="scale(0.015625)"/>
        <path d="M 684 794 
L 1344 794 
L 1344 0 
L 684 0 
L 684 794 
z
" id="DejaVuSans-2e" transform="scale(0.015625)"/>
        <path d="M 691 4666 
L 3169 4666 
L 3169 4134 
L 1269 4134 
L 1269 2991 
Q 1406 3038 1543 3061 
Q 1681 3084 1819 3084 
Q 2600 3084 3056 2656 
Q 3513 2228 3513 1497 
Q 3513 744 3044 326 
Q 2575 -91 1722 -91 
Q 1428 -91 1123 -41 
Q 819 9 494 109 
L 494 744 
Q 775 591 1075 516 
Q 1375 441 1709 441 
Q 2250 441 2565 725 
Q 2881 1009 2881 1497 
Q 2881 1984 2565 2268 
Q 2250 2553 1709 2553 
Q 1456 2553 1204 2497 
Q 953 2441 691 2322 
L 691 4666 
z
" id="DejaVuSans-35" transform="scale(0.015625)"/>
       </defs>
       <use xlink:href="#DejaVuSans-30"/>
       <use x="63.623047" xlink:href="#DejaVuSans-2e"/>
       <use x="95.410156" xlink:href="#DejaVuSans-35"/>
      </g>
     </g>
    </g>
    <g id="xtick_2">
     <g id="line2d_3">
      <path clip-path="url(#p0bdc401243)" d="M 176.836364 320.4 
L 176.836364 43.2 
" style="fill:none;stroke:#b0b0b0;stroke-linecap:square;stroke-width:0.8;"/>
     </g>
     <g id="line2d_4">
      <g>
       <use style="stroke:#000000;stroke-width:0.8;" x="176.836364" xlink:href="#m3a8ebd64a3" y="320.4"/>
      </g>
     </g>
     <g id="text_2">
      <!-- 1.0 -->
      <g transform="translate(168.884801 334.998438)scale(0.1 -0.1)">
       <defs>
        <path d="M 794 531 
L 1825 531 
L 1825 4091 
L 703 3866 
L 703 4441 
L 1819 4666 
L 2450 4666 
L 2450 531 
L 3481 531 
L 3481 0 
L 794 0 
L 794 531 
z
" id="DejaVuSans-31" transform="scale(0.015625)"/>
       </defs>
       <use xlink:href="#DejaVuSans-31"/>
       <use x="63.623047" xlink:href="#DejaVuSans-2e"/>
       <use x="95.410156" xlink:href="#DejaVuSans-30"/>
      </g>
     </g>
    </g>
    <g id="xtick_3">
     <g id="line2d_5">
      <path clip-path="url(#p0bdc401243)" d="M 261.381818 320.4 
L 261.381818 43.2 
" style="fill:none;stroke:#b0b0b0;stroke-linecap:square;stroke-width:0.8;"/>
     </g>
     <g id="line2d_6">
      <g>
       <use style="stroke:#000000;stroke-width:0.8;" x="261.381818" xlink:href="#m3a8ebd64a3" y="320.4"/>
      </g>
     </g>
     <g id="text_3">
      <!-- 1.5 -->
      <g transform="translate(253.430256 334.998438)scale(0.1 -0.1)">
       <use xlink:href="#DejaVuSans-31"/>
       <use x="63.623047" xlink:href="#DejaVuSans-2e"/>
       <use x="95.410156" xlink:href="#DejaVuSans-35"/>
      </g>
     </g>
    </g>
    <g id="xtick_4">
     <g id="line2d_7">
      <path clip-path="url(#p0bdc401243)" d="M 345.927273 320.4 
L 345.927273 43.2 
" style="fill:none;stroke:#b0b0b0;stroke-linecap:square;stroke-width:0.8;"/>
     </g>
     <g id="line2d_8">
      <g>
       <use style="stroke:#000000;stroke-width:0.8;" x="345.927273" xlink:href="#m3a8ebd64a3" y="320.4"/>
      </g>
     </g>
     <g id="text_4">
      <!-- 2.0 -->
      <g transform="translate(337.97571 334.998438)scale(0.1 -0.1)">
       <defs>
        <path d="M 1228 531 
L 3431 531 
L 3431 0 
L 469 0 
L 469 531 
Q 828 903 1448 1529 
Q 2069 2156 2228 2338 
Q 2531 2678 2651 2914 
Q 2772 3150 2772 3378 
Q 2772 3750 2511 3984 
Q 2250 4219 1831 4219 
Q 1534 4219 1204 4116 
Q 875 4013 500 3803 
L 500 4441 
Q 881 4594 1212 4672 
Q 1544 4750 1819 4750 
Q 2544 4750 2975 4387 
Q 3406 4025 3406 3419 
Q 3406 3131 3298 2873 
Q 3191 2616 2906 2266 
Q 2828 2175 2409 1742 
Q 1991 1309 1228 531 
z
" id="DejaVuSans-32" transform="scale(0.015625)"/>
       </defs>
       <use xlink:href="#DejaVuSans-32"/>
       <use x="63.623047" xlink:href="#DejaVuSans-2e"/>
       <use x="95.410156" xlink:href="#DejaVuSans-30"/>
      </g>
     </g>
    </g>
    <g id="xtick_5">
     <g id="line2d_9">
      <path clip-path="url(#p0bdc401243)" d="M 430.472727 320.4 
L 430.472727 43.2 
" style="fill:none;stroke:#b0b0b0;stroke-linecap:square;stroke-width:0.8;"/>
     </g>
     <g id="line2d_10">
      <g>
       <use style="stroke:#000000;stroke-width:0.8;" x="430.472727" xlink:href="#m3a8ebd64a3" y="320.4"/>
      </g>
     </g>
     <g id="text_5">
      <!-- 2.5 -->
      <g transform="translate(422.521165 334.998438)scale(0.1 -0.1)">
       <use xlink:href="#DejaVuSans-32"/>
       <use x="63.623047" xlink:href="#DejaVuSans-2e"/>
       <use x="95.410156" xlink:href="#DejaVuSans-35"/>
      </g>
     </g>
    </g>
    <g id="xtick_6">
     <g id="line2d_11">
      <path clip-path="url(#p0bdc401243)" d="M 515.018182 320.4 
L 515.018182 43.2 
" style="fill:none;stroke:#b0b0b0;stroke-linecap:square;stroke-width:0.8;"/>
     </g>
     <g id="line2d_12">
      <g>
       <use style="stroke:#000000;stroke-width:0.8;" x="515.018182" xlink:href="#m3a8ebd64a3" y="320.4"/>
      </g>
     </g>
     <g id="text_6">
      <!-- 3.0 -->
      <g transform="translate(507.066619 334.998438)scale(0.1 -0.1)">
       <defs>
        <path d="M 2597 2516 
Q 3050 2419 3304 2112 
Q 3559 1806 3559 1356 
Q 3559 666 3084 287 
Q 2609 -91 1734 -91 
Q 1441 -91 1130 -33 
Q 819 25 488 141 
L 488 750 
Q 750 597 1062 519 
Q 1375 441 1716 441 
Q 2309 441 2620 675 
Q 2931 909 2931 1356 
Q 2931 1769 2642 2001 
Q 2353 2234 1838 2234 
L 1294 2234 
L 1294 2753 
L 1863 2753 
Q 2328 2753 2575 2939 
Q 2822 3125 2822 3475 
Q 2822 3834 2567 4026 
Q 2313 4219 1838 4219 
Q 1578 4219 1281 4162 
Q 984 4106 628 3988 
L 628 4550 
Q 988 4650 1302 4700 
Q 1616 4750 1894 4750 
Q 2613 4750 3031 4423 
Q 3450 4097 3450 3541 
Q 3450 3153 3228 2886 
Q 3006 2619 2597 2516 
z
" id="DejaVuSans-33" transform="scale(0.015625)"/>
       </defs>
       <use xlink:href="#DejaVuSans-33"/>
       <use x="63.623047" xlink:href="#DejaVuSans-2e"/>
       <use x="95.410156" xlink:href="#DejaVuSans-30"/>
      </g>
     </g>
    </g>
    <g id="text_7">
     <!-- $T$ -->
     <g transform="translate(292.1 348.676562)scale(0.1 -0.1)">
      <defs>
       <path d="M 378 4666 
L 4325 4666 
L 4225 4134 
L 2559 4134 
L 1759 0 
L 1125 0 
L 1925 4134 
L 275 4134 
L 378 4666 
z
" id="DejaVuSans-Oblique-54" transform="scale(0.015625)"/>
      </defs>
      <use transform="translate(0 0.09375)" xlink:href="#DejaVuSans-Oblique-54"/>
     </g>
    </g>
   </g>
   <g id="matplotlib.axis_2">
    <g id="ytick_1">
     <g id="line2d_13">
      <path clip-path="url(#p0bdc401243)" d="M 72 311.62057 
L 518.4 311.62057 
" style="fill:none;stroke:#b0b0b0;stroke-linecap:square;stroke-width:0.8;"/>
     </g>
     <g id="line2d_14">
      <defs>
       <path d="M 0 0 
L -3.5 0 
" id="m996acb78f1" style="stroke:#000000;stroke-width:0.8;"/>
      </defs>
      <g>
       <use style="stroke:#000000;stroke-width:0.8;" x="72" xlink:href="#m996acb78f1" y="311.62057"/>
      </g>
     </g>
     <g id="text_8">
      <!-- 0.0 -->
      <g transform="translate(49.096875 315.419789)scale(0.1 -0.1)">
       <use xlink:href="#DejaVuSans-30"/>
       <use x="63.623047" xlink:href="#DejaVuSans-2e"/>
       <use x="95.410156" xlink:href="#DejaVuSans-30"/>
      </g>
     </g>
    </g>
    <g id="ytick_2">
     <g id="line2d_15">
      <path clip-path="url(#p0bdc401243)" d="M 72 253.026188 
L 518.4 253.026188 
" style="fill:none;stroke:#b0b0b0;stroke-linecap:square;stroke-width:0.8;"/>
     </g>
     <g id="line2d_16">
      <g>
       <use style="stroke:#000000;stroke-width:0.8;" x="72" xlink:href="#m996acb78f1" y="253.026188"/>
      </g>
     </g>
     <g id="text_9">
      <!-- 0.2 -->
      <g transform="translate(49.096875 256.825407)scale(0.1 -0.1)">
       <use xlink:href="#DejaVuSans-30"/>
       <use x="63.623047" xlink:href="#DejaVuSans-2e"/>
       <use x="95.410156" xlink:href="#DejaVuSans-32"/>
      </g>
     </g>
    </g>
    <g id="ytick_3">
     <g id="line2d_17">
      <path clip-path="url(#p0bdc401243)" d="M 72 194.431807 
L 518.4 194.431807 
" style="fill:none;stroke:#b0b0b0;stroke-linecap:square;stroke-width:0.8;"/>
     </g>
     <g id="line2d_18">
      <g>
       <use style="stroke:#000000;stroke-width:0.8;" x="72" xlink:href="#m996acb78f1" y="194.431807"/>
      </g>
     </g>
     <g id="text_10">
      <!-- 0.4 -->
      <g transform="translate(49.096875 198.231026)scale(0.1 -0.1)">
       <defs>
        <path d="M 2419 4116 
L 825 1625 
L 2419 1625 
L 2419 4116 
z
M 2253 4666 
L 3047 4666 
L 3047 1625 
L 3713 1625 
L 3713 1100 
L 3047 1100 
L 3047 0 
L 2419 0 
L 2419 1100 
L 313 1100 
L 313 1709 
L 2253 4666 
z
" id="DejaVuSans-34" transform="scale(0.015625)"/>
       </defs>
       <use xlink:href="#DejaVuSans-30"/>
       <use x="63.623047" xlink:href="#DejaVuSans-2e"/>
       <use x="95.410156" xlink:href="#DejaVuSans-34"/>
      </g>
     </g>
    </g>
    <g id="ytick_4">
     <g id="line2d_19">
      <path clip-path="url(#p0bdc401243)" d="M 72 135.837425 
L 518.4 135.837425 
" style="fill:none;stroke:#b0b0b0;stroke-linecap:square;stroke-width:0.8;"/>
     </g>
     <g id="line2d_20">
      <g>
       <use style="stroke:#000000;stroke-width:0.8;" x="72" xlink:href="#m996acb78f1" y="135.837425"/>
      </g>
     </g>
     <g id="text_11">
      <!-- 0.6 -->
      <g transform="translate(49.096875 139.636644)scale(0.1 -0.1)">
       <defs>
        <path d="M 2113 2584 
Q 1688 2584 1439 2293 
Q 1191 2003 1191 1497 
Q 1191 994 1439 701 
Q 1688 409 2113 409 
Q 2538 409 2786 701 
Q 3034 994 3034 1497 
Q 3034 2003 2786 2293 
Q 2538 2584 2113 2584 
z
M 3366 4563 
L 3366 3988 
Q 3128 4100 2886 4159 
Q 2644 4219 2406 4219 
Q 1781 4219 1451 3797 
Q 1122 3375 1075 2522 
Q 1259 2794 1537 2939 
Q 1816 3084 2150 3084 
Q 2853 3084 3261 2657 
Q 3669 2231 3669 1497 
Q 3669 778 3244 343 
Q 2819 -91 2113 -91 
Q 1303 -91 875 529 
Q 447 1150 447 2328 
Q 447 3434 972 4092 
Q 1497 4750 2381 4750 
Q 2619 4750 2861 4703 
Q 3103 4656 3366 4563 
z
" id="DejaVuSans-36" transform="scale(0.015625)"/>
       </defs>
       <use xlink:href="#DejaVuSans-30"/>
       <use x="63.623047" xlink:href="#DejaVuSans-2e"/>
       <use x="95.410156" xlink:href="#DejaVuSans-36"/>
      </g>
     </g>
    </g>
    <g id="ytick_5">
     <g id="line2d_21">
      <path clip-path="url(#p0bdc401243)" d="M 72 77.243043 
L 518.4 77.243043 
" style="fill:none;stroke:#b0b0b0;stroke-linecap:square;stroke-width:0.8;"/>
     </g>
     <g id="line2d_22">
      <g>
       <use style="stroke:#000000;stroke-width:0.8;" x="72" xlink:href="#m996acb78f1" y="77.243043"/>
      </g>
     </g>
     <g id="text_12">
      <!-- 0.8 -->
      <g transform="translate(49.096875 81.042262)scale(0.1 -0.1)">
       <defs>
        <path d="M 2034 2216 
Q 1584 2216 1326 1975 
Q 1069 1734 1069 1313 
Q 1069 891 1326 650 
Q 1584 409 2034 409 
Q 2484 409 2743 651 
Q 3003 894 3003 1313 
Q 3003 1734 2745 1975 
Q 2488 2216 2034 2216 
z
M 1403 2484 
Q 997 2584 770 2862 
Q 544 3141 544 3541 
Q 544 4100 942 4425 
Q 1341 4750 2034 4750 
Q 2731 4750 3128 4425 
Q 3525 4100 3525 3541 
Q 3525 3141 3298 2862 
Q 3072 2584 2669 2484 
Q 3125 2378 3379 2068 
Q 3634 1759 3634 1313 
Q 3634 634 3220 271 
Q 2806 -91 2034 -91 
Q 1263 -91 848 271 
Q 434 634 434 1313 
Q 434 1759 690 2068 
Q 947 2378 1403 2484 
z
M 1172 3481 
Q 1172 3119 1398 2916 
Q 1625 2713 2034 2713 
Q 2441 2713 2670 2916 
Q 2900 3119 2900 3481 
Q 2900 3844 2670 4047 
Q 2441 4250 2034 4250 
Q 1625 4250 1398 4047 
Q 1172 3844 1172 3481 
z
" id="DejaVuSans-38" transform="scale(0.015625)"/>
       </defs>
       <use xlink:href="#DejaVuSans-30"/>
       <use x="63.623047" xlink:href="#DejaVuSans-2e"/>
       <use x="95.410156" xlink:href="#DejaVuSans-38"/>
      </g>
     </g>
    </g>
    <g id="text_13">
     <!-- $\langle | \vec{M} | \rangle$ -->
     <g transform="translate(42.696875 193.4)rotate(-90)scale(0.1 -0.1)">
      <defs>
       <path d="M 572 2006 
L 1453 4856 
L 1984 4856 
L 1103 2006 
L 1984 -844 
L 1453 -844 
L 572 2006 
z
" id="DejaVuSans-27e8" transform="scale(0.015625)"/>
       <path d="M 1344 4891 
L 1344 -1509 
L 813 -1509 
L 813 4891 
L 1344 4891 
z
" id="DejaVuSans-7c" transform="scale(0.015625)"/>
       <path d="M -3009 4066 
L -3009 4378 
L -694 4378 
L -1106 4863 
L -713 4863 
L -166 4222 
L -713 3581 
L -1106 3581 
L -694 4066 
L -3009 4066 
z
" id="DejaVuSans-20d7" transform="scale(0.015625)"/>
       <path d="M 1081 4666 
L 2028 4666 
L 2572 1522 
L 4378 4666 
L 5350 4666 
L 4441 0 
L 3828 0 
L 4622 4091 
L 2791 897 
L 2175 897 
L 1581 4103 
L 788 0 
L 172 0 
L 1081 4666 
z
" id="DejaVuSans-Oblique-4d" transform="scale(0.015625)"/>
       <path d="M 1925 2006 
L 1044 -844 
L 513 -844 
L 1394 2006 
L 513 4856 
L 1044 4856 
L 1925 2006 
z
" id="DejaVuSans-27e9" transform="scale(0.015625)"/>
      </defs>
      <use transform="translate(0 0.5625)" xlink:href="#DejaVuSans-27e8"/>
      <use transform="translate(39.013672 0.5625)" xlink:href="#DejaVuSans-7c"/>
      <use transform="translate(151.290527 30.015625)" xlink:href="#DejaVuSans-20d7"/>
      <use transform="translate(72.705078 0.5625)" xlink:href="#DejaVuSans-Oblique-4d"/>
      <use transform="translate(158.984375 0.5625)" xlink:href="#DejaVuSans-7c"/>
      <use transform="translate(192.675781 0.5625)" xlink:href="#DejaVuSans-27e9"/>
     </g>
    </g>
   </g>
   <g id="LineCollection_1">
    <path clip-path="url(#p0bdc401243)" d="M 92.290909 57.274867 
L 92.290909 55.8 
" style="fill:none;stroke:#1f77b4;stroke-width:1.5;"/>
    <path clip-path="url(#p0bdc401243)" d="M 109.2 66.448683 
L 109.2 64.386455 
" style="fill:none;stroke:#1f77b4;stroke-width:1.5;"/>
    <path clip-path="url(#p0bdc401243)" d="M 126.109091 75.833983 
L 126.109091 73.451016 
" style="fill:none;stroke:#1f77b4;stroke-width:1.5;"/>
    <path clip-path="url(#p0bdc401243)" d="M 143.018182 86.769607 
L 143.018182 83.870088 
" style="fill:none;stroke:#1f77b4;stroke-width:1.5;"/>
    <path clip-path="url(#p0bdc401243)" d="M 159.927273 97.418397 
L 159.927273 94.245325 
" style="fill:none;stroke:#1f77b4;stroke-width:1.5;"/>
    <path clip-path="url(#p0bdc401243)" d="M 176.836364 110.532485 
L 176.836364 106.343613 
" style="fill:none;stroke:#1f77b4;stroke-width:1.5;"/>
    <path clip-path="url(#p0bdc401243)" d="M 193.745455 125.631497 
L 193.745455 120.794473 
" style="fill:none;stroke:#1f77b4;stroke-width:1.5;"/>
    <path clip-path="url(#p0bdc401243)" d="M 210.654545 144.208203 
L 210.654545 137.485963 
" style="fill:none;stroke:#1f77b4;stroke-width:1.5;"/>
    <path clip-path="url(#p0bdc401243)" d="M 227.563636 167.601303 
L 227.563636 159.67107 
" style="fill:none;stroke:#1f77b4;stroke-width:1.5;"/>
    <path clip-path="url(#p0bdc401243)" d="M 244.472727 204.284357 
L 244.472727 192.98092 
" style="fill:none;stroke:#1f77b4;stroke-width:1.5;"/>
    <path clip-path="url(#p0bdc401243)" d="M 245.318182 207.582166 
L 245.318182 196.032951 
" style="fill:none;stroke:#1f77b4;stroke-width:1.5;"/>
    <path clip-path="url(#p0bdc401243)" d="M 246.163636 212.37731 
L 246.163636 197.385227 
" style="fill:none;stroke:#1f77b4;stroke-width:1.5;"/>
    <path clip-path="url(#p0bdc401243)" d="M 247.009091 215.206834 
L 247.009091 202.007461 
" style="fill:none;stroke:#1f77b4;stroke-width:1.5;"/>
    <path clip-path="url(#p0bdc401243)" d="M 247.854545 217.205965 
L 247.854545 201.528607 
" style="fill:none;stroke:#1f77b4;stroke-width:1.5;"/>
    <path clip-path="url(#p0bdc401243)" d="M 248.7 223.161016 
L 248.7 206.107619 
" style="fill:none;stroke:#1f77b4;stroke-width:1.5;"/>
    <path clip-path="url(#p0bdc401243)" d="M 249.545455 223.457801 
L 249.545455 208.40828 
" style="fill:none;stroke:#1f77b4;stroke-width:1.5;"/>
    <path clip-path="url(#p0bdc401243)" d="M 250.390909 220.064087 
L 250.390909 207.176341 
" style="fill:none;stroke:#1f77b4;stroke-width:1.5;"/>
    <path clip-path="url(#p0bdc401243)" d="M 251.236364 227.141352 
L 251.236364 209.45605 
" style="fill:none;stroke:#1f77b4;stroke-width:1.5;"/>
    <path clip-path="url(#p0bdc401243)" d="M 252.081818 229.648174 
L 252.081818 213.302868 
" style="fill:none;stroke:#1f77b4;stroke-width:1.5;"/>
    <path clip-path="url(#p0bdc401243)" d="M 252.927273 235.88473 
L 252.927273 217.997487 
" style="fill:none;stroke:#1f77b4;stroke-width:1.5;"/>
    <path clip-path="url(#p0bdc401243)" d="M 253.772727 245.73154 
L 253.772727 225.173088 
" style="fill:none;stroke:#1f77b4;stroke-width:1.5;"/>
    <path clip-path="url(#p0bdc401243)" d="M 254.618182 233.720221 
L 254.618182 218.409333 
" style="fill:none;stroke:#1f77b4;stroke-width:1.5;"/>
    <path clip-path="url(#p0bdc401243)" d="M 255.463636 239.483204 
L 255.463636 221.478913 
" style="fill:none;stroke:#1f77b4;stroke-width:1.5;"/>
    <path clip-path="url(#p0bdc401243)" d="M 256.309091 252.109722 
L 256.309091 233.9346 
" style="fill:none;stroke:#1f77b4;stroke-width:1.5;"/>
    <path clip-path="url(#p0bdc401243)" d="M 257.154545 250.820825 
L 257.154545 232.277511 
" style="fill:none;stroke:#1f77b4;stroke-width:1.5;"/>
    <path clip-path="url(#p0bdc401243)" d="M 258 254.924562 
L 258 235.38383 
" style="fill:none;stroke:#1f77b4;stroke-width:1.5;"/>
    <path clip-path="url(#p0bdc401243)" d="M 258.845455 260.955326 
L 258.845455 243.019261 
" style="fill:none;stroke:#1f77b4;stroke-width:1.5;"/>
    <path clip-path="url(#p0bdc401243)" d="M 259.690909 256.763317 
L 259.690909 237.315462 
" style="fill:none;stroke:#1f77b4;stroke-width:1.5;"/>
    <path clip-path="url(#p0bdc401243)" d="M 260.536364 262.094772 
L 260.536364 243.897279 
" style="fill:none;stroke:#1f77b4;stroke-width:1.5;"/>
    <path clip-path="url(#p0bdc401243)" d="M 261.381818 265.866369 
L 261.381818 245.826866 
" style="fill:none;stroke:#1f77b4;stroke-width:1.5;"/>
    <path clip-path="url(#p0bdc401243)" d="M 278.290909 286.0388 
L 278.290909 273.202879 
" style="fill:none;stroke:#1f77b4;stroke-width:1.5;"/>
    <path clip-path="url(#p0bdc401243)" d="M 295.2 292.422893 
L 295.2 282.197786 
" style="fill:none;stroke:#1f77b4;stroke-width:1.5;"/>
    <path clip-path="url(#p0bdc401243)" d="M 312.109091 296.143739 
L 312.109091 288.543861 
" style="fill:none;stroke:#1f77b4;stroke-width:1.5;"/>
    <path clip-path="url(#p0bdc401243)" d="M 329.018182 298.338191 
L 329.018182 291.140872 
" style="fill:none;stroke:#1f77b4;stroke-width:1.5;"/>
    <path clip-path="url(#p0bdc401243)" d="M 345.927273 299.344032 
L 345.927273 292.779889 
" style="fill:none;stroke:#1f77b4;stroke-width:1.5;"/>
    <path clip-path="url(#p0bdc401243)" d="M 362.836364 300.186621 
L 362.836364 294.079426 
" style="fill:none;stroke:#1f77b4;stroke-width:1.5;"/>
    <path clip-path="url(#p0bdc401243)" d="M 379.745455 301.023394 
L 379.745455 294.962227 
" style="fill:none;stroke:#1f77b4;stroke-width:1.5;"/>
    <path clip-path="url(#p0bdc401243)" d="M 396.654545 301.213784 
L 396.654545 295.716101 
" style="fill:none;stroke:#1f77b4;stroke-width:1.5;"/>
    <path clip-path="url(#p0bdc401243)" d="M 413.563636 301.965743 
L 413.563636 296.987336 
" style="fill:none;stroke:#1f77b4;stroke-width:1.5;"/>
    <path clip-path="url(#p0bdc401243)" d="M 430.472727 302.183116 
L 430.472727 297.252955 
" style="fill:none;stroke:#1f77b4;stroke-width:1.5;"/>
    <path clip-path="url(#p0bdc401243)" d="M 447.381818 302.824544 
L 447.381818 298.034604 
" style="fill:none;stroke:#1f77b4;stroke-width:1.5;"/>
    <path clip-path="url(#p0bdc401243)" d="M 464.290909 303.020702 
L 464.290909 298.553732 
" style="fill:none;stroke:#1f77b4;stroke-width:1.5;"/>
    <path clip-path="url(#p0bdc401243)" d="M 481.2 303.23452 
L 481.2 298.716691 
" style="fill:none;stroke:#1f77b4;stroke-width:1.5;"/>
    <path clip-path="url(#p0bdc401243)" d="M 498.109091 303.292948 
L 498.109091 298.997009 
" style="fill:none;stroke:#1f77b4;stroke-width:1.5;"/>
   </g>
   <g id="LineCollection_2">
    <path clip-path="url(#p0bdc401243)" d="M 92.290909 66.659975 
L 92.290909 56.25086 
" style="fill:none;stroke:#ff7f0e;stroke-width:1.5;"/>
    <path clip-path="url(#p0bdc401243)" d="M 109.2 69.426888 
L 109.2 65.365306 
" style="fill:none;stroke:#ff7f0e;stroke-width:1.5;"/>
    <path clip-path="url(#p0bdc401243)" d="M 126.109091 101.567494 
L 126.109091 72.712158 
" style="fill:none;stroke:#ff7f0e;stroke-width:1.5;"/>
    <path clip-path="url(#p0bdc401243)" d="M 143.018182 104.449491 
L 143.018182 83.343421 
" style="fill:none;stroke:#ff7f0e;stroke-width:1.5;"/>
    <path clip-path="url(#p0bdc401243)" d="M 159.927273 107.546625 
L 159.927273 95.771564 
" style="fill:none;stroke:#ff7f0e;stroke-width:1.5;"/>
    <path clip-path="url(#p0bdc401243)" d="M 176.836364 111.777758 
L 176.836364 108.958541 
" style="fill:none;stroke:#ff7f0e;stroke-width:1.5;"/>
    <path clip-path="url(#p0bdc401243)" d="M 193.745455 128.616956 
L 193.745455 124.734561 
" style="fill:none;stroke:#ff7f0e;stroke-width:1.5;"/>
    <path clip-path="url(#p0bdc401243)" d="M 210.654545 165.178876 
L 210.654545 138.804083 
" style="fill:none;stroke:#ff7f0e;stroke-width:1.5;"/>
    <path clip-path="url(#p0bdc401243)" d="M 227.563636 168.101591 
L 227.563636 162.989319 
" style="fill:none;stroke:#ff7f0e;stroke-width:1.5;"/>
    <path clip-path="url(#p0bdc401243)" d="M 244.472727 207.240763 
L 244.472727 199.572442 
" style="fill:none;stroke:#ff7f0e;stroke-width:1.5;"/>
    <path clip-path="url(#p0bdc401243)" d="M 245.318182 213.526647 
L 245.318182 204.437037 
" style="fill:none;stroke:#ff7f0e;stroke-width:1.5;"/>
    <path clip-path="url(#p0bdc401243)" d="M 246.163636 219.66368 
L 246.163636 208.251293 
" style="fill:none;stroke:#ff7f0e;stroke-width:1.5;"/>
    <path clip-path="url(#p0bdc401243)" d="M 247.009091 225.555056 
L 247.009091 212.129143 
" style="fill:none;stroke:#ff7f0e;stroke-width:1.5;"/>
    <path clip-path="url(#p0bdc401243)" d="M 247.854545 225.884532 
L 247.854545 210.282212 
" style="fill:none;stroke:#ff7f0e;stroke-width:1.5;"/>
    <path clip-path="url(#p0bdc401243)" d="M 248.7 222.354567 
L 248.7 212.96853 
" style="fill:none;stroke:#ff7f0e;stroke-width:1.5;"/>
    <path clip-path="url(#p0bdc401243)" d="M 249.545455 233.047035 
L 249.545455 221.522607 
" style="fill:none;stroke:#ff7f0e;stroke-width:1.5;"/>
    <path clip-path="url(#p0bdc401243)" d="M 250.390909 238.610026 
L 250.390909 223.918965 
" style="fill:none;stroke:#ff7f0e;stroke-width:1.5;"/>
    <path clip-path="url(#p0bdc401243)" d="M 251.236364 239.333247 
L 251.236364 225.870434 
" style="fill:none;stroke:#ff7f0e;stroke-width:1.5;"/>
    <path clip-path="url(#p0bdc401243)" d="M 252.081818 237.954802 
L 252.081818 228.042379 
" style="fill:none;stroke:#ff7f0e;stroke-width:1.5;"/>
    <path clip-path="url(#p0bdc401243)" d="M 252.927273 244.124407 
L 252.927273 230.549334 
" style="fill:none;stroke:#ff7f0e;stroke-width:1.5;"/>
    <path clip-path="url(#p0bdc401243)" d="M 253.772727 248.672926 
L 253.772727 235.556902 
" style="fill:none;stroke:#ff7f0e;stroke-width:1.5;"/>
    <path clip-path="url(#p0bdc401243)" d="M 254.618182 257.941366 
L 254.618182 242.546387 
" style="fill:none;stroke:#ff7f0e;stroke-width:1.5;"/>
    <path clip-path="url(#p0bdc401243)" d="M 255.463636 264.42684 
L 255.463636 249.309126 
" style="fill:none;stroke:#ff7f0e;stroke-width:1.5;"/>
    <path clip-path="url(#p0bdc401243)" d="M 256.309091 265.981805 
L 256.309091 253.802937 
" style="fill:none;stroke:#ff7f0e;stroke-width:1.5;"/>
    <path clip-path="url(#p0bdc401243)" d="M 257.154545 267.457641 
L 257.154545 252.042465 
" style="fill:none;stroke:#ff7f0e;stroke-width:1.5;"/>
    <path clip-path="url(#p0bdc401243)" d="M 258 261.865223 
L 258 248.328404 
" style="fill:none;stroke:#ff7f0e;stroke-width:1.5;"/>
    <path clip-path="url(#p0bdc401243)" d="M 258.845455 277.095521 
L 258.845455 262.716554 
" style="fill:none;stroke:#ff7f0e;stroke-width:1.5;"/>
    <path clip-path="url(#p0bdc401243)" d="M 259.690909 274.104336 
L 259.690909 260.693275 
" style="fill:none;stroke:#ff7f0e;stroke-width:1.5;"/>
    <path clip-path="url(#p0bdc401243)" d="M 260.536364 277.439841 
L 260.536364 265.354589 
" style="fill:none;stroke:#ff7f0e;stroke-width:1.5;"/>
    <path clip-path="url(#p0bdc401243)" d="M 261.381818 283.951384 
L 261.381818 270.506011 
" style="fill:none;stroke:#ff7f0e;stroke-width:1.5;"/>
    <path clip-path="url(#p0bdc401243)" d="M 278.290909 292.84832 
L 278.290909 284.769212 
" style="fill:none;stroke:#ff7f0e;stroke-width:1.5;"/>
    <path clip-path="url(#p0bdc401243)" d="M 295.2 299.771298 
L 295.2 293.183767 
" style="fill:none;stroke:#ff7f0e;stroke-width:1.5;"/>
    <path clip-path="url(#p0bdc401243)" d="M 312.109091 301.200357 
L 312.109091 295.683395 
" style="fill:none;stroke:#ff7f0e;stroke-width:1.5;"/>
    <path clip-path="url(#p0bdc401243)" d="M 329.018182 302.732829 
L 329.018182 298.079024 
" style="fill:none;stroke:#ff7f0e;stroke-width:1.5;"/>
    <path clip-path="url(#p0bdc401243)" d="M 345.927273 303.467668 
L 345.927273 299.331164 
" style="fill:none;stroke:#ff7f0e;stroke-width:1.5;"/>
    <path clip-path="url(#p0bdc401243)" d="M 362.836364 304.151589 
L 362.836364 300.290288 
" style="fill:none;stroke:#ff7f0e;stroke-width:1.5;"/>
    <path clip-path="url(#p0bdc401243)" d="M 379.745455 304.758612 
L 379.745455 301.129422 
" style="fill:none;stroke:#ff7f0e;stroke-width:1.5;"/>
    <path clip-path="url(#p0bdc401243)" d="M 396.654545 304.991286 
L 396.654545 301.657576 
" style="fill:none;stroke:#ff7f0e;stroke-width:1.5;"/>
    <path clip-path="url(#p0bdc401243)" d="M 413.563636 305.437867 
L 413.563636 302.265523 
" style="fill:none;stroke:#ff7f0e;stroke-width:1.5;"/>
    <path clip-path="url(#p0bdc401243)" d="M 430.472727 305.562593 
L 430.472727 302.367617 
" style="fill:none;stroke:#ff7f0e;stroke-width:1.5;"/>
    <path clip-path="url(#p0bdc401243)" d="M 447.381818 305.769027 
L 447.381818 302.6787 
" style="fill:none;stroke:#ff7f0e;stroke-width:1.5;"/>
    <path clip-path="url(#p0bdc401243)" d="M 464.290909 306.207727 
L 464.290909 303.171841 
" style="fill:none;stroke:#ff7f0e;stroke-width:1.5;"/>
    <path clip-path="url(#p0bdc401243)" d="M 481.2 305.926632 
L 481.2 302.984349 
" style="fill:none;stroke:#ff7f0e;stroke-width:1.5;"/>
    <path clip-path="url(#p0bdc401243)" d="M 498.109091 306.402573 
L 498.109091 303.415667 
" style="fill:none;stroke:#ff7f0e;stroke-width:1.5;"/>
   </g>
   <g id="LineCollection_3">
    <path clip-path="url(#p0bdc401243)" d="M 92.290909 137.79859 
L 92.290909 88.942633 
" style="fill:none;stroke:#2ca02c;stroke-width:1.5;"/>
    <path clip-path="url(#p0bdc401243)" d="M 109.2 185.541586 
L 109.2 130.356881 
" style="fill:none;stroke:#2ca02c;stroke-width:1.5;"/>
    <path clip-path="url(#p0bdc401243)" d="M 126.109091 113.978959 
L 126.109091 82.507233 
" style="fill:none;stroke:#2ca02c;stroke-width:1.5;"/>
    <path clip-path="url(#p0bdc401243)" d="M 143.018182 157.484706 
L 143.018182 103.8398 
" style="fill:none;stroke:#2ca02c;stroke-width:1.5;"/>
    <path clip-path="url(#p0bdc401243)" d="M 159.927273 111.817988 
L 159.927273 99.436321 
" style="fill:none;stroke:#2ca02c;stroke-width:1.5;"/>
    <path clip-path="url(#p0bdc401243)" d="M 176.836364 131.530505 
L 176.836364 109.08647 
" style="fill:none;stroke:#2ca02c;stroke-width:1.5;"/>
    <path clip-path="url(#p0bdc401243)" d="M 193.745455 149.309563 
L 193.745455 125.541158 
" style="fill:none;stroke:#2ca02c;stroke-width:1.5;"/>
    <path clip-path="url(#p0bdc401243)" d="M 210.654545 154.576048 
L 210.654545 144.695363 
" style="fill:none;stroke:#2ca02c;stroke-width:1.5;"/>
    <path clip-path="url(#p0bdc401243)" d="M 227.563636 185.698581 
L 227.563636 168.601939 
" style="fill:none;stroke:#2ca02c;stroke-width:1.5;"/>
    <path clip-path="url(#p0bdc401243)" d="M 244.472727 212.722108 
L 244.472727 203.845234 
" style="fill:none;stroke:#2ca02c;stroke-width:1.5;"/>
    <path clip-path="url(#p0bdc401243)" d="M 245.318182 226.041257 
L 245.318182 206.118055 
" style="fill:none;stroke:#2ca02c;stroke-width:1.5;"/>
    <path clip-path="url(#p0bdc401243)" d="M 246.163636 237.012565 
L 246.163636 218.873041 
" style="fill:none;stroke:#2ca02c;stroke-width:1.5;"/>
    <path clip-path="url(#p0bdc401243)" d="M 247.009091 249.528024 
L 247.009091 238.467243 
" style="fill:none;stroke:#2ca02c;stroke-width:1.5;"/>
    <path clip-path="url(#p0bdc401243)" d="M 247.854545 243.42501 
L 247.854545 231.134471 
" style="fill:none;stroke:#2ca02c;stroke-width:1.5;"/>
    <path clip-path="url(#p0bdc401243)" d="M 248.7 236.529515 
L 248.7 222.594354 
" style="fill:none;stroke:#2ca02c;stroke-width:1.5;"/>
    <path clip-path="url(#p0bdc401243)" d="M 249.545455 262.248793 
L 249.545455 242.128187 
" style="fill:none;stroke:#2ca02c;stroke-width:1.5;"/>
    <path clip-path="url(#p0bdc401243)" d="M 250.390909 252.511148 
L 250.390909 237.346642 
" style="fill:none;stroke:#2ca02c;stroke-width:1.5;"/>
    <path clip-path="url(#p0bdc401243)" d="M 251.236364 280.574087 
L 251.236364 256.700713 
" style="fill:none;stroke:#2ca02c;stroke-width:1.5;"/>
    <path clip-path="url(#p0bdc401243)" d="M 252.081818 256.851191 
L 252.081818 241.202292 
" style="fill:none;stroke:#2ca02c;stroke-width:1.5;"/>
    <path clip-path="url(#p0bdc401243)" d="M 252.927273 256.021413 
L 252.927273 238.492444 
" style="fill:none;stroke:#2ca02c;stroke-width:1.5;"/>
    <path clip-path="url(#p0bdc401243)" d="M 253.772727 250.735236 
L 253.772727 239.462063 
" style="fill:none;stroke:#2ca02c;stroke-width:1.5;"/>
    <path clip-path="url(#p0bdc401243)" d="M 254.618182 277.138572 
L 254.618182 263.37538 
" style="fill:none;stroke:#2ca02c;stroke-width:1.5;"/>
    <path clip-path="url(#p0bdc401243)" d="M 255.463636 284.958734 
L 255.463636 269.24499 
" style="fill:none;stroke:#2ca02c;stroke-width:1.5;"/>
    <path clip-path="url(#p0bdc401243)" d="M 256.309091 263.273325 
L 256.309091 254.850127 
" style="fill:none;stroke:#2ca02c;stroke-width:1.5;"/>
    <path clip-path="url(#p0bdc401243)" d="M 257.154545 279.266602 
L 257.154545 268.528862 
" style="fill:none;stroke:#2ca02c;stroke-width:1.5;"/>
    <path clip-path="url(#p0bdc401243)" d="M 258 276.516374 
L 258 263.195048 
" style="fill:none;stroke:#2ca02c;stroke-width:1.5;"/>
    <path clip-path="url(#p0bdc401243)" d="M 258.845455 287.187488 
L 258.845455 277.353322 
" style="fill:none;stroke:#2ca02c;stroke-width:1.5;"/>
    <path clip-path="url(#p0bdc401243)" d="M 259.690909 288.077528 
L 259.690909 279.77769 
" style="fill:none;stroke:#2ca02c;stroke-width:1.5;"/>
    <path clip-path="url(#p0bdc401243)" d="M 260.536364 282.270952 
L 260.536364 269.722015 
" style="fill:none;stroke:#2ca02c;stroke-width:1.5;"/>
    <path clip-path="url(#p0bdc401243)" d="M 261.381818 289.617535 
L 261.381818 276.26037 
" style="fill:none;stroke:#2ca02c;stroke-width:1.5;"/>
    <path clip-path="url(#p0bdc401243)" d="M 278.290909 299.107031 
L 278.290909 291.651784 
" style="fill:none;stroke:#2ca02c;stroke-width:1.5;"/>
    <path clip-path="url(#p0bdc401243)" d="M 295.2 302.757522 
L 295.2 298.429581 
" style="fill:none;stroke:#2ca02c;stroke-width:1.5;"/>
    <path clip-path="url(#p0bdc401243)" d="M 312.109091 304.824095 
L 312.109091 301.135994 
" style="fill:none;stroke:#2ca02c;stroke-width:1.5;"/>
    <path clip-path="url(#p0bdc401243)" d="M 329.018182 305.028701 
L 329.018182 301.742914 
" style="fill:none;stroke:#2ca02c;stroke-width:1.5;"/>
    <path clip-path="url(#p0bdc401243)" d="M 345.927273 305.702812 
L 345.927273 302.651032 
" style="fill:none;stroke:#2ca02c;stroke-width:1.5;"/>
    <path clip-path="url(#p0bdc401243)" d="M 362.836364 306.573994 
L 362.836364 303.569424 
" style="fill:none;stroke:#2ca02c;stroke-width:1.5;"/>
    <path clip-path="url(#p0bdc401243)" d="M 379.745455 306.657207 
L 379.745455 304.077963 
" style="fill:none;stroke:#2ca02c;stroke-width:1.5;"/>
    <path clip-path="url(#p0bdc401243)" d="M 396.654545 307.156964 
L 396.654545 304.642436 
" style="fill:none;stroke:#2ca02c;stroke-width:1.5;"/>
    <path clip-path="url(#p0bdc401243)" d="M 413.563636 307.124877 
L 413.563636 304.853383 
" style="fill:none;stroke:#2ca02c;stroke-width:1.5;"/>
    <path clip-path="url(#p0bdc401243)" d="M 430.472727 307.59014 
L 430.472727 305.37926 
" style="fill:none;stroke:#2ca02c;stroke-width:1.5;"/>
    <path clip-path="url(#p0bdc401243)" d="M 447.381818 307.406821 
L 447.381818 305.216584 
" style="fill:none;stroke:#2ca02c;stroke-width:1.5;"/>
    <path clip-path="url(#p0bdc401243)" d="M 464.290909 307.349201 
L 464.290909 305.204804 
" style="fill:none;stroke:#2ca02c;stroke-width:1.5;"/>
    <path clip-path="url(#p0bdc401243)" d="M 481.2 307.597245 
L 481.2 305.625035 
" style="fill:none;stroke:#2ca02c;stroke-width:1.5;"/>
    <path clip-path="url(#p0bdc401243)" d="M 498.109091 307.8 
L 498.109091 305.723956 
" style="fill:none;stroke:#2ca02c;stroke-width:1.5;"/>
   </g>
   <g id="line2d_23">
    <path clip-path="url(#p0bdc401243)" d="M 92.290909 56.537433 
L 109.2 65.417569 
L 126.109091 74.6425 
L 143.018182 85.319847 
L 159.927273 95.831861 
L 176.836364 108.438049 
L 193.745455 123.212985 
L 210.654545 140.847083 
L 227.563636 163.636187 
L 244.472727 198.632638 
L 245.318182 201.807559 
L 246.163636 204.881268 
L 247.009091 208.607148 
L 247.854545 209.367286 
L 248.7 214.634318 
L 249.545455 215.933041 
L 250.390909 213.620214 
L 251.236364 218.298701 
L 252.081818 221.475521 
L 252.927273 226.941108 
L 253.772727 235.452314 
L 254.618182 226.064777 
L 255.463636 230.481058 
L 256.309091 243.022161 
L 257.154545 241.549168 
L 258 245.154196 
L 258.845455 251.987293 
L 259.690909 247.039389 
L 260.536364 252.996025 
L 261.381818 255.846618 
L 278.290909 279.620839 
L 295.2 287.310339 
L 312.109091 292.3438 
L 329.018182 294.739532 
L 345.927273 296.06196 
L 362.836364 297.133024 
L 379.745455 297.99281 
L 396.654545 298.464942 
L 413.563636 299.47654 
L 430.472727 299.718035 
L 447.381818 300.429574 
L 464.290909 300.787217 
L 481.2 300.975606 
L 498.109091 301.144978 
" style="fill:none;stroke:#1f77b4;stroke-dasharray:5.55,2.4;stroke-dashoffset:0;stroke-width:1.5;"/>
    <defs>
     <path d="M 0 1.5 
C 0.397805 1.5 0.77937 1.341951 1.06066 1.06066 
C 1.341951 0.77937 1.5 0.397805 1.5 0 
C 1.5 -0.397805 1.341951 -0.77937 1.06066 -1.06066 
C 0.77937 -1.341951 0.397805 -1.5 0 -1.5 
C -0.397805 -1.5 -0.77937 -1.341951 -1.06066 -1.06066 
C -1.341951 -0.77937 -1.5 -0.397805 -1.5 0 
C -1.5 0.397805 -1.341951 0.77937 -1.06066 1.06066 
C -0.77937 1.341951 -0.397805 1.5 0 1.5 
z
" id="mc06dcbc8f7" style="stroke:#1f77b4;"/>
    </defs>
    <g clip-path="url(#p0bdc401243)">
     <use style="fill:#1f77b4;stroke:#1f77b4;" x="92.290909" xlink:href="#mc06dcbc8f7" y="56.537433"/>
     <use style="fill:#1f77b4;stroke:#1f77b4;" x="109.2" xlink:href="#mc06dcbc8f7" y="65.417569"/>
     <use style="fill:#1f77b4;stroke:#1f77b4;" x="126.109091" xlink:href="#mc06dcbc8f7" y="74.6425"/>
     <use style="fill:#1f77b4;stroke:#1f77b4;" x="143.018182" xlink:href="#mc06dcbc8f7" y="85.319847"/>
     <use style="fill:#1f77b4;stroke:#1f77b4;" x="159.927273" xlink:href="#mc06dcbc8f7" y="95.831861"/>
     <use style="fill:#1f77b4;stroke:#1f77b4;" x="176.836364" xlink:href="#mc06dcbc8f7" y="108.438049"/>
     <use style="fill:#1f77b4;stroke:#1f77b4;" x="193.745455" xlink:href="#mc06dcbc8f7" y="123.212985"/>
     <use style="fill:#1f77b4;stroke:#1f77b4;" x="210.654545" xlink:href="#mc06dcbc8f7" y="140.847083"/>
     <use style="fill:#1f77b4;stroke:#1f77b4;" x="227.563636" xlink:href="#mc06dcbc8f7" y="163.636187"/>
     <use style="fill:#1f77b4;stroke:#1f77b4;" x="244.472727" xlink:href="#mc06dcbc8f7" y="198.632638"/>
     <use style="fill:#1f77b4;stroke:#1f77b4;" x="245.318182" xlink:href="#mc06dcbc8f7" y="201.807559"/>
     <use style="fill:#1f77b4;stroke:#1f77b4;" x="246.163636" xlink:href="#mc06dcbc8f7" y="204.881268"/>
     <use style="fill:#1f77b4;stroke:#1f77b4;" x="247.009091" xlink:href="#mc06dcbc8f7" y="208.607148"/>
     <use style="fill:#1f77b4;stroke:#1f77b4;" x="247.854545" xlink:href="#mc06dcbc8f7" y="209.367286"/>
     <use style="fill:#1f77b4;stroke:#1f77b4;" x="248.7" xlink:href="#mc06dcbc8f7" y="214.634318"/>
     <use style="fill:#1f77b4;stroke:#1f77b4;" x="249.545455" xlink:href="#mc06dcbc8f7" y="215.933041"/>
     <use style="fill:#1f77b4;stroke:#1f77b4;" x="250.390909" xlink:href="#mc06dcbc8f7" y="213.620214"/>
     <use style="fill:#1f77b4;stroke:#1f77b4;" x="251.236364" xlink:href="#mc06dcbc8f7" y="218.298701"/>
     <use style="fill:#1f77b4;stroke:#1f77b4;" x="252.081818" xlink:href="#mc06dcbc8f7" y="221.475521"/>
     <use style="fill:#1f77b4;stroke:#1f77b4;" x="252.927273" xlink:href="#mc06dcbc8f7" y="226.941108"/>
     <use style="fill:#1f77b4;stroke:#1f77b4;" x="253.772727" xlink:href="#mc06dcbc8f7" y="235.452314"/>
     <use style="fill:#1f77b4;stroke:#1f77b4;" x="254.618182" xlink:href="#mc06dcbc8f7" y="226.064777"/>
     <use style="fill:#1f77b4;stroke:#1f77b4;" x="255.463636" xlink:href="#mc06dcbc8f7" y="230.481058"/>
     <use style="fill:#1f77b4;stroke:#1f77b4;" x="256.309091" xlink:href="#mc06dcbc8f7" y="243.022161"/>
     <use style="fill:#1f77b4;stroke:#1f77b4;" x="257.154545" xlink:href="#mc06dcbc8f7" y="241.549168"/>
     <use style="fill:#1f77b4;stroke:#1f77b4;" x="258" xlink:href="#mc06dcbc8f7" y="245.154196"/>
     <use style="fill:#1f77b4;stroke:#1f77b4;" x="258.845455" xlink:href="#mc06dcbc8f7" y="251.987293"/>
     <use style="fill:#1f77b4;stroke:#1f77b4;" x="259.690909" xlink:href="#mc06dcbc8f7" y="247.039389"/>
     <use style="fill:#1f77b4;stroke:#1f77b4;" x="260.536364" xlink:href="#mc06dcbc8f7" y="252.996025"/>
     <use style="fill:#1f77b4;stroke:#1f77b4;" x="261.381818" xlink:href="#mc06dcbc8f7" y="255.846618"/>
     <use style="fill:#1f77b4;stroke:#1f77b4;" x="278.290909" xlink:href="#mc06dcbc8f7" y="279.620839"/>
     <use style="fill:#1f77b4;stroke:#1f77b4;" x="295.2" xlink:href="#mc06dcbc8f7" y="287.310339"/>
     <use style="fill:#1f77b4;stroke:#1f77b4;" x="312.109091" xlink:href="#mc06dcbc8f7" y="292.3438"/>
     <use style="fill:#1f77b4;stroke:#1f77b4;" x="329.018182" xlink:href="#mc06dcbc8f7" y="294.739532"/>
     <use style="fill:#1f77b4;stroke:#1f77b4;" x="345.927273" xlink:href="#mc06dcbc8f7" y="296.06196"/>
     <use style="fill:#1f77b4;stroke:#1f77b4;" x="362.836364" xlink:href="#mc06dcbc8f7" y="297.133024"/>
     <use style="fill:#1f77b4;stroke:#1f77b4;" x="379.745455" xlink:href="#mc06dcbc8f7" y="297.99281"/>
     <use style="fill:#1f77b4;stroke:#1f77b4;" x="396.654545" xlink:href="#mc06dcbc8f7" y="298.464942"/>
     <use style="fill:#1f77b4;stroke:#1f77b4;" x="413.563636" xlink:href="#mc06dcbc8f7" y="299.47654"/>
     <use style="fill:#1f77b4;stroke:#1f77b4;" x="430.472727" xlink:href="#mc06dcbc8f7" y="299.718035"/>
     <use style="fill:#1f77b4;stroke:#1f77b4;" x="447.381818" xlink:href="#mc06dcbc8f7" y="300.429574"/>
     <use style="fill:#1f77b4;stroke:#1f77b4;" x="464.290909" xlink:href="#mc06dcbc8f7" y="300.787217"/>
     <use style="fill:#1f77b4;stroke:#1f77b4;" x="481.2" xlink:href="#mc06dcbc8f7" y="300.975606"/>
     <use style="fill:#1f77b4;stroke:#1f77b4;" x="498.109091" xlink:href="#mc06dcbc8f7" y="301.144978"/>
    </g>
   </g>
   <g id="line2d_24">
    <path clip-path="url(#p0bdc401243)" d="M 92.290909 61.455417 
L 109.2 67.396097 
L 126.109091 87.139826 
L 143.018182 93.896456 
L 159.927273 101.659094 
L 176.836364 110.36815 
L 193.745455 126.675759 
L 210.654545 151.99148 
L 227.563636 165.545455 
L 244.472727 203.406602 
L 245.318182 208.981842 
L 246.163636 213.957486 
L 247.009091 218.842099 
L 247.854545 218.083372 
L 248.7 217.661549 
L 249.545455 227.284821 
L 250.390909 231.264495 
L 251.236364 232.601841 
L 252.081818 232.998591 
L 252.927273 237.33687 
L 253.772727 242.114914 
L 254.618182 250.243876 
L 255.463636 256.867983 
L 256.309091 259.892371 
L 257.154545 259.750053 
L 258 255.096813 
L 258.845455 269.906037 
L 259.690909 267.398806 
L 260.536364 271.397215 
L 261.381818 277.228697 
L 278.290909 288.808766 
L 295.2 296.477532 
L 312.109091 298.441876 
L 329.018182 300.405927 
L 345.927273 301.399416 
L 362.836364 302.220939 
L 379.745455 302.944017 
L 396.654545 303.324431 
L 413.563636 303.851695 
L 430.472727 303.965105 
L 447.381818 304.223864 
L 464.290909 304.689784 
L 481.2 304.45549 
L 498.109091 304.90912 
" style="fill:none;stroke:#ff7f0e;stroke-dasharray:5.55,2.4;stroke-dashoffset:0;stroke-width:1.5;"/>
    <defs>
     <path d="M 0 1.5 
C 0.397805 1.5 0.77937 1.341951 1.06066 1.06066 
C 1.341951 0.77937 1.5 0.397805 1.5 0 
C 1.5 -0.397805 1.341951 -0.77937 1.06066 -1.06066 
C 0.77937 -1.341951 0.397805 -1.5 0 -1.5 
C -0.397805 -1.5 -0.77937 -1.341951 -1.06066 -1.06066 
C -1.341951 -0.77937 -1.5 -0.397805 -1.5 0 
C -1.5 0.397805 -1.341951 0.77937 -1.06066 1.06066 
C -0.77937 1.341951 -0.397805 1.5 0 1.5 
z
" id="mff2957d74c" style="stroke:#ff7f0e;"/>
    </defs>
    <g clip-path="url(#p0bdc401243)">
     <use style="fill:#ff7f0e;stroke:#ff7f0e;" x="92.290909" xlink:href="#mff2957d74c" y="61.455417"/>
     <use style="fill:#ff7f0e;stroke:#ff7f0e;" x="109.2" xlink:href="#mff2957d74c" y="67.396097"/>
     <use style="fill:#ff7f0e;stroke:#ff7f0e;" x="126.109091" xlink:href="#mff2957d74c" y="87.139826"/>
     <use style="fill:#ff7f0e;stroke:#ff7f0e;" x="143.018182" xlink:href="#mff2957d74c" y="93.896456"/>
     <use style="fill:#ff7f0e;stroke:#ff7f0e;" x="159.927273" xlink:href="#mff2957d74c" y="101.659094"/>
     <use style="fill:#ff7f0e;stroke:#ff7f0e;" x="176.836364" xlink:href="#mff2957d74c" y="110.36815"/>
     <use style="fill:#ff7f0e;stroke:#ff7f0e;" x="193.745455" xlink:href="#mff2957d74c" y="126.675759"/>
     <use style="fill:#ff7f0e;stroke:#ff7f0e;" x="210.654545" xlink:href="#mff2957d74c" y="151.99148"/>
     <use style="fill:#ff7f0e;stroke:#ff7f0e;" x="227.563636" xlink:href="#mff2957d74c" y="165.545455"/>
     <use style="fill:#ff7f0e;stroke:#ff7f0e;" x="244.472727" xlink:href="#mff2957d74c" y="203.406602"/>
     <use style="fill:#ff7f0e;stroke:#ff7f0e;" x="245.318182" xlink:href="#mff2957d74c" y="208.981842"/>
     <use style="fill:#ff7f0e;stroke:#ff7f0e;" x="246.163636" xlink:href="#mff2957d74c" y="213.957486"/>
     <use style="fill:#ff7f0e;stroke:#ff7f0e;" x="247.009091" xlink:href="#mff2957d74c" y="218.842099"/>
     <use style="fill:#ff7f0e;stroke:#ff7f0e;" x="247.854545" xlink:href="#mff2957d74c" y="218.083372"/>
     <use style="fill:#ff7f0e;stroke:#ff7f0e;" x="248.7" xlink:href="#mff2957d74c" y="217.661549"/>
     <use style="fill:#ff7f0e;stroke:#ff7f0e;" x="249.545455" xlink:href="#mff2957d74c" y="227.284821"/>
     <use style="fill:#ff7f0e;stroke:#ff7f0e;" x="250.390909" xlink:href="#mff2957d74c" y="231.264495"/>
     <use style="fill:#ff7f0e;stroke:#ff7f0e;" x="251.236364" xlink:href="#mff2957d74c" y="232.601841"/>
     <use style="fill:#ff7f0e;stroke:#ff7f0e;" x="252.081818" xlink:href="#mff2957d74c" y="232.998591"/>
     <use style="fill:#ff7f0e;stroke:#ff7f0e;" x="252.927273" xlink:href="#mff2957d74c" y="237.33687"/>
     <use style="fill:#ff7f0e;stroke:#ff7f0e;" x="253.772727" xlink:href="#mff2957d74c" y="242.114914"/>
     <use style="fill:#ff7f0e;stroke:#ff7f0e;" x="254.618182" xlink:href="#mff2957d74c" y="250.243876"/>
     <use style="fill:#ff7f0e;stroke:#ff7f0e;" x="255.463636" xlink:href="#mff2957d74c" y="256.867983"/>
     <use style="fill:#ff7f0e;stroke:#ff7f0e;" x="256.309091" xlink:href="#mff2957d74c" y="259.892371"/>
     <use style="fill:#ff7f0e;stroke:#ff7f0e;" x="257.154545" xlink:href="#mff2957d74c" y="259.750053"/>
     <use style="fill:#ff7f0e;stroke:#ff7f0e;" x="258" xlink:href="#mff2957d74c" y="255.096813"/>
     <use style="fill:#ff7f0e;stroke:#ff7f0e;" x="258.845455" xlink:href="#mff2957d74c" y="269.906037"/>
     <use style="fill:#ff7f0e;stroke:#ff7f0e;" x="259.690909" xlink:href="#mff2957d74c" y="267.398806"/>
     <use style="fill:#ff7f0e;stroke:#ff7f0e;" x="260.536364" xlink:href="#mff2957d74c" y="271.397215"/>
     <use style="fill:#ff7f0e;stroke:#ff7f0e;" x="261.381818" xlink:href="#mff2957d74c" y="277.228697"/>
     <use style="fill:#ff7f0e;stroke:#ff7f0e;" x="278.290909" xlink:href="#mff2957d74c" y="288.808766"/>
     <use style="fill:#ff7f0e;stroke:#ff7f0e;" x="295.2" xlink:href="#mff2957d74c" y="296.477532"/>
     <use style="fill:#ff7f0e;stroke:#ff7f0e;" x="312.109091" xlink:href="#mff2957d74c" y="298.441876"/>
     <use style="fill:#ff7f0e;stroke:#ff7f0e;" x="329.018182" xlink:href="#mff2957d74c" y="300.405927"/>
     <use style="fill:#ff7f0e;stroke:#ff7f0e;" x="345.927273" xlink:href="#mff2957d74c" y="301.399416"/>
     <use style="fill:#ff7f0e;stroke:#ff7f0e;" x="362.836364" xlink:href="#mff2957d74c" y="302.220939"/>
     <use style="fill:#ff7f0e;stroke:#ff7f0e;" x="379.745455" xlink:href="#mff2957d74c" y="302.944017"/>
     <use style="fill:#ff7f0e;stroke:#ff7f0e;" x="396.654545" xlink:href="#mff2957d74c" y="303.324431"/>
     <use style="fill:#ff7f0e;stroke:#ff7f0e;" x="413.563636" xlink:href="#mff2957d74c" y="303.851695"/>
     <use style="fill:#ff7f0e;stroke:#ff7f0e;" x="430.472727" xlink:href="#mff2957d74c" y="303.965105"/>
     <use style="fill:#ff7f0e;stroke:#ff7f0e;" x="447.381818" xlink:href="#mff2957d74c" y="304.223864"/>
     <use style="fill:#ff7f0e;stroke:#ff7f0e;" x="464.290909" xlink:href="#mff2957d74c" y="304.689784"/>
     <use style="fill:#ff7f0e;stroke:#ff7f0e;" x="481.2" xlink:href="#mff2957d74c" y="304.45549"/>
     <use style="fill:#ff7f0e;stroke:#ff7f0e;" x="498.109091" xlink:href="#mff2957d74c" y="304.90912"/>
    </g>
   </g>
   <g id="line2d_25">
    <path clip-path="url(#p0bdc401243)" d="M 92.290909 113.370611 
L 109.2 157.949233 
L 126.109091 98.243096 
L 143.018182 130.662253 
L 159.927273 105.627155 
L 176.836364 120.308488 
L 193.745455 137.42536 
L 210.654545 149.635705 
L 227.563636 177.15026 
L 244.472727 208.283671 
L 245.318182 216.079656 
L 246.163636 227.942803 
L 247.009091 243.997634 
L 247.854545 237.27974 
L 248.7 229.561935 
L 249.545455 252.18849 
L 250.390909 244.928895 
L 251.236364 268.6374 
L 252.081818 249.026742 
L 252.927273 247.256928 
L 253.772727 245.098649 
L 254.618182 270.256976 
L 255.463636 277.101862 
L 256.309091 259.061726 
L 257.154545 273.897732 
L 258 269.855711 
L 258.845455 282.270405 
L 259.690909 283.927609 
L 260.536364 275.996483 
L 261.381818 282.938952 
L 278.290909 295.379407 
L 295.2 300.593551 
L 312.109091 302.980045 
L 329.018182 303.385808 
L 345.927273 304.176922 
L 362.836364 305.071709 
L 379.745455 305.367585 
L 396.654545 305.8997 
L 413.563636 305.98913 
L 430.472727 306.4847 
L 447.381818 306.311703 
L 464.290909 306.277002 
L 481.2 306.61114 
L 498.109091 306.761978 
" style="fill:none;stroke:#2ca02c;stroke-dasharray:5.55,2.4;stroke-dashoffset:0;stroke-width:1.5;"/>
    <defs>
     <path d="M 0 1.5 
C 0.397805 1.5 0.77937 1.341951 1.06066 1.06066 
C 1.341951 0.77937 1.5 0.397805 1.5 0 
C 1.5 -0.397805 1.341951 -0.77937 1.06066 -1.06066 
C 0.77937 -1.341951 0.397805 -1.5 0 -1.5 
C -0.397805 -1.5 -0.77937 -1.341951 -1.06066 -1.06066 
C -1.341951 -0.77937 -1.5 -0.397805 -1.5 0 
C -1.5 0.397805 -1.341951 0.77937 -1.06066 1.06066 
C -0.77937 1.341951 -0.397805 1.5 0 1.5 
z
" id="mffc942306e" style="stroke:#2ca02c;"/>
    </defs>
    <g clip-path="url(#p0bdc401243)">
     <use style="fill:#2ca02c;stroke:#2ca02c;" x="92.290909" xlink:href="#mffc942306e" y="113.370611"/>
     <use style="fill:#2ca02c;stroke:#2ca02c;" x="109.2" xlink:href="#mffc942306e" y="157.949233"/>
     <use style="fill:#2ca02c;stroke:#2ca02c;" x="126.109091" xlink:href="#mffc942306e" y="98.243096"/>
     <use style="fill:#2ca02c;stroke:#2ca02c;" x="143.018182" xlink:href="#mffc942306e" y="130.662253"/>
     <use style="fill:#2ca02c;stroke:#2ca02c;" x="159.927273" xlink:href="#mffc942306e" y="105.627155"/>
     <use style="fill:#2ca02c;stroke:#2ca02c;" x="176.836364" xlink:href="#mffc942306e" y="120.308488"/>
     <use style="fill:#2ca02c;stroke:#2ca02c;" x="193.745455" xlink:href="#mffc942306e" y="137.42536"/>
     <use style="fill:#2ca02c;stroke:#2ca02c;" x="210.654545" xlink:href="#mffc942306e" y="149.635705"/>
     <use style="fill:#2ca02c;stroke:#2ca02c;" x="227.563636" xlink:href="#mffc942306e" y="177.15026"/>
     <use style="fill:#2ca02c;stroke:#2ca02c;" x="244.472727" xlink:href="#mffc942306e" y="208.283671"/>
     <use style="fill:#2ca02c;stroke:#2ca02c;" x="245.318182" xlink:href="#mffc942306e" y="216.079656"/>
     <use style="fill:#2ca02c;stroke:#2ca02c;" x="246.163636" xlink:href="#mffc942306e" y="227.942803"/>
     <use style="fill:#2ca02c;stroke:#2ca02c;" x="247.009091" xlink:href="#mffc942306e" y="243.997634"/>
     <use style="fill:#2ca02c;stroke:#2ca02c;" x="247.854545" xlink:href="#mffc942306e" y="237.27974"/>
     <use style="fill:#2ca02c;stroke:#2ca02c;" x="248.7" xlink:href="#mffc942306e" y="229.561935"/>
     <use style="fill:#2ca02c;stroke:#2ca02c;" x="249.545455" xlink:href="#mffc942306e" y="252.18849"/>
     <use style="fill:#2ca02c;stroke:#2ca02c;" x="250.390909" xlink:href="#mffc942306e" y="244.928895"/>
     <use style="fill:#2ca02c;stroke:#2ca02c;" x="251.236364" xlink:href="#mffc942306e" y="268.6374"/>
     <use style="fill:#2ca02c;stroke:#2ca02c;" x="252.081818" xlink:href="#mffc942306e" y="249.026742"/>
     <use style="fill:#2ca02c;stroke:#2ca02c;" x="252.927273" xlink:href="#mffc942306e" y="247.256928"/>
     <use style="fill:#2ca02c;stroke:#2ca02c;" x="253.772727" xlink:href="#mffc942306e" y="245.098649"/>
     <use style="fill:#2ca02c;stroke:#2ca02c;" x="254.618182" xlink:href="#mffc942306e" y="270.256976"/>
     <use style="fill:#2ca02c;stroke:#2ca02c;" x="255.463636" xlink:href="#mffc942306e" y="277.101862"/>
     <use style="fill:#2ca02c;stroke:#2ca02c;" x="256.309091" xlink:href="#mffc942306e" y="259.061726"/>
     <use style="fill:#2ca02c;stroke:#2ca02c;" x="257.154545" xlink:href="#mffc942306e" y="273.897732"/>
     <use style="fill:#2ca02c;stroke:#2ca02c;" x="258" xlink:href="#mffc942306e" y="269.855711"/>
     <use style="fill:#2ca02c;stroke:#2ca02c;" x="258.845455" xlink:href="#mffc942306e" y="282.270405"/>
     <use style="fill:#2ca02c;stroke:#2ca02c;" x="259.690909" xlink:href="#mffc942306e" y="283.927609"/>
     <use style="fill:#2ca02c;stroke:#2ca02c;" x="260.536364" xlink:href="#mffc942306e" y="275.996483"/>
     <use style="fill:#2ca02c;stroke:#2ca02c;" x="261.381818" xlink:href="#mffc942306e" y="282.938952"/>
     <use style="fill:#2ca02c;stroke:#2ca02c;" x="278.290909" xlink:href="#mffc942306e" y="295.379407"/>
     <use style="fill:#2ca02c;stroke:#2ca02c;" x="295.2" xlink:href="#mffc942306e" y="300.593551"/>
     <use style="fill:#2ca02c;stroke:#2ca02c;" x="312.109091" xlink:href="#mffc942306e" y="302.980045"/>
     <use style="fill:#2ca02c;stroke:#2ca02c;" x="329.018182" xlink:href="#mffc942306e" y="303.385808"/>
     <use style="fill:#2ca02c;stroke:#2ca02c;" x="345.927273" xlink:href="#mffc942306e" y="304.176922"/>
     <use style="fill:#2ca02c;stroke:#2ca02c;" x="362.836364" xlink:href="#mffc942306e" y="305.071709"/>
     <use style="fill:#2ca02c;stroke:#2ca02c;" x="379.745455" xlink:href="#mffc942306e" y="305.367585"/>
     <use style="fill:#2ca02c;stroke:#2ca02c;" x="396.654545" xlink:href="#mffc942306e" y="305.8997"/>
     <use style="fill:#2ca02c;stroke:#2ca02c;" x="413.563636" xlink:href="#mffc942306e" y="305.98913"/>
     <use style="fill:#2ca02c;stroke:#2ca02c;" x="430.472727" xlink:href="#mffc942306e" y="306.4847"/>
     <use style="fill:#2ca02c;stroke:#2ca02c;" x="447.381818" xlink:href="#mffc942306e" y="306.311703"/>
     <use style="fill:#2ca02c;stroke:#2ca02c;" x="464.290909" xlink:href="#mffc942306e" y="306.277002"/>
     <use style="fill:#2ca02c;stroke:#2ca02c;" x="481.2" xlink:href="#mffc942306e" y="306.61114"/>
     <use style="fill:#2ca02c;stroke:#2ca02c;" x="498.109091" xlink:href="#mffc942306e" y="306.761978"/>
    </g>
   </g>
   <g id="patch_3">
    <path d="M 72 320.4 
L 72 43.2 
" style="fill:none;stroke:#000000;stroke-linecap:square;stroke-linejoin:miter;stroke-width:0.8;"/>
   </g>
   <g id="patch_4">
    <path d="M 518.4 320.4 
L 518.4 43.2 
" style="fill:none;stroke:#000000;stroke-linecap:square;stroke-linejoin:miter;stroke-width:0.8;"/>
   </g>
   <g id="patch_5">
    <path d="M 72 320.4 
L 518.4 320.4 
" style="fill:none;stroke:#000000;stroke-linecap:square;stroke-linejoin:miter;stroke-width:0.8;"/>
   </g>
   <g id="patch_6">
    <path d="M 72 43.2 
L 518.4 43.2 
" style="fill:none;stroke:#000000;stroke-linecap:square;stroke-linejoin:miter;stroke-width:0.8;"/>
   </g>
   <g id="text_14">
    <!-- Vatiation of Expectation value for magnitude magnetization with temperature -->
    <g transform="translate(61.295625 37.2)scale(0.12 -0.12)">
     <defs>
      <path d="M 1831 0 
L 50 4666 
L 709 4666 
L 2188 738 
L 3669 4666 
L 4325 4666 
L 2547 0 
L 1831 0 
z
" id="DejaVuSans-56" transform="scale(0.015625)"/>
      <path d="M 2194 1759 
Q 1497 1759 1228 1600 
Q 959 1441 959 1056 
Q 959 750 1161 570 
Q 1363 391 1709 391 
Q 2188 391 2477 730 
Q 2766 1069 2766 1631 
L 2766 1759 
L 2194 1759 
z
M 3341 1997 
L 3341 0 
L 2766 0 
L 2766 531 
Q 2569 213 2275 61 
Q 1981 -91 1556 -91 
Q 1019 -91 701 211 
Q 384 513 384 1019 
Q 384 1609 779 1909 
Q 1175 2209 1959 2209 
L 2766 2209 
L 2766 2266 
Q 2766 2663 2505 2880 
Q 2244 3097 1772 3097 
Q 1472 3097 1187 3025 
Q 903 2953 641 2809 
L 641 3341 
Q 956 3463 1253 3523 
Q 1550 3584 1831 3584 
Q 2591 3584 2966 3190 
Q 3341 2797 3341 1997 
z
" id="DejaVuSans-61" transform="scale(0.015625)"/>
      <path d="M 1172 4494 
L 1172 3500 
L 2356 3500 
L 2356 3053 
L 1172 3053 
L 1172 1153 
Q 1172 725 1289 603 
Q 1406 481 1766 481 
L 2356 481 
L 2356 0 
L 1766 0 
Q 1100 0 847 248 
Q 594 497 594 1153 
L 594 3053 
L 172 3053 
L 172 3500 
L 594 3500 
L 594 4494 
L 1172 4494 
z
" id="DejaVuSans-74" transform="scale(0.015625)"/>
      <path d="M 603 3500 
L 1178 3500 
L 1178 0 
L 603 0 
L 603 3500 
z
M 603 4863 
L 1178 4863 
L 1178 4134 
L 603 4134 
L 603 4863 
z
" id="DejaVuSans-69" transform="scale(0.015625)"/>
      <path d="M 1959 3097 
Q 1497 3097 1228 2736 
Q 959 2375 959 1747 
Q 959 1119 1226 758 
Q 1494 397 1959 397 
Q 2419 397 2687 759 
Q 2956 1122 2956 1747 
Q 2956 2369 2687 2733 
Q 2419 3097 1959 3097 
z
M 1959 3584 
Q 2709 3584 3137 3096 
Q 3566 2609 3566 1747 
Q 3566 888 3137 398 
Q 2709 -91 1959 -91 
Q 1206 -91 779 398 
Q 353 888 353 1747 
Q 353 2609 779 3096 
Q 1206 3584 1959 3584 
z
" id="DejaVuSans-6f" transform="scale(0.015625)"/>
      <path d="M 3513 2113 
L 3513 0 
L 2938 0 
L 2938 2094 
Q 2938 2591 2744 2837 
Q 2550 3084 2163 3084 
Q 1697 3084 1428 2787 
Q 1159 2491 1159 1978 
L 1159 0 
L 581 0 
L 581 3500 
L 1159 3500 
L 1159 2956 
Q 1366 3272 1645 3428 
Q 1925 3584 2291 3584 
Q 2894 3584 3203 3211 
Q 3513 2838 3513 2113 
z
" id="DejaVuSans-6e" transform="scale(0.015625)"/>
      <path id="DejaVuSans-20" transform="scale(0.015625)"/>
      <path d="M 2375 4863 
L 2375 4384 
L 1825 4384 
Q 1516 4384 1395 4259 
Q 1275 4134 1275 3809 
L 1275 3500 
L 2222 3500 
L 2222 3053 
L 1275 3053 
L 1275 0 
L 697 0 
L 697 3053 
L 147 3053 
L 147 3500 
L 697 3500 
L 697 3744 
Q 697 4328 969 4595 
Q 1241 4863 1831 4863 
L 2375 4863 
z
" id="DejaVuSans-66" transform="scale(0.015625)"/>
      <path d="M 628 4666 
L 3578 4666 
L 3578 4134 
L 1259 4134 
L 1259 2753 
L 3481 2753 
L 3481 2222 
L 1259 2222 
L 1259 531 
L 3634 531 
L 3634 0 
L 628 0 
L 628 4666 
z
" id="DejaVuSans-45" transform="scale(0.015625)"/>
      <path d="M 3513 3500 
L 2247 1797 
L 3578 0 
L 2900 0 
L 1881 1375 
L 863 0 
L 184 0 
L 1544 1831 
L 300 3500 
L 978 3500 
L 1906 2253 
L 2834 3500 
L 3513 3500 
z
" id="DejaVuSans-78" transform="scale(0.015625)"/>
      <path d="M 1159 525 
L 1159 -1331 
L 581 -1331 
L 581 3500 
L 1159 3500 
L 1159 2969 
Q 1341 3281 1617 3432 
Q 1894 3584 2278 3584 
Q 2916 3584 3314 3078 
Q 3713 2572 3713 1747 
Q 3713 922 3314 415 
Q 2916 -91 2278 -91 
Q 1894 -91 1617 61 
Q 1341 213 1159 525 
z
M 3116 1747 
Q 3116 2381 2855 2742 
Q 2594 3103 2138 3103 
Q 1681 3103 1420 2742 
Q 1159 2381 1159 1747 
Q 1159 1113 1420 752 
Q 1681 391 2138 391 
Q 2594 391 2855 752 
Q 3116 1113 3116 1747 
z
" id="DejaVuSans-70" transform="scale(0.015625)"/>
      <path d="M 3597 1894 
L 3597 1613 
L 953 1613 
Q 991 1019 1311 708 
Q 1631 397 2203 397 
Q 2534 397 2845 478 
Q 3156 559 3463 722 
L 3463 178 
Q 3153 47 2828 -22 
Q 2503 -91 2169 -91 
Q 1331 -91 842 396 
Q 353 884 353 1716 
Q 353 2575 817 3079 
Q 1281 3584 2069 3584 
Q 2775 3584 3186 3129 
Q 3597 2675 3597 1894 
z
M 3022 2063 
Q 3016 2534 2758 2815 
Q 2500 3097 2075 3097 
Q 1594 3097 1305 2825 
Q 1016 2553 972 2059 
L 3022 2063 
z
" id="DejaVuSans-65" transform="scale(0.015625)"/>
      <path d="M 3122 3366 
L 3122 2828 
Q 2878 2963 2633 3030 
Q 2388 3097 2138 3097 
Q 1578 3097 1268 2742 
Q 959 2388 959 1747 
Q 959 1106 1268 751 
Q 1578 397 2138 397 
Q 2388 397 2633 464 
Q 2878 531 3122 666 
L 3122 134 
Q 2881 22 2623 -34 
Q 2366 -91 2075 -91 
Q 1284 -91 818 406 
Q 353 903 353 1747 
Q 353 2603 823 3093 
Q 1294 3584 2113 3584 
Q 2378 3584 2631 3529 
Q 2884 3475 3122 3366 
z
" id="DejaVuSans-63" transform="scale(0.015625)"/>
      <path d="M 191 3500 
L 800 3500 
L 1894 563 
L 2988 3500 
L 3597 3500 
L 2284 0 
L 1503 0 
L 191 3500 
z
" id="DejaVuSans-76" transform="scale(0.015625)"/>
      <path d="M 603 4863 
L 1178 4863 
L 1178 0 
L 603 0 
L 603 4863 
z
" id="DejaVuSans-6c" transform="scale(0.015625)"/>
      <path d="M 544 1381 
L 544 3500 
L 1119 3500 
L 1119 1403 
Q 1119 906 1312 657 
Q 1506 409 1894 409 
Q 2359 409 2629 706 
Q 2900 1003 2900 1516 
L 2900 3500 
L 3475 3500 
L 3475 0 
L 2900 0 
L 2900 538 
Q 2691 219 2414 64 
Q 2138 -91 1772 -91 
Q 1169 -91 856 284 
Q 544 659 544 1381 
z
M 1991 3584 
L 1991 3584 
z
" id="DejaVuSans-75" transform="scale(0.015625)"/>
      <path d="M 2631 2963 
Q 2534 3019 2420 3045 
Q 2306 3072 2169 3072 
Q 1681 3072 1420 2755 
Q 1159 2438 1159 1844 
L 1159 0 
L 581 0 
L 581 3500 
L 1159 3500 
L 1159 2956 
Q 1341 3275 1631 3429 
Q 1922 3584 2338 3584 
Q 2397 3584 2469 3576 
Q 2541 3569 2628 3553 
L 2631 2963 
z
" id="DejaVuSans-72" transform="scale(0.015625)"/>
      <path d="M 3328 2828 
Q 3544 3216 3844 3400 
Q 4144 3584 4550 3584 
Q 5097 3584 5394 3201 
Q 5691 2819 5691 2113 
L 5691 0 
L 5113 0 
L 5113 2094 
Q 5113 2597 4934 2840 
Q 4756 3084 4391 3084 
Q 3944 3084 3684 2787 
Q 3425 2491 3425 1978 
L 3425 0 
L 2847 0 
L 2847 2094 
Q 2847 2600 2669 2842 
Q 2491 3084 2119 3084 
Q 1678 3084 1418 2786 
Q 1159 2488 1159 1978 
L 1159 0 
L 581 0 
L 581 3500 
L 1159 3500 
L 1159 2956 
Q 1356 3278 1631 3431 
Q 1906 3584 2284 3584 
Q 2666 3584 2933 3390 
Q 3200 3197 3328 2828 
z
" id="DejaVuSans-6d" transform="scale(0.015625)"/>
      <path d="M 2906 1791 
Q 2906 2416 2648 2759 
Q 2391 3103 1925 3103 
Q 1463 3103 1205 2759 
Q 947 2416 947 1791 
Q 947 1169 1205 825 
Q 1463 481 1925 481 
Q 2391 481 2648 825 
Q 2906 1169 2906 1791 
z
M 3481 434 
Q 3481 -459 3084 -895 
Q 2688 -1331 1869 -1331 
Q 1566 -1331 1297 -1286 
Q 1028 -1241 775 -1147 
L 775 -588 
Q 1028 -725 1275 -790 
Q 1522 -856 1778 -856 
Q 2344 -856 2625 -561 
Q 2906 -266 2906 331 
L 2906 616 
Q 2728 306 2450 153 
Q 2172 0 1784 0 
Q 1141 0 747 490 
Q 353 981 353 1791 
Q 353 2603 747 3093 
Q 1141 3584 1784 3584 
Q 2172 3584 2450 3431 
Q 2728 3278 2906 2969 
L 2906 3500 
L 3481 3500 
L 3481 434 
z
" id="DejaVuSans-67" transform="scale(0.015625)"/>
      <path d="M 2906 2969 
L 2906 4863 
L 3481 4863 
L 3481 0 
L 2906 0 
L 2906 525 
Q 2725 213 2448 61 
Q 2172 -91 1784 -91 
Q 1150 -91 751 415 
Q 353 922 353 1747 
Q 353 2572 751 3078 
Q 1150 3584 1784 3584 
Q 2172 3584 2448 3432 
Q 2725 3281 2906 2969 
z
M 947 1747 
Q 947 1113 1208 752 
Q 1469 391 1925 391 
Q 2381 391 2643 752 
Q 2906 1113 2906 1747 
Q 2906 2381 2643 2742 
Q 2381 3103 1925 3103 
Q 1469 3103 1208 2742 
Q 947 2381 947 1747 
z
" id="DejaVuSans-64" transform="scale(0.015625)"/>
      <path d="M 353 3500 
L 3084 3500 
L 3084 2975 
L 922 459 
L 3084 459 
L 3084 0 
L 275 0 
L 275 525 
L 2438 3041 
L 353 3041 
L 353 3500 
z
" id="DejaVuSans-7a" transform="scale(0.015625)"/>
      <path d="M 269 3500 
L 844 3500 
L 1563 769 
L 2278 3500 
L 2956 3500 
L 3675 769 
L 4391 3500 
L 4966 3500 
L 4050 0 
L 3372 0 
L 2619 2869 
L 1863 0 
L 1184 0 
L 269 3500 
z
" id="DejaVuSans-77" transform="scale(0.015625)"/>
      <path d="M 3513 2113 
L 3513 0 
L 2938 0 
L 2938 2094 
Q 2938 2591 2744 2837 
Q 2550 3084 2163 3084 
Q 1697 3084 1428 2787 
Q 1159 2491 1159 1978 
L 1159 0 
L 581 0 
L 581 4863 
L 1159 4863 
L 1159 2956 
Q 1366 3272 1645 3428 
Q 1925 3584 2291 3584 
Q 2894 3584 3203 3211 
Q 3513 2838 3513 2113 
z
" id="DejaVuSans-68" transform="scale(0.015625)"/>
     </defs>
     <use xlink:href="#DejaVuSans-56"/>
     <use x="60.658203" xlink:href="#DejaVuSans-61"/>
     <use x="121.9375" xlink:href="#DejaVuSans-74"/>
     <use x="161.146484" xlink:href="#DejaVuSans-69"/>
     <use x="188.929688" xlink:href="#DejaVuSans-61"/>
     <use x="250.208984" xlink:href="#DejaVuSans-74"/>
     <use x="289.417969" xlink:href="#DejaVuSans-69"/>
     <use x="317.201172" xlink:href="#DejaVuSans-6f"/>
     <use x="378.382812" xlink:href="#DejaVuSans-6e"/>
     <use x="441.761719" xlink:href="#DejaVuSans-20"/>
     <use x="473.548828" xlink:href="#DejaVuSans-6f"/>
     <use x="534.730469" xlink:href="#DejaVuSans-66"/>
     <use x="569.935547" xlink:href="#DejaVuSans-20"/>
     <use x="601.722656" xlink:href="#DejaVuSans-45"/>
     <use x="664.90625" xlink:href="#DejaVuSans-78"/>
     <use x="724.085938" xlink:href="#DejaVuSans-70"/>
     <use x="787.5625" xlink:href="#DejaVuSans-65"/>
     <use x="849.085938" xlink:href="#DejaVuSans-63"/>
     <use x="904.066406" xlink:href="#DejaVuSans-74"/>
     <use x="943.275391" xlink:href="#DejaVuSans-61"/>
     <use x="1004.554688" xlink:href="#DejaVuSans-74"/>
     <use x="1043.763672" xlink:href="#DejaVuSans-69"/>
     <use x="1071.546875" xlink:href="#DejaVuSans-6f"/>
     <use x="1132.728516" xlink:href="#DejaVuSans-6e"/>
     <use x="1196.107422" xlink:href="#DejaVuSans-20"/>
     <use x="1227.894531" xlink:href="#DejaVuSans-76"/>
     <use x="1287.074219" xlink:href="#DejaVuSans-61"/>
     <use x="1348.353516" xlink:href="#DejaVuSans-6c"/>
     <use x="1376.136719" xlink:href="#DejaVuSans-75"/>
     <use x="1439.515625" xlink:href="#DejaVuSans-65"/>
     <use x="1501.039062" xlink:href="#DejaVuSans-20"/>
     <use x="1532.826172" xlink:href="#DejaVuSans-66"/>
     <use x="1568.03125" xlink:href="#DejaVuSans-6f"/>
     <use x="1629.212891" xlink:href="#DejaVuSans-72"/>
     <use x="1670.326172" xlink:href="#DejaVuSans-20"/>
     <use x="1702.113281" xlink:href="#DejaVuSans-6d"/>
     <use x="1799.525391" xlink:href="#DejaVuSans-61"/>
     <use x="1860.804688" xlink:href="#DejaVuSans-67"/>
     <use x="1924.28125" xlink:href="#DejaVuSans-6e"/>
     <use x="1987.660156" xlink:href="#DejaVuSans-69"/>
     <use x="2015.443359" xlink:href="#DejaVuSans-74"/>
     <use x="2054.652344" xlink:href="#DejaVuSans-75"/>
     <use x="2118.03125" xlink:href="#DejaVuSans-64"/>
     <use x="2181.507812" xlink:href="#DejaVuSans-65"/>
     <use x="2243.03125" xlink:href="#DejaVuSans-20"/>
     <use x="2274.818359" xlink:href="#DejaVuSans-6d"/>
     <use x="2372.230469" xlink:href="#DejaVuSans-61"/>
     <use x="2433.509766" xlink:href="#DejaVuSans-67"/>
     <use x="2496.986328" xlink:href="#DejaVuSans-6e"/>
     <use x="2560.365234" xlink:href="#DejaVuSans-65"/>
     <use x="2621.888672" xlink:href="#DejaVuSans-74"/>
     <use x="2661.097656" xlink:href="#DejaVuSans-69"/>
     <use x="2688.880859" xlink:href="#DejaVuSans-7a"/>
     <use x="2741.371094" xlink:href="#DejaVuSans-61"/>
     <use x="2802.650391" xlink:href="#DejaVuSans-74"/>
     <use x="2841.859375" xlink:href="#DejaVuSans-69"/>
     <use x="2869.642578" xlink:href="#DejaVuSans-6f"/>
     <use x="2930.824219" xlink:href="#DejaVuSans-6e"/>
     <use x="2994.203125" xlink:href="#DejaVuSans-20"/>
     <use x="3025.990234" xlink:href="#DejaVuSans-77"/>
     <use x="3107.777344" xlink:href="#DejaVuSans-69"/>
     <use x="3135.560547" xlink:href="#DejaVuSans-74"/>
     <use x="3174.769531" xlink:href="#DejaVuSans-68"/>
     <use x="3238.148438" xlink:href="#DejaVuSans-20"/>
     <use x="3269.935547" xlink:href="#DejaVuSans-74"/>
     <use x="3309.144531" xlink:href="#DejaVuSans-65"/>
     <use x="3370.667969" xlink:href="#DejaVuSans-6d"/>
     <use x="3468.080078" xlink:href="#DejaVuSans-70"/>
     <use x="3531.556641" xlink:href="#DejaVuSans-65"/>
     <use x="3593.080078" xlink:href="#DejaVuSans-72"/>
     <use x="3634.193359" xlink:href="#DejaVuSans-61"/>
     <use x="3695.472656" xlink:href="#DejaVuSans-74"/>
     <use x="3734.681641" xlink:href="#DejaVuSans-75"/>
     <use x="3798.060547" xlink:href="#DejaVuSans-72"/>
     <use x="3836.923828" xlink:href="#DejaVuSans-65"/>
    </g>
   </g>
   <g id="legend_1">
    <g id="patch_7">
     <path d="M 436.826562 95.234375 
L 511.4 95.234375 
Q 513.4 95.234375 513.4 93.234375 
L 513.4 50.2 
Q 513.4 48.2 511.4 48.2 
L 436.826562 48.2 
Q 434.826562 48.2 434.826562 50.2 
L 434.826562 93.234375 
Q 434.826562 95.234375 436.826562 95.234375 
z
" style="fill:#ffffff;opacity:0.8;stroke:#cccccc;stroke-linejoin:miter;"/>
    </g>
    <g id="LineCollection_4">
     <path d="M 448.826562 61.298437 
L 448.826562 51.298437 
" style="fill:none;stroke:#1f77b4;stroke-width:1.5;"/>
    </g>
    <g id="line2d_26">
     <path d="M 438.826562 56.298437 
L 458.826562 56.298437 
" style="fill:none;stroke:#1f77b4;stroke-dasharray:5.55,2.4;stroke-dashoffset:0;stroke-width:1.5;"/>
    </g>
    <g id="line2d_27">
     <g>
      <use style="fill:#1f77b4;stroke:#1f77b4;" x="448.826562" xlink:href="#mc06dcbc8f7" y="56.298437"/>
     </g>
    </g>
    <g id="text_15">
     <!-- L = 12.0 -->
     <g transform="translate(466.826562 59.798437)scale(0.1 -0.1)">
      <defs>
       <path d="M 628 4666 
L 1259 4666 
L 1259 531 
L 3531 531 
L 3531 0 
L 628 0 
L 628 4666 
z
" id="DejaVuSans-4c" transform="scale(0.015625)"/>
       <path d="M 678 2906 
L 4684 2906 
L 4684 2381 
L 678 2381 
L 678 2906 
z
M 678 1631 
L 4684 1631 
L 4684 1100 
L 678 1100 
L 678 1631 
z
" id="DejaVuSans-3d" transform="scale(0.015625)"/>
      </defs>
      <use xlink:href="#DejaVuSans-4c"/>
      <use x="55.712891" xlink:href="#DejaVuSans-20"/>
      <use x="87.5" xlink:href="#DejaVuSans-3d"/>
      <use x="171.289062" xlink:href="#DejaVuSans-20"/>
      <use x="203.076172" xlink:href="#DejaVuSans-31"/>
      <use x="266.699219" xlink:href="#DejaVuSans-32"/>
      <use x="330.322266" xlink:href="#DejaVuSans-2e"/>
      <use x="362.109375" xlink:href="#DejaVuSans-30"/>
     </g>
    </g>
    <g id="LineCollection_5">
     <path d="M 448.826562 75.976562 
L 448.826562 65.976562 
" style="fill:none;stroke:#ff7f0e;stroke-width:1.5;"/>
    </g>
    <g id="line2d_28">
     <path d="M 438.826562 70.976562 
L 458.826562 70.976562 
" style="fill:none;stroke:#ff7f0e;stroke-dasharray:5.55,2.4;stroke-dashoffset:0;stroke-width:1.5;"/>
    </g>
    <g id="line2d_29">
     <g>
      <use style="fill:#ff7f0e;stroke:#ff7f0e;" x="448.826562" xlink:href="#mff2957d74c" y="70.976562"/>
     </g>
    </g>
    <g id="text_16">
     <!-- L = 16.0 -->
     <g transform="translate(466.826562 74.476562)scale(0.1 -0.1)">
      <use xlink:href="#DejaVuSans-4c"/>
      <use x="55.712891" xlink:href="#DejaVuSans-20"/>
      <use x="87.5" xlink:href="#DejaVuSans-3d"/>
      <use x="171.289062" xlink:href="#DejaVuSans-20"/>
      <use x="203.076172" xlink:href="#DejaVuSans-31"/>
      <use x="266.699219" xlink:href="#DejaVuSans-36"/>
      <use x="330.322266" xlink:href="#DejaVuSans-2e"/>
      <use x="362.109375" xlink:href="#DejaVuSans-30"/>
     </g>
    </g>
    <g id="LineCollection_6">
     <path d="M 448.826562 90.654687 
L 448.826562 80.654687 
" style="fill:none;stroke:#2ca02c;stroke-width:1.5;"/>
    </g>
    <g id="line2d_30">
     <path d="M 438.826562 85.654687 
L 458.826562 85.654687 
" style="fill:none;stroke:#2ca02c;stroke-dasharray:5.55,2.4;stroke-dashoffset:0;stroke-width:1.5;"/>
    </g>
    <g id="line2d_31">
     <g>
      <use style="fill:#2ca02c;stroke:#2ca02c;" x="448.826562" xlink:href="#mffc942306e" y="85.654687"/>
     </g>
    </g>
    <g id="text_17">
     <!-- L = 20.0 -->
     <g transform="translate(466.826562 89.154687)scale(0.1 -0.1)">
      <use xlink:href="#DejaVuSans-4c"/>
      <use x="55.712891" xlink:href="#DejaVuSans-20"/>
      <use x="87.5" xlink:href="#DejaVuSans-3d"/>
      <use x="171.289062" xlink:href="#DejaVuSans-20"/>
      <use x="203.076172" xlink:href="#DejaVuSans-32"/>
      <use x="266.699219" xlink:href="#DejaVuSans-30"/>
      <use x="330.322266" xlink:href="#DejaVuSans-2e"/>
      <use x="362.109375" xlink:href="#DejaVuSans-30"/>
     </g>
    </g>
   </g>
  </g>
 </g>
 <defs>
  <clipPath id="p0bdc401243">
   <rect height="277.2" width="446.4" x="72" y="43.2"/>
  </clipPath>
 </defs>
</svg>
