<?xml version="1.0" encoding="utf-8" standalone="no"?>
<!DOCTYPE svg PUBLIC "-//W3C//DTD SVG 1.1//EN"
  "http://www.w3.org/Graphics/SVG/1.1/DTD/svg11.dtd">
<svg height="360pt" version="1.1" viewBox="0 0 576 360" width="576pt" xmlns="http://www.w3.org/2000/svg" xmlns:xlink="http://www.w3.org/1999/xlink">
 <metadata>
  <rdf:RDF xmlns:cc="http://creativecommons.org/ns#" xmlns:dc="http://purl.org/dc/elements/1.1/" xmlns:rdf="http://www.w3.org/1999/02/22-rdf-syntax-ns#">
   <cc:Work>
    <dc:type rdf:resource="http://purl.org/dc/dcmitype/StillImage"/>
    <dc:date>2022-04-25T12:53:11.787252</dc:date>
    <dc:format>image/svg+xml</dc:format>
    <dc:creator>
     <cc:Agent>
      <dc:title>Matplotlib v3.4.3, https://matplotlib.org/</dc:title>
     </cc:Agent>
    </dc:creator>
   </cc:Work>
  </rdf:RDF>
 </metadata>
 <defs>
  <style type="text/css">*{stroke-linecap:butt;stroke-linejoin:round;}</style>
 </defs>
 <g id="figure_1">
  <g id="patch_1">
   <path d="M 0 360 
L 576 360 
L 576 0 
L 0 0 
z
" style="fill:#ffffff;"/>
  </g>
  <g id="axes_1">
   <g id="patch_2">
    <path d="M 72 320.4 
L 518.4 320.4 
L 518.4 43.2 
L 72 43.2 
z
" style="fill:#ffffff;"/>
   </g>
   <g id="matplotlib.axis_1">
    <g id="xtick_1">
     <g id="line2d_1">
      <path clip-path="url(#pc8f83cfedf)" d="M 92.290909 320.4 
L 92.290909 43.2 
" style="fill:none;stroke:#b0b0b0;stroke-linecap:square;stroke-width:0.8;"/>
     </g>
     <g id="line2d_2">
      <defs>
       <path d="M 0 0 
L 0 3.5 
" id="m80ff703472" style="stroke:#000000;stroke-width:0.8;"/>
      </defs>
      <g>
       <use style="stroke:#000000;stroke-width:0.8;" x="92.290909" xlink:href="#m80ff703472" y="320.4"/>
      </g>
     </g>
     <g id="text_1">
      <!-- 0.5 -->
      <g transform="translate(84.339347 334.998438)scale(0.1 -0.1)">
       <defs>
        <path d="M 2034 4250 
Q 1547 4250 1301 3770 
Q 1056 3291 1056 2328 
Q 1056 1369 1301 889 
Q 1547 409 2034 409 
Q 2525 409 2770 889 
Q 3016 1369 3016 2328 
Q 3016 3291 2770 3770 
Q 2525 4250 2034 4250 
z
M 2034 4750 
Q 2819 4750 3233 4129 
Q 3647 3509 3647 2328 
Q 3647 1150 3233 529 
Q 2819 -91 2034 -91 
Q 1250 -91 836 529 
Q 422 1150 422 2328 
Q 422 3509 836 4129 
Q 1250 4750 2034 4750 
z
" id="DejaVuSans-30" transform="scale(0.015625)"/>
        <path d="M 684 794 
L 1344 794 
L 1344 0 
L 684 0 
L 684 794 
z
" id="DejaVuSans-2e" transform="scale(0.015625)"/>
        <path d="M 691 4666 
L 3169 4666 
L 3169 4134 
L 1269 4134 
L 1269 2991 
Q 1406 3038 1543 3061 
Q 1681 3084 1819 3084 
Q 2600 3084 3056 2656 
Q 3513 2228 3513 1497 
Q 3513 744 3044 326 
Q 2575 -91 1722 -91 
Q 1428 -91 1123 -41 
Q 819 9 494 109 
L 494 744 
Q 775 591 1075 516 
Q 1375 441 1709 441 
Q 2250 441 2565 725 
Q 2881 1009 2881 1497 
Q 2881 1984 2565 2268 
Q 2250 2553 1709 2553 
Q 1456 2553 1204 2497 
Q 953 2441 691 2322 
L 691 4666 
z
" id="DejaVuSans-35" transform="scale(0.015625)"/>
       </defs>
       <use xlink:href="#DejaVuSans-30"/>
       <use x="63.623047" xlink:href="#DejaVuSans-2e"/>
       <use x="95.410156" xlink:href="#DejaVuSans-35"/>
      </g>
     </g>
    </g>
    <g id="xtick_2">
     <g id="line2d_3">
      <path clip-path="url(#pc8f83cfedf)" d="M 176.836364 320.4 
L 176.836364 43.2 
" style="fill:none;stroke:#b0b0b0;stroke-linecap:square;stroke-width:0.8;"/>
     </g>
     <g id="line2d_4">
      <g>
       <use style="stroke:#000000;stroke-width:0.8;" x="176.836364" xlink:href="#m80ff703472" y="320.4"/>
      </g>
     </g>
     <g id="text_2">
      <!-- 1.0 -->
      <g transform="translate(168.884801 334.998438)scale(0.1 -0.1)">
       <defs>
        <path d="M 794 531 
L 1825 531 
L 1825 4091 
L 703 3866 
L 703 4441 
L 1819 4666 
L 2450 4666 
L 2450 531 
L 3481 531 
L 3481 0 
L 794 0 
L 794 531 
z
" id="DejaVuSans-31" transform="scale(0.015625)"/>
       </defs>
       <use xlink:href="#DejaVuSans-31"/>
       <use x="63.623047" xlink:href="#DejaVuSans-2e"/>
       <use x="95.410156" xlink:href="#DejaVuSans-30"/>
      </g>
     </g>
    </g>
    <g id="xtick_3">
     <g id="line2d_5">
      <path clip-path="url(#pc8f83cfedf)" d="M 261.381818 320.4 
L 261.381818 43.2 
" style="fill:none;stroke:#b0b0b0;stroke-linecap:square;stroke-width:0.8;"/>
     </g>
     <g id="line2d_6">
      <g>
       <use style="stroke:#000000;stroke-width:0.8;" x="261.381818" xlink:href="#m80ff703472" y="320.4"/>
      </g>
     </g>
     <g id="text_3">
      <!-- 1.5 -->
      <g transform="translate(253.430256 334.998438)scale(0.1 -0.1)">
       <use xlink:href="#DejaVuSans-31"/>
       <use x="63.623047" xlink:href="#DejaVuSans-2e"/>
       <use x="95.410156" xlink:href="#DejaVuSans-35"/>
      </g>
     </g>
    </g>
    <g id="xtick_4">
     <g id="line2d_7">
      <path clip-path="url(#pc8f83cfedf)" d="M 345.927273 320.4 
L 345.927273 43.2 
" style="fill:none;stroke:#b0b0b0;stroke-linecap:square;stroke-width:0.8;"/>
     </g>
     <g id="line2d_8">
      <g>
       <use style="stroke:#000000;stroke-width:0.8;" x="345.927273" xlink:href="#m80ff703472" y="320.4"/>
      </g>
     </g>
     <g id="text_4">
      <!-- 2.0 -->
      <g transform="translate(337.97571 334.998438)scale(0.1 -0.1)">
       <defs>
        <path d="M 1228 531 
L 3431 531 
L 3431 0 
L 469 0 
L 469 531 
Q 828 903 1448 1529 
Q 2069 2156 2228 2338 
Q 2531 2678 2651 2914 
Q 2772 3150 2772 3378 
Q 2772 3750 2511 3984 
Q 2250 4219 1831 4219 
Q 1534 4219 1204 4116 
Q 875 4013 500 3803 
L 500 4441 
Q 881 4594 1212 4672 
Q 1544 4750 1819 4750 
Q 2544 4750 2975 4387 
Q 3406 4025 3406 3419 
Q 3406 3131 3298 2873 
Q 3191 2616 2906 2266 
Q 2828 2175 2409 1742 
Q 1991 1309 1228 531 
z
" id="DejaVuSans-32" transform="scale(0.015625)"/>
       </defs>
       <use xlink:href="#DejaVuSans-32"/>
       <use x="63.623047" xlink:href="#DejaVuSans-2e"/>
       <use x="95.410156" xlink:href="#DejaVuSans-30"/>
      </g>
     </g>
    </g>
    <g id="xtick_5">
     <g id="line2d_9">
      <path clip-path="url(#pc8f83cfedf)" d="M 430.472727 320.4 
L 430.472727 43.2 
" style="fill:none;stroke:#b0b0b0;stroke-linecap:square;stroke-width:0.8;"/>
     </g>
     <g id="line2d_10">
      <g>
       <use style="stroke:#000000;stroke-width:0.8;" x="430.472727" xlink:href="#m80ff703472" y="320.4"/>
      </g>
     </g>
     <g id="text_5">
      <!-- 2.5 -->
      <g transform="translate(422.521165 334.998438)scale(0.1 -0.1)">
       <use xlink:href="#DejaVuSans-32"/>
       <use x="63.623047" xlink:href="#DejaVuSans-2e"/>
       <use x="95.410156" xlink:href="#DejaVuSans-35"/>
      </g>
     </g>
    </g>
    <g id="xtick_6">
     <g id="line2d_11">
      <path clip-path="url(#pc8f83cfedf)" d="M 515.018182 320.4 
L 515.018182 43.2 
" style="fill:none;stroke:#b0b0b0;stroke-linecap:square;stroke-width:0.8;"/>
     </g>
     <g id="line2d_12">
      <g>
       <use style="stroke:#000000;stroke-width:0.8;" x="515.018182" xlink:href="#m80ff703472" y="320.4"/>
      </g>
     </g>
     <g id="text_6">
      <!-- 3.0 -->
      <g transform="translate(507.066619 334.998438)scale(0.1 -0.1)">
       <defs>
        <path d="M 2597 2516 
Q 3050 2419 3304 2112 
Q 3559 1806 3559 1356 
Q 3559 666 3084 287 
Q 2609 -91 1734 -91 
Q 1441 -91 1130 -33 
Q 819 25 488 141 
L 488 750 
Q 750 597 1062 519 
Q 1375 441 1716 441 
Q 2309 441 2620 675 
Q 2931 909 2931 1356 
Q 2931 1769 2642 2001 
Q 2353 2234 1838 2234 
L 1294 2234 
L 1294 2753 
L 1863 2753 
Q 2328 2753 2575 2939 
Q 2822 3125 2822 3475 
Q 2822 3834 2567 4026 
Q 2313 4219 1838 4219 
Q 1578 4219 1281 4162 
Q 984 4106 628 3988 
L 628 4550 
Q 988 4650 1302 4700 
Q 1616 4750 1894 4750 
Q 2613 4750 3031 4423 
Q 3450 4097 3450 3541 
Q 3450 3153 3228 2886 
Q 3006 2619 2597 2516 
z
" id="DejaVuSans-33" transform="scale(0.015625)"/>
       </defs>
       <use xlink:href="#DejaVuSans-33"/>
       <use x="63.623047" xlink:href="#DejaVuSans-2e"/>
       <use x="95.410156" xlink:href="#DejaVuSans-30"/>
      </g>
     </g>
    </g>
    <g id="text_7">
     <!-- T -->
     <g transform="translate(292.146094 348.676562)scale(0.1 -0.1)">
      <defs>
       <path d="M -19 4666 
L 3928 4666 
L 3928 4134 
L 2272 4134 
L 2272 0 
L 1638 0 
L 1638 4134 
L -19 4134 
L -19 4666 
z
" id="DejaVuSans-54" transform="scale(0.015625)"/>
      </defs>
      <use xlink:href="#DejaVuSans-54"/>
     </g>
    </g>
   </g>
   <g id="matplotlib.axis_2">
    <g id="ytick_1">
     <g id="line2d_13">
      <path clip-path="url(#pc8f83cfedf)" d="M 72 271.044136 
L 518.4 271.044136 
" style="fill:none;stroke:#b0b0b0;stroke-linecap:square;stroke-width:0.8;"/>
     </g>
     <g id="line2d_14">
      <defs>
       <path d="M 0 0 
L -3.5 0 
" id="me51932bb4a" style="stroke:#000000;stroke-width:0.8;"/>
      </defs>
      <g>
       <use style="stroke:#000000;stroke-width:0.8;" x="72" xlink:href="#me51932bb4a" y="271.044136"/>
      </g>
     </g>
     <g id="text_8">
      <!-- 0.45 -->
      <g transform="translate(42.734375 274.843355)scale(0.1 -0.1)">
       <defs>
        <path d="M 2419 4116 
L 825 1625 
L 2419 1625 
L 2419 4116 
z
M 2253 4666 
L 3047 4666 
L 3047 1625 
L 3713 1625 
L 3713 1100 
L 3047 1100 
L 3047 0 
L 2419 0 
L 2419 1100 
L 313 1100 
L 313 1709 
L 2253 4666 
z
" id="DejaVuSans-34" transform="scale(0.015625)"/>
       </defs>
       <use xlink:href="#DejaVuSans-30"/>
       <use x="63.623047" xlink:href="#DejaVuSans-2e"/>
       <use x="95.410156" xlink:href="#DejaVuSans-34"/>
       <use x="159.033203" xlink:href="#DejaVuSans-35"/>
      </g>
     </g>
    </g>
    <g id="ytick_2">
     <g id="line2d_15">
      <path clip-path="url(#pc8f83cfedf)" d="M 72 221.36846 
L 518.4 221.36846 
" style="fill:none;stroke:#b0b0b0;stroke-linecap:square;stroke-width:0.8;"/>
     </g>
     <g id="line2d_16">
      <g>
       <use style="stroke:#000000;stroke-width:0.8;" x="72" xlink:href="#me51932bb4a" y="221.36846"/>
      </g>
     </g>
     <g id="text_9">
      <!-- 0.50 -->
      <g transform="translate(42.734375 225.167679)scale(0.1 -0.1)">
       <use xlink:href="#DejaVuSans-30"/>
       <use x="63.623047" xlink:href="#DejaVuSans-2e"/>
       <use x="95.410156" xlink:href="#DejaVuSans-35"/>
       <use x="159.033203" xlink:href="#DejaVuSans-30"/>
      </g>
     </g>
    </g>
    <g id="ytick_3">
     <g id="line2d_17">
      <path clip-path="url(#pc8f83cfedf)" d="M 72 171.692784 
L 518.4 171.692784 
" style="fill:none;stroke:#b0b0b0;stroke-linecap:square;stroke-width:0.8;"/>
     </g>
     <g id="line2d_18">
      <g>
       <use style="stroke:#000000;stroke-width:0.8;" x="72" xlink:href="#me51932bb4a" y="171.692784"/>
      </g>
     </g>
     <g id="text_10">
      <!-- 0.55 -->
      <g transform="translate(42.734375 175.492003)scale(0.1 -0.1)">
       <use xlink:href="#DejaVuSans-30"/>
       <use x="63.623047" xlink:href="#DejaVuSans-2e"/>
       <use x="95.410156" xlink:href="#DejaVuSans-35"/>
       <use x="159.033203" xlink:href="#DejaVuSans-35"/>
      </g>
     </g>
    </g>
    <g id="ytick_4">
     <g id="line2d_19">
      <path clip-path="url(#pc8f83cfedf)" d="M 72 122.017108 
L 518.4 122.017108 
" style="fill:none;stroke:#b0b0b0;stroke-linecap:square;stroke-width:0.8;"/>
     </g>
     <g id="line2d_20">
      <g>
       <use style="stroke:#000000;stroke-width:0.8;" x="72" xlink:href="#me51932bb4a" y="122.017108"/>
      </g>
     </g>
     <g id="text_11">
      <!-- 0.60 -->
      <g transform="translate(42.734375 125.816327)scale(0.1 -0.1)">
       <defs>
        <path d="M 2113 2584 
Q 1688 2584 1439 2293 
Q 1191 2003 1191 1497 
Q 1191 994 1439 701 
Q 1688 409 2113 409 
Q 2538 409 2786 701 
Q 3034 994 3034 1497 
Q 3034 2003 2786 2293 
Q 2538 2584 2113 2584 
z
M 3366 4563 
L 3366 3988 
Q 3128 4100 2886 4159 
Q 2644 4219 2406 4219 
Q 1781 4219 1451 3797 
Q 1122 3375 1075 2522 
Q 1259 2794 1537 2939 
Q 1816 3084 2150 3084 
Q 2853 3084 3261 2657 
Q 3669 2231 3669 1497 
Q 3669 778 3244 343 
Q 2819 -91 2113 -91 
Q 1303 -91 875 529 
Q 447 1150 447 2328 
Q 447 3434 972 4092 
Q 1497 4750 2381 4750 
Q 2619 4750 2861 4703 
Q 3103 4656 3366 4563 
z
" id="DejaVuSans-36" transform="scale(0.015625)"/>
       </defs>
       <use xlink:href="#DejaVuSans-30"/>
       <use x="63.623047" xlink:href="#DejaVuSans-2e"/>
       <use x="95.410156" xlink:href="#DejaVuSans-36"/>
       <use x="159.033203" xlink:href="#DejaVuSans-30"/>
      </g>
     </g>
    </g>
    <g id="ytick_5">
     <g id="line2d_21">
      <path clip-path="url(#pc8f83cfedf)" d="M 72 72.341432 
L 518.4 72.341432 
" style="fill:none;stroke:#b0b0b0;stroke-linecap:square;stroke-width:0.8;"/>
     </g>
     <g id="line2d_22">
      <g>
       <use style="stroke:#000000;stroke-width:0.8;" x="72" xlink:href="#me51932bb4a" y="72.341432"/>
      </g>
     </g>
     <g id="text_12">
      <!-- 0.65 -->
      <g transform="translate(42.734375 76.140651)scale(0.1 -0.1)">
       <use xlink:href="#DejaVuSans-30"/>
       <use x="63.623047" xlink:href="#DejaVuSans-2e"/>
       <use x="95.410156" xlink:href="#DejaVuSans-36"/>
       <use x="159.033203" xlink:href="#DejaVuSans-35"/>
      </g>
     </g>
    </g>
    <g id="text_13">
     <!-- Binder ratio -->
     <g transform="translate(36.654687 211.211719)rotate(-90)scale(0.1 -0.1)">
      <defs>
       <path d="M 1259 2228 
L 1259 519 
L 2272 519 
Q 2781 519 3026 730 
Q 3272 941 3272 1375 
Q 3272 1813 3026 2020 
Q 2781 2228 2272 2228 
L 1259 2228 
z
M 1259 4147 
L 1259 2741 
L 2194 2741 
Q 2656 2741 2882 2914 
Q 3109 3088 3109 3444 
Q 3109 3797 2882 3972 
Q 2656 4147 2194 4147 
L 1259 4147 
z
M 628 4666 
L 2241 4666 
Q 2963 4666 3353 4366 
Q 3744 4066 3744 3513 
Q 3744 3084 3544 2831 
Q 3344 2578 2956 2516 
Q 3422 2416 3680 2098 
Q 3938 1781 3938 1306 
Q 3938 681 3513 340 
Q 3088 0 2303 0 
L 628 0 
L 628 4666 
z
" id="DejaVuSans-42" transform="scale(0.015625)"/>
       <path d="M 603 3500 
L 1178 3500 
L 1178 0 
L 603 0 
L 603 3500 
z
M 603 4863 
L 1178 4863 
L 1178 4134 
L 603 4134 
L 603 4863 
z
" id="DejaVuSans-69" transform="scale(0.015625)"/>
       <path d="M 3513 2113 
L 3513 0 
L 2938 0 
L 2938 2094 
Q 2938 2591 2744 2837 
Q 2550 3084 2163 3084 
Q 1697 3084 1428 2787 
Q 1159 2491 1159 1978 
L 1159 0 
L 581 0 
L 581 3500 
L 1159 3500 
L 1159 2956 
Q 1366 3272 1645 3428 
Q 1925 3584 2291 3584 
Q 2894 3584 3203 3211 
Q 3513 2838 3513 2113 
z
" id="DejaVuSans-6e" transform="scale(0.015625)"/>
       <path d="M 2906 2969 
L 2906 4863 
L 3481 4863 
L 3481 0 
L 2906 0 
L 2906 525 
Q 2725 213 2448 61 
Q 2172 -91 1784 -91 
Q 1150 -91 751 415 
Q 353 922 353 1747 
Q 353 2572 751 3078 
Q 1150 3584 1784 3584 
Q 2172 3584 2448 3432 
Q 2725 3281 2906 2969 
z
M 947 1747 
Q 947 1113 1208 752 
Q 1469 391 1925 391 
Q 2381 391 2643 752 
Q 2906 1113 2906 1747 
Q 2906 2381 2643 2742 
Q 2381 3103 1925 3103 
Q 1469 3103 1208 2742 
Q 947 2381 947 1747 
z
" id="DejaVuSans-64" transform="scale(0.015625)"/>
       <path d="M 3597 1894 
L 3597 1613 
L 953 1613 
Q 991 1019 1311 708 
Q 1631 397 2203 397 
Q 2534 397 2845 478 
Q 3156 559 3463 722 
L 3463 178 
Q 3153 47 2828 -22 
Q 2503 -91 2169 -91 
Q 1331 -91 842 396 
Q 353 884 353 1716 
Q 353 2575 817 3079 
Q 1281 3584 2069 3584 
Q 2775 3584 3186 3129 
Q 3597 2675 3597 1894 
z
M 3022 2063 
Q 3016 2534 2758 2815 
Q 2500 3097 2075 3097 
Q 1594 3097 1305 2825 
Q 1016 2553 972 2059 
L 3022 2063 
z
" id="DejaVuSans-65" transform="scale(0.015625)"/>
       <path d="M 2631 2963 
Q 2534 3019 2420 3045 
Q 2306 3072 2169 3072 
Q 1681 3072 1420 2755 
Q 1159 2438 1159 1844 
L 1159 0 
L 581 0 
L 581 3500 
L 1159 3500 
L 1159 2956 
Q 1341 3275 1631 3429 
Q 1922 3584 2338 3584 
Q 2397 3584 2469 3576 
Q 2541 3569 2628 3553 
L 2631 2963 
z
" id="DejaVuSans-72" transform="scale(0.015625)"/>
       <path id="DejaVuSans-20" transform="scale(0.015625)"/>
       <path d="M 2194 1759 
Q 1497 1759 1228 1600 
Q 959 1441 959 1056 
Q 959 750 1161 570 
Q 1363 391 1709 391 
Q 2188 391 2477 730 
Q 2766 1069 2766 1631 
L 2766 1759 
L 2194 1759 
z
M 3341 1997 
L 3341 0 
L 2766 0 
L 2766 531 
Q 2569 213 2275 61 
Q 1981 -91 1556 -91 
Q 1019 -91 701 211 
Q 384 513 384 1019 
Q 384 1609 779 1909 
Q 1175 2209 1959 2209 
L 2766 2209 
L 2766 2266 
Q 2766 2663 2505 2880 
Q 2244 3097 1772 3097 
Q 1472 3097 1187 3025 
Q 903 2953 641 2809 
L 641 3341 
Q 956 3463 1253 3523 
Q 1550 3584 1831 3584 
Q 2591 3584 2966 3190 
Q 3341 2797 3341 1997 
z
" id="DejaVuSans-61" transform="scale(0.015625)"/>
       <path d="M 1172 4494 
L 1172 3500 
L 2356 3500 
L 2356 3053 
L 1172 3053 
L 1172 1153 
Q 1172 725 1289 603 
Q 1406 481 1766 481 
L 2356 481 
L 2356 0 
L 1766 0 
Q 1100 0 847 248 
Q 594 497 594 1153 
L 594 3053 
L 172 3053 
L 172 3500 
L 594 3500 
L 594 4494 
L 1172 4494 
z
" id="DejaVuSans-74" transform="scale(0.015625)"/>
       <path d="M 1959 3097 
Q 1497 3097 1228 2736 
Q 959 2375 959 1747 
Q 959 1119 1226 758 
Q 1494 397 1959 397 
Q 2419 397 2687 759 
Q 2956 1122 2956 1747 
Q 2956 2369 2687 2733 
Q 2419 3097 1959 3097 
z
M 1959 3584 
Q 2709 3584 3137 3096 
Q 3566 2609 3566 1747 
Q 3566 888 3137 398 
Q 2709 -91 1959 -91 
Q 1206 -91 779 398 
Q 353 888 353 1747 
Q 353 2609 779 3096 
Q 1206 3584 1959 3584 
z
" id="DejaVuSans-6f" transform="scale(0.015625)"/>
      </defs>
      <use xlink:href="#DejaVuSans-42"/>
      <use x="68.603516" xlink:href="#DejaVuSans-69"/>
      <use x="96.386719" xlink:href="#DejaVuSans-6e"/>
      <use x="159.765625" xlink:href="#DejaVuSans-64"/>
      <use x="223.242188" xlink:href="#DejaVuSans-65"/>
      <use x="284.765625" xlink:href="#DejaVuSans-72"/>
      <use x="325.878906" xlink:href="#DejaVuSans-20"/>
      <use x="357.666016" xlink:href="#DejaVuSans-72"/>
      <use x="398.779297" xlink:href="#DejaVuSans-61"/>
      <use x="460.058594" xlink:href="#DejaVuSans-74"/>
      <use x="499.267578" xlink:href="#DejaVuSans-69"/>
      <use x="527.050781" xlink:href="#DejaVuSans-6f"/>
     </g>
    </g>
   </g>
   <g id="line2d_23">
    <path clip-path="url(#pc8f83cfedf)" d="M 92.290909 55.818641 
L 109.2 55.844515 
L 126.109091 55.890995 
L 143.018182 55.956308 
L 159.927273 56.032533 
L 176.836364 56.278897 
L 193.745455 56.675387 
L 210.654545 57.219353 
L 227.563636 59.127001 
L 244.472727 74.352253 
L 245.318182 77.201104 
L 246.163636 69.478283 
L 247.009091 74.850114 
L 247.854545 71.684569 
L 248.7 85.02343 
L 249.545455 85.875652 
L 250.390909 127.941521 
L 251.236364 90.319712 
L 252.081818 92.038284 
L 252.927273 95.684129 
L 253.772727 87.602597 
L 254.618182 135.503115 
L 255.463636 126.956317 
L 256.309091 143.824684 
L 257.154545 131.622652 
L 258 128.917165 
L 258.845455 129.100725 
L 259.690909 136.168696 
L 260.536364 149.660583 
L 261.381818 185.777656 
L 278.290909 297.005642 
L 295.2 263.287868 
L 312.109091 254.200523 
L 329.018182 263.223242 
L 345.927273 258.741627 
L 362.836364 289.944939 
L 379.745455 273.948926 
L 396.654545 291.02189 
L 413.563636 283.674365 
L 430.472727 283.204302 
L 447.381818 261.856067 
L 464.290909 288.796404 
L 481.2 278.16057 
L 498.109091 282.251441 
" style="fill:none;stroke:#1f77b4;stroke-dasharray:5.55,2.4;stroke-dashoffset:0;stroke-width:1.5;"/>
    <defs>
     <path d="M 0 1.5 
C 0.397805 1.5 0.77937 1.341951 1.06066 1.06066 
C 1.341951 0.77937 1.5 0.397805 1.5 0 
C 1.5 -0.397805 1.341951 -0.77937 1.06066 -1.06066 
C 0.77937 -1.341951 0.397805 -1.5 0 -1.5 
C -0.397805 -1.5 -0.77937 -1.341951 -1.06066 -1.06066 
C -1.341951 -0.77937 -1.5 -0.397805 -1.5 0 
C -1.5 0.397805 -1.341951 0.77937 -1.06066 1.06066 
C -0.77937 1.341951 -0.397805 1.5 0 1.5 
z
" id="mf6bdb36fa9" style="stroke:#1f77b4;"/>
    </defs>
    <g clip-path="url(#pc8f83cfedf)">
     <use style="fill:#1f77b4;stroke:#1f77b4;" x="92.290909" xlink:href="#mf6bdb36fa9" y="55.818641"/>
     <use style="fill:#1f77b4;stroke:#1f77b4;" x="109.2" xlink:href="#mf6bdb36fa9" y="55.844515"/>
     <use style="fill:#1f77b4;stroke:#1f77b4;" x="126.109091" xlink:href="#mf6bdb36fa9" y="55.890995"/>
     <use style="fill:#1f77b4;stroke:#1f77b4;" x="143.018182" xlink:href="#mf6bdb36fa9" y="55.956308"/>
     <use style="fill:#1f77b4;stroke:#1f77b4;" x="159.927273" xlink:href="#mf6bdb36fa9" y="56.032533"/>
     <use style="fill:#1f77b4;stroke:#1f77b4;" x="176.836364" xlink:href="#mf6bdb36fa9" y="56.278897"/>
     <use style="fill:#1f77b4;stroke:#1f77b4;" x="193.745455" xlink:href="#mf6bdb36fa9" y="56.675387"/>
     <use style="fill:#1f77b4;stroke:#1f77b4;" x="210.654545" xlink:href="#mf6bdb36fa9" y="57.219353"/>
     <use style="fill:#1f77b4;stroke:#1f77b4;" x="227.563636" xlink:href="#mf6bdb36fa9" y="59.127001"/>
     <use style="fill:#1f77b4;stroke:#1f77b4;" x="244.472727" xlink:href="#mf6bdb36fa9" y="74.352253"/>
     <use style="fill:#1f77b4;stroke:#1f77b4;" x="245.318182" xlink:href="#mf6bdb36fa9" y="77.201104"/>
     <use style="fill:#1f77b4;stroke:#1f77b4;" x="246.163636" xlink:href="#mf6bdb36fa9" y="69.478283"/>
     <use style="fill:#1f77b4;stroke:#1f77b4;" x="247.009091" xlink:href="#mf6bdb36fa9" y="74.850114"/>
     <use style="fill:#1f77b4;stroke:#1f77b4;" x="247.854545" xlink:href="#mf6bdb36fa9" y="71.684569"/>
     <use style="fill:#1f77b4;stroke:#1f77b4;" x="248.7" xlink:href="#mf6bdb36fa9" y="85.02343"/>
     <use style="fill:#1f77b4;stroke:#1f77b4;" x="249.545455" xlink:href="#mf6bdb36fa9" y="85.875652"/>
     <use style="fill:#1f77b4;stroke:#1f77b4;" x="250.390909" xlink:href="#mf6bdb36fa9" y="127.941521"/>
     <use style="fill:#1f77b4;stroke:#1f77b4;" x="251.236364" xlink:href="#mf6bdb36fa9" y="90.319712"/>
     <use style="fill:#1f77b4;stroke:#1f77b4;" x="252.081818" xlink:href="#mf6bdb36fa9" y="92.038284"/>
     <use style="fill:#1f77b4;stroke:#1f77b4;" x="252.927273" xlink:href="#mf6bdb36fa9" y="95.684129"/>
     <use style="fill:#1f77b4;stroke:#1f77b4;" x="253.772727" xlink:href="#mf6bdb36fa9" y="87.602597"/>
     <use style="fill:#1f77b4;stroke:#1f77b4;" x="254.618182" xlink:href="#mf6bdb36fa9" y="135.503115"/>
     <use style="fill:#1f77b4;stroke:#1f77b4;" x="255.463636" xlink:href="#mf6bdb36fa9" y="126.956317"/>
     <use style="fill:#1f77b4;stroke:#1f77b4;" x="256.309091" xlink:href="#mf6bdb36fa9" y="143.824684"/>
     <use style="fill:#1f77b4;stroke:#1f77b4;" x="257.154545" xlink:href="#mf6bdb36fa9" y="131.622652"/>
     <use style="fill:#1f77b4;stroke:#1f77b4;" x="258" xlink:href="#mf6bdb36fa9" y="128.917165"/>
     <use style="fill:#1f77b4;stroke:#1f77b4;" x="258.845455" xlink:href="#mf6bdb36fa9" y="129.100725"/>
     <use style="fill:#1f77b4;stroke:#1f77b4;" x="259.690909" xlink:href="#mf6bdb36fa9" y="136.168696"/>
     <use style="fill:#1f77b4;stroke:#1f77b4;" x="260.536364" xlink:href="#mf6bdb36fa9" y="149.660583"/>
     <use style="fill:#1f77b4;stroke:#1f77b4;" x="261.381818" xlink:href="#mf6bdb36fa9" y="185.777656"/>
     <use style="fill:#1f77b4;stroke:#1f77b4;" x="278.290909" xlink:href="#mf6bdb36fa9" y="297.005642"/>
     <use style="fill:#1f77b4;stroke:#1f77b4;" x="295.2" xlink:href="#mf6bdb36fa9" y="263.287868"/>
     <use style="fill:#1f77b4;stroke:#1f77b4;" x="312.109091" xlink:href="#mf6bdb36fa9" y="254.200523"/>
     <use style="fill:#1f77b4;stroke:#1f77b4;" x="329.018182" xlink:href="#mf6bdb36fa9" y="263.223242"/>
     <use style="fill:#1f77b4;stroke:#1f77b4;" x="345.927273" xlink:href="#mf6bdb36fa9" y="258.741627"/>
     <use style="fill:#1f77b4;stroke:#1f77b4;" x="362.836364" xlink:href="#mf6bdb36fa9" y="289.944939"/>
     <use style="fill:#1f77b4;stroke:#1f77b4;" x="379.745455" xlink:href="#mf6bdb36fa9" y="273.948926"/>
     <use style="fill:#1f77b4;stroke:#1f77b4;" x="396.654545" xlink:href="#mf6bdb36fa9" y="291.02189"/>
     <use style="fill:#1f77b4;stroke:#1f77b4;" x="413.563636" xlink:href="#mf6bdb36fa9" y="283.674365"/>
     <use style="fill:#1f77b4;stroke:#1f77b4;" x="430.472727" xlink:href="#mf6bdb36fa9" y="283.204302"/>
     <use style="fill:#1f77b4;stroke:#1f77b4;" x="447.381818" xlink:href="#mf6bdb36fa9" y="261.856067"/>
     <use style="fill:#1f77b4;stroke:#1f77b4;" x="464.290909" xlink:href="#mf6bdb36fa9" y="288.796404"/>
     <use style="fill:#1f77b4;stroke:#1f77b4;" x="481.2" xlink:href="#mf6bdb36fa9" y="278.16057"/>
     <use style="fill:#1f77b4;stroke:#1f77b4;" x="498.109091" xlink:href="#mf6bdb36fa9" y="282.251441"/>
    </g>
   </g>
   <g id="line2d_24">
    <path clip-path="url(#pc8f83cfedf)" d="M 92.290909 55.8 
L 109.2 56.495114 
L 126.109091 55.825543 
L 143.018182 55.877768 
L 159.927273 55.926365 
L 176.836364 56.040223 
L 193.745455 56.096886 
L 210.654545 56.542239 
L 227.563636 57.975587 
L 244.472727 69.283995 
L 245.318182 70.044053 
L 246.163636 70.801754 
L 247.009091 86.863352 
L 247.854545 73.919793 
L 248.7 83.883212 
L 249.545455 83.675385 
L 250.390909 77.79855 
L 251.236364 74.228755 
L 252.081818 179.887846 
L 252.927273 100.890974 
L 253.772727 170.293137 
L 254.618182 90.616407 
L 255.463636 131.181284 
L 256.309091 169.745248 
L 257.154545 92.926604 
L 258 205.442664 
L 258.845455 156.553506 
L 259.690909 147.607945 
L 260.536364 161.864021 
L 261.381818 210.912201 
L 278.290909 238.479553 
L 295.2 286.38922 
L 312.109091 257.596235 
L 329.018182 252.514782 
L 345.927273 251.775503 
L 362.836364 264.312228 
L 379.745455 305.146117 
L 396.654545 259.24969 
L 413.563636 276.043741 
L 430.472727 306.082517 
L 447.381818 251.950233 
L 464.290909 258.87843 
L 481.2 298.889422 
L 498.109091 266.431695 
" style="fill:none;stroke:#ff7f0e;stroke-dasharray:5.55,2.4;stroke-dashoffset:0;stroke-width:1.5;"/>
    <defs>
     <path d="M 0 1.5 
C 0.397805 1.5 0.77937 1.341951 1.06066 1.06066 
C 1.341951 0.77937 1.5 0.397805 1.5 0 
C 1.5 -0.397805 1.341951 -0.77937 1.06066 -1.06066 
C 0.77937 -1.341951 0.397805 -1.5 0 -1.5 
C -0.397805 -1.5 -0.77937 -1.341951 -1.06066 -1.06066 
C -1.341951 -0.77937 -1.5 -0.397805 -1.5 0 
C -1.5 0.397805 -1.341951 0.77937 -1.06066 1.06066 
C -0.77937 1.341951 -0.397805 1.5 0 1.5 
z
" id="md350e152b0" style="stroke:#ff7f0e;"/>
    </defs>
    <g clip-path="url(#pc8f83cfedf)">
     <use style="fill:#ff7f0e;stroke:#ff7f0e;" x="92.290909" xlink:href="#md350e152b0" y="55.8"/>
     <use style="fill:#ff7f0e;stroke:#ff7f0e;" x="109.2" xlink:href="#md350e152b0" y="56.495114"/>
     <use style="fill:#ff7f0e;stroke:#ff7f0e;" x="126.109091" xlink:href="#md350e152b0" y="55.825543"/>
     <use style="fill:#ff7f0e;stroke:#ff7f0e;" x="143.018182" xlink:href="#md350e152b0" y="55.877768"/>
     <use style="fill:#ff7f0e;stroke:#ff7f0e;" x="159.927273" xlink:href="#md350e152b0" y="55.926365"/>
     <use style="fill:#ff7f0e;stroke:#ff7f0e;" x="176.836364" xlink:href="#md350e152b0" y="56.040223"/>
     <use style="fill:#ff7f0e;stroke:#ff7f0e;" x="193.745455" xlink:href="#md350e152b0" y="56.096886"/>
     <use style="fill:#ff7f0e;stroke:#ff7f0e;" x="210.654545" xlink:href="#md350e152b0" y="56.542239"/>
     <use style="fill:#ff7f0e;stroke:#ff7f0e;" x="227.563636" xlink:href="#md350e152b0" y="57.975587"/>
     <use style="fill:#ff7f0e;stroke:#ff7f0e;" x="244.472727" xlink:href="#md350e152b0" y="69.283995"/>
     <use style="fill:#ff7f0e;stroke:#ff7f0e;" x="245.318182" xlink:href="#md350e152b0" y="70.044053"/>
     <use style="fill:#ff7f0e;stroke:#ff7f0e;" x="246.163636" xlink:href="#md350e152b0" y="70.801754"/>
     <use style="fill:#ff7f0e;stroke:#ff7f0e;" x="247.009091" xlink:href="#md350e152b0" y="86.863352"/>
     <use style="fill:#ff7f0e;stroke:#ff7f0e;" x="247.854545" xlink:href="#md350e152b0" y="73.919793"/>
     <use style="fill:#ff7f0e;stroke:#ff7f0e;" x="248.7" xlink:href="#md350e152b0" y="83.883212"/>
     <use style="fill:#ff7f0e;stroke:#ff7f0e;" x="249.545455" xlink:href="#md350e152b0" y="83.675385"/>
     <use style="fill:#ff7f0e;stroke:#ff7f0e;" x="250.390909" xlink:href="#md350e152b0" y="77.79855"/>
     <use style="fill:#ff7f0e;stroke:#ff7f0e;" x="251.236364" xlink:href="#md350e152b0" y="74.228755"/>
     <use style="fill:#ff7f0e;stroke:#ff7f0e;" x="252.081818" xlink:href="#md350e152b0" y="179.887846"/>
     <use style="fill:#ff7f0e;stroke:#ff7f0e;" x="252.927273" xlink:href="#md350e152b0" y="100.890974"/>
     <use style="fill:#ff7f0e;stroke:#ff7f0e;" x="253.772727" xlink:href="#md350e152b0" y="170.293137"/>
     <use style="fill:#ff7f0e;stroke:#ff7f0e;" x="254.618182" xlink:href="#md350e152b0" y="90.616407"/>
     <use style="fill:#ff7f0e;stroke:#ff7f0e;" x="255.463636" xlink:href="#md350e152b0" y="131.181284"/>
     <use style="fill:#ff7f0e;stroke:#ff7f0e;" x="256.309091" xlink:href="#md350e152b0" y="169.745248"/>
     <use style="fill:#ff7f0e;stroke:#ff7f0e;" x="257.154545" xlink:href="#md350e152b0" y="92.926604"/>
     <use style="fill:#ff7f0e;stroke:#ff7f0e;" x="258" xlink:href="#md350e152b0" y="205.442664"/>
     <use style="fill:#ff7f0e;stroke:#ff7f0e;" x="258.845455" xlink:href="#md350e152b0" y="156.553506"/>
     <use style="fill:#ff7f0e;stroke:#ff7f0e;" x="259.690909" xlink:href="#md350e152b0" y="147.607945"/>
     <use style="fill:#ff7f0e;stroke:#ff7f0e;" x="260.536364" xlink:href="#md350e152b0" y="161.864021"/>
     <use style="fill:#ff7f0e;stroke:#ff7f0e;" x="261.381818" xlink:href="#md350e152b0" y="210.912201"/>
     <use style="fill:#ff7f0e;stroke:#ff7f0e;" x="278.290909" xlink:href="#md350e152b0" y="238.479553"/>
     <use style="fill:#ff7f0e;stroke:#ff7f0e;" x="295.2" xlink:href="#md350e152b0" y="286.38922"/>
     <use style="fill:#ff7f0e;stroke:#ff7f0e;" x="312.109091" xlink:href="#md350e152b0" y="257.596235"/>
     <use style="fill:#ff7f0e;stroke:#ff7f0e;" x="329.018182" xlink:href="#md350e152b0" y="252.514782"/>
     <use style="fill:#ff7f0e;stroke:#ff7f0e;" x="345.927273" xlink:href="#md350e152b0" y="251.775503"/>
     <use style="fill:#ff7f0e;stroke:#ff7f0e;" x="362.836364" xlink:href="#md350e152b0" y="264.312228"/>
     <use style="fill:#ff7f0e;stroke:#ff7f0e;" x="379.745455" xlink:href="#md350e152b0" y="305.146117"/>
     <use style="fill:#ff7f0e;stroke:#ff7f0e;" x="396.654545" xlink:href="#md350e152b0" y="259.24969"/>
     <use style="fill:#ff7f0e;stroke:#ff7f0e;" x="413.563636" xlink:href="#md350e152b0" y="276.043741"/>
     <use style="fill:#ff7f0e;stroke:#ff7f0e;" x="430.472727" xlink:href="#md350e152b0" y="306.082517"/>
     <use style="fill:#ff7f0e;stroke:#ff7f0e;" x="447.381818" xlink:href="#md350e152b0" y="251.950233"/>
     <use style="fill:#ff7f0e;stroke:#ff7f0e;" x="464.290909" xlink:href="#md350e152b0" y="258.87843"/>
     <use style="fill:#ff7f0e;stroke:#ff7f0e;" x="481.2" xlink:href="#md350e152b0" y="298.889422"/>
     <use style="fill:#ff7f0e;stroke:#ff7f0e;" x="498.109091" xlink:href="#md350e152b0" y="266.431695"/>
    </g>
   </g>
   <g id="line2d_25">
    <path clip-path="url(#pc8f83cfedf)" d="M 92.290909 76.97197 
L 109.2 76.129822 
L 126.109091 117.876117 
L 143.018182 55.877004 
L 159.927273 56.440829 
L 176.836364 56.012563 
L 193.745455 56.035633 
L 210.654545 56.125427 
L 227.563636 56.662039 
L 244.472727 60.648874 
L 245.318182 67.077401 
L 246.163636 65.892835 
L 247.009091 62.586986 
L 247.854545 59.873867 
L 248.7 65.294495 
L 249.545455 91.74746 
L 250.390909 68.341609 
L 251.236364 79.860919 
L 252.081818 83.054738 
L 252.927273 73.665364 
L 253.772727 97.582561 
L 254.618182 82.929918 
L 255.463636 72.338672 
L 256.309091 123.444272 
L 257.154545 110.453865 
L 258 138.325625 
L 258.845455 208.584032 
L 259.690909 141.146911 
L 260.536364 99.741731 
L 261.381818 122.428446 
L 278.290909 171.955371 
L 295.2 270.878215 
L 312.109091 254.154173 
L 329.018182 268.265964 
L 345.927273 222.862904 
L 362.836364 283.066623 
L 379.745455 233.637197 
L 396.654545 239.396581 
L 413.563636 307.8 
L 430.472727 299.620474 
L 447.381818 290.428508 
L 464.290909 284.633956 
L 481.2 274.206193 
L 498.109091 289.443599 
" style="fill:none;stroke:#2ca02c;stroke-dasharray:5.55,2.4;stroke-dashoffset:0;stroke-width:1.5;"/>
    <defs>
     <path d="M 0 1.5 
C 0.397805 1.5 0.77937 1.341951 1.06066 1.06066 
C 1.341951 0.77937 1.5 0.397805 1.5 0 
C 1.5 -0.397805 1.341951 -0.77937 1.06066 -1.06066 
C 0.77937 -1.341951 0.397805 -1.5 0 -1.5 
C -0.397805 -1.5 -0.77937 -1.341951 -1.06066 -1.06066 
C -1.341951 -0.77937 -1.5 -0.397805 -1.5 0 
C -1.5 0.397805 -1.341951 0.77937 -1.06066 1.06066 
C -0.77937 1.341951 -0.397805 1.5 0 1.5 
z
" id="m4687976c6b" style="stroke:#2ca02c;"/>
    </defs>
    <g clip-path="url(#pc8f83cfedf)">
     <use style="fill:#2ca02c;stroke:#2ca02c;" x="92.290909" xlink:href="#m4687976c6b" y="76.97197"/>
     <use style="fill:#2ca02c;stroke:#2ca02c;" x="109.2" xlink:href="#m4687976c6b" y="76.129822"/>
     <use style="fill:#2ca02c;stroke:#2ca02c;" x="126.109091" xlink:href="#m4687976c6b" y="117.876117"/>
     <use style="fill:#2ca02c;stroke:#2ca02c;" x="143.018182" xlink:href="#m4687976c6b" y="55.877004"/>
     <use style="fill:#2ca02c;stroke:#2ca02c;" x="159.927273" xlink:href="#m4687976c6b" y="56.440829"/>
     <use style="fill:#2ca02c;stroke:#2ca02c;" x="176.836364" xlink:href="#m4687976c6b" y="56.012563"/>
     <use style="fill:#2ca02c;stroke:#2ca02c;" x="193.745455" xlink:href="#m4687976c6b" y="56.035633"/>
     <use style="fill:#2ca02c;stroke:#2ca02c;" x="210.654545" xlink:href="#m4687976c6b" y="56.125427"/>
     <use style="fill:#2ca02c;stroke:#2ca02c;" x="227.563636" xlink:href="#m4687976c6b" y="56.662039"/>
     <use style="fill:#2ca02c;stroke:#2ca02c;" x="244.472727" xlink:href="#m4687976c6b" y="60.648874"/>
     <use style="fill:#2ca02c;stroke:#2ca02c;" x="245.318182" xlink:href="#m4687976c6b" y="67.077401"/>
     <use style="fill:#2ca02c;stroke:#2ca02c;" x="246.163636" xlink:href="#m4687976c6b" y="65.892835"/>
     <use style="fill:#2ca02c;stroke:#2ca02c;" x="247.009091" xlink:href="#m4687976c6b" y="62.586986"/>
     <use style="fill:#2ca02c;stroke:#2ca02c;" x="247.854545" xlink:href="#m4687976c6b" y="59.873867"/>
     <use style="fill:#2ca02c;stroke:#2ca02c;" x="248.7" xlink:href="#m4687976c6b" y="65.294495"/>
     <use style="fill:#2ca02c;stroke:#2ca02c;" x="249.545455" xlink:href="#m4687976c6b" y="91.74746"/>
     <use style="fill:#2ca02c;stroke:#2ca02c;" x="250.390909" xlink:href="#m4687976c6b" y="68.341609"/>
     <use style="fill:#2ca02c;stroke:#2ca02c;" x="251.236364" xlink:href="#m4687976c6b" y="79.860919"/>
     <use style="fill:#2ca02c;stroke:#2ca02c;" x="252.081818" xlink:href="#m4687976c6b" y="83.054738"/>
     <use style="fill:#2ca02c;stroke:#2ca02c;" x="252.927273" xlink:href="#m4687976c6b" y="73.665364"/>
     <use style="fill:#2ca02c;stroke:#2ca02c;" x="253.772727" xlink:href="#m4687976c6b" y="97.582561"/>
     <use style="fill:#2ca02c;stroke:#2ca02c;" x="254.618182" xlink:href="#m4687976c6b" y="82.929918"/>
     <use style="fill:#2ca02c;stroke:#2ca02c;" x="255.463636" xlink:href="#m4687976c6b" y="72.338672"/>
     <use style="fill:#2ca02c;stroke:#2ca02c;" x="256.309091" xlink:href="#m4687976c6b" y="123.444272"/>
     <use style="fill:#2ca02c;stroke:#2ca02c;" x="257.154545" xlink:href="#m4687976c6b" y="110.453865"/>
     <use style="fill:#2ca02c;stroke:#2ca02c;" x="258" xlink:href="#m4687976c6b" y="138.325625"/>
     <use style="fill:#2ca02c;stroke:#2ca02c;" x="258.845455" xlink:href="#m4687976c6b" y="208.584032"/>
     <use style="fill:#2ca02c;stroke:#2ca02c;" x="259.690909" xlink:href="#m4687976c6b" y="141.146911"/>
     <use style="fill:#2ca02c;stroke:#2ca02c;" x="260.536364" xlink:href="#m4687976c6b" y="99.741731"/>
     <use style="fill:#2ca02c;stroke:#2ca02c;" x="261.381818" xlink:href="#m4687976c6b" y="122.428446"/>
     <use style="fill:#2ca02c;stroke:#2ca02c;" x="278.290909" xlink:href="#m4687976c6b" y="171.955371"/>
     <use style="fill:#2ca02c;stroke:#2ca02c;" x="295.2" xlink:href="#m4687976c6b" y="270.878215"/>
     <use style="fill:#2ca02c;stroke:#2ca02c;" x="312.109091" xlink:href="#m4687976c6b" y="254.154173"/>
     <use style="fill:#2ca02c;stroke:#2ca02c;" x="329.018182" xlink:href="#m4687976c6b" y="268.265964"/>
     <use style="fill:#2ca02c;stroke:#2ca02c;" x="345.927273" xlink:href="#m4687976c6b" y="222.862904"/>
     <use style="fill:#2ca02c;stroke:#2ca02c;" x="362.836364" xlink:href="#m4687976c6b" y="283.066623"/>
     <use style="fill:#2ca02c;stroke:#2ca02c;" x="379.745455" xlink:href="#m4687976c6b" y="233.637197"/>
     <use style="fill:#2ca02c;stroke:#2ca02c;" x="396.654545" xlink:href="#m4687976c6b" y="239.396581"/>
     <use style="fill:#2ca02c;stroke:#2ca02c;" x="413.563636" xlink:href="#m4687976c6b" y="307.8"/>
     <use style="fill:#2ca02c;stroke:#2ca02c;" x="430.472727" xlink:href="#m4687976c6b" y="299.620474"/>
     <use style="fill:#2ca02c;stroke:#2ca02c;" x="447.381818" xlink:href="#m4687976c6b" y="290.428508"/>
     <use style="fill:#2ca02c;stroke:#2ca02c;" x="464.290909" xlink:href="#m4687976c6b" y="284.633956"/>
     <use style="fill:#2ca02c;stroke:#2ca02c;" x="481.2" xlink:href="#m4687976c6b" y="274.206193"/>
     <use style="fill:#2ca02c;stroke:#2ca02c;" x="498.109091" xlink:href="#m4687976c6b" y="289.443599"/>
    </g>
   </g>
   <g id="patch_3">
    <path d="M 72 320.4 
L 72 43.2 
" style="fill:none;stroke:#000000;stroke-linecap:square;stroke-linejoin:miter;stroke-width:0.8;"/>
   </g>
   <g id="patch_4">
    <path d="M 518.4 320.4 
L 518.4 43.2 
" style="fill:none;stroke:#000000;stroke-linecap:square;stroke-linejoin:miter;stroke-width:0.8;"/>
   </g>
   <g id="patch_5">
    <path d="M 72 320.4 
L 518.4 320.4 
" style="fill:none;stroke:#000000;stroke-linecap:square;stroke-linejoin:miter;stroke-width:0.8;"/>
   </g>
   <g id="patch_6">
    <path d="M 72 43.2 
L 518.4 43.2 
" style="fill:none;stroke:#000000;stroke-linecap:square;stroke-linejoin:miter;stroke-width:0.8;"/>
   </g>
   <g id="text_14">
    <!-- Binder ratio -->
    <g transform="translate(259.905937 37.2)scale(0.12 -0.12)">
     <use xlink:href="#DejaVuSans-42"/>
     <use x="68.603516" xlink:href="#DejaVuSans-69"/>
     <use x="96.386719" xlink:href="#DejaVuSans-6e"/>
     <use x="159.765625" xlink:href="#DejaVuSans-64"/>
     <use x="223.242188" xlink:href="#DejaVuSans-65"/>
     <use x="284.765625" xlink:href="#DejaVuSans-72"/>
     <use x="325.878906" xlink:href="#DejaVuSans-20"/>
     <use x="357.666016" xlink:href="#DejaVuSans-72"/>
     <use x="398.779297" xlink:href="#DejaVuSans-61"/>
     <use x="460.058594" xlink:href="#DejaVuSans-74"/>
     <use x="499.267578" xlink:href="#DejaVuSans-69"/>
     <use x="527.050781" xlink:href="#DejaVuSans-6f"/>
    </g>
   </g>
   <g id="legend_1">
    <g id="patch_7">
     <path d="M 436.826562 95.234375 
L 511.4 95.234375 
Q 513.4 95.234375 513.4 93.234375 
L 513.4 50.2 
Q 513.4 48.2 511.4 48.2 
L 436.826562 48.2 
Q 434.826562 48.2 434.826562 50.2 
L 434.826562 93.234375 
Q 434.826562 95.234375 436.826562 95.234375 
z
" style="fill:#ffffff;opacity:0.8;stroke:#cccccc;stroke-linejoin:miter;"/>
    </g>
    <g id="line2d_26">
     <path d="M 438.826562 56.298437 
L 458.826562 56.298437 
" style="fill:none;stroke:#1f77b4;stroke-dasharray:5.55,2.4;stroke-dashoffset:0;stroke-width:1.5;"/>
    </g>
    <g id="line2d_27">
     <g>
      <use style="fill:#1f77b4;stroke:#1f77b4;" x="448.826562" xlink:href="#mf6bdb36fa9" y="56.298437"/>
     </g>
    </g>
    <g id="text_15">
     <!-- L = 12.0 -->
     <g transform="translate(466.826562 59.798437)scale(0.1 -0.1)">
      <defs>
       <path d="M 628 4666 
L 1259 4666 
L 1259 531 
L 3531 531 
L 3531 0 
L 628 0 
L 628 4666 
z
" id="DejaVuSans-4c" transform="scale(0.015625)"/>
       <path d="M 678 2906 
L 4684 2906 
L 4684 2381 
L 678 2381 
L 678 2906 
z
M 678 1631 
L 4684 1631 
L 4684 1100 
L 678 1100 
L 678 1631 
z
" id="DejaVuSans-3d" transform="scale(0.015625)"/>
      </defs>
      <use xlink:href="#DejaVuSans-4c"/>
      <use x="55.712891" xlink:href="#DejaVuSans-20"/>
      <use x="87.5" xlink:href="#DejaVuSans-3d"/>
      <use x="171.289062" xlink:href="#DejaVuSans-20"/>
      <use x="203.076172" xlink:href="#DejaVuSans-31"/>
      <use x="266.699219" xlink:href="#DejaVuSans-32"/>
      <use x="330.322266" xlink:href="#DejaVuSans-2e"/>
      <use x="362.109375" xlink:href="#DejaVuSans-30"/>
     </g>
    </g>
    <g id="line2d_28">
     <path d="M 438.826562 70.976562 
L 458.826562 70.976562 
" style="fill:none;stroke:#ff7f0e;stroke-dasharray:5.55,2.4;stroke-dashoffset:0;stroke-width:1.5;"/>
    </g>
    <g id="line2d_29">
     <g>
      <use style="fill:#ff7f0e;stroke:#ff7f0e;" x="448.826562" xlink:href="#md350e152b0" y="70.976562"/>
     </g>
    </g>
    <g id="text_16">
     <!-- L = 16.0 -->
     <g transform="translate(466.826562 74.476562)scale(0.1 -0.1)">
      <use xlink:href="#DejaVuSans-4c"/>
      <use x="55.712891" xlink:href="#DejaVuSans-20"/>
      <use x="87.5" xlink:href="#DejaVuSans-3d"/>
      <use x="171.289062" xlink:href="#DejaVuSans-20"/>
      <use x="203.076172" xlink:href="#DejaVuSans-31"/>
      <use x="266.699219" xlink:href="#DejaVuSans-36"/>
      <use x="330.322266" xlink:href="#DejaVuSans-2e"/>
      <use x="362.109375" xlink:href="#DejaVuSans-30"/>
     </g>
    </g>
    <g id="line2d_30">
     <path d="M 438.826562 85.654687 
L 458.826562 85.654687 
" style="fill:none;stroke:#2ca02c;stroke-dasharray:5.55,2.4;stroke-dashoffset:0;stroke-width:1.5;"/>
    </g>
    <g id="line2d_31">
     <g>
      <use style="fill:#2ca02c;stroke:#2ca02c;" x="448.826562" xlink:href="#m4687976c6b" y="85.654687"/>
     </g>
    </g>
    <g id="text_17">
     <!-- L = 20.0 -->
     <g transform="translate(466.826562 89.154687)scale(0.1 -0.1)">
      <use xlink:href="#DejaVuSans-4c"/>
      <use x="55.712891" xlink:href="#DejaVuSans-20"/>
      <use x="87.5" xlink:href="#DejaVuSans-3d"/>
      <use x="171.289062" xlink:href="#DejaVuSans-20"/>
      <use x="203.076172" xlink:href="#DejaVuSans-32"/>
      <use x="266.699219" xlink:href="#DejaVuSans-30"/>
      <use x="330.322266" xlink:href="#DejaVuSans-2e"/>
      <use x="362.109375" xlink:href="#DejaVuSans-30"/>
     </g>
    </g>
   </g>
  </g>
 </g>
 <defs>
  <clipPath id="pc8f83cfedf">
   <rect height="277.2" width="446.4" x="72" y="43.2"/>
  </clipPath>
 </defs>
</svg>
