<?xml version="1.0" encoding="utf-8" standalone="no"?>
<!DOCTYPE svg PUBLIC "-//W3C//DTD SVG 1.1//EN"
  "http://www.w3.org/Graphics/SVG/1.1/DTD/svg11.dtd">
<svg height="360pt" version="1.1" viewBox="0 0 576 360" width="576pt" xmlns="http://www.w3.org/2000/svg" xmlns:xlink="http://www.w3.org/1999/xlink">
 <metadata>
  <rdf:RDF xmlns:cc="http://creativecommons.org/ns#" xmlns:dc="http://purl.org/dc/elements/1.1/" xmlns:rdf="http://www.w3.org/1999/02/22-rdf-syntax-ns#">
   <cc:Work>
    <dc:type rdf:resource="http://purl.org/dc/dcmitype/StillImage"/>
    <dc:date>2022-04-24T20:52:00.708491</dc:date>
    <dc:format>image/svg+xml</dc:format>
    <dc:creator>
     <cc:Agent>
      <dc:title>Matplotlib v3.4.3, https://matplotlib.org/</dc:title>
     </cc:Agent>
    </dc:creator>
   </cc:Work>
  </rdf:RDF>
 </metadata>
 <defs>
  <style type="text/css">*{stroke-linecap:butt;stroke-linejoin:round;}</style>
 </defs>
 <g id="figure_1">
  <g id="patch_1">
   <path d="M 0 360 
L 576 360 
L 576 0 
L 0 0 
z
" style="fill:#ffffff;"/>
  </g>
  <g id="axes_1">
   <g id="patch_2">
    <path d="M 72 320.4 
L 518.4 320.4 
L 518.4 43.2 
L 72 43.2 
z
" style="fill:#ffffff;"/>
   </g>
   <g id="matplotlib.axis_1">
    <g id="xtick_1">
     <g id="line2d_1">
      <path clip-path="url(#pcec94d2d66)" d="M 79.739831 320.4 
L 79.739831 43.2 
" style="fill:none;stroke:#b0b0b0;stroke-linecap:square;stroke-width:0.8;"/>
     </g>
     <g id="line2d_2">
      <defs>
       <path d="M 0 0 
L 0 3.5 
" id="m33d5313b18" style="stroke:#000000;stroke-width:0.8;"/>
      </defs>
      <g>
       <use style="stroke:#000000;stroke-width:0.8;" x="79.739831" xlink:href="#m33d5313b18" y="320.4"/>
      </g>
     </g>
     <g id="text_1">
      <!-- 1.4 -->
      <g transform="translate(71.788269 334.998438)scale(0.1 -0.1)">
       <defs>
        <path d="M 794 531 
L 1825 531 
L 1825 4091 
L 703 3866 
L 703 4441 
L 1819 4666 
L 2450 4666 
L 2450 531 
L 3481 531 
L 3481 0 
L 794 0 
L 794 531 
z
" id="DejaVuSans-31" transform="scale(0.015625)"/>
        <path d="M 684 794 
L 1344 794 
L 1344 0 
L 684 0 
L 684 794 
z
" id="DejaVuSans-2e" transform="scale(0.015625)"/>
        <path d="M 2419 4116 
L 825 1625 
L 2419 1625 
L 2419 4116 
z
M 2253 4666 
L 3047 4666 
L 3047 1625 
L 3713 1625 
L 3713 1100 
L 3047 1100 
L 3047 0 
L 2419 0 
L 2419 1100 
L 313 1100 
L 313 1709 
L 2253 4666 
z
" id="DejaVuSans-34" transform="scale(0.015625)"/>
       </defs>
       <use xlink:href="#DejaVuSans-31"/>
       <use x="63.623047" xlink:href="#DejaVuSans-2e"/>
       <use x="95.410156" xlink:href="#DejaVuSans-34"/>
      </g>
     </g>
    </g>
    <g id="xtick_2">
     <g id="line2d_3">
      <path clip-path="url(#pcec94d2d66)" d="M 135.522399 320.4 
L 135.522399 43.2 
" style="fill:none;stroke:#b0b0b0;stroke-linecap:square;stroke-width:0.8;"/>
     </g>
     <g id="line2d_4">
      <g>
       <use style="stroke:#000000;stroke-width:0.8;" x="135.522399" xlink:href="#m33d5313b18" y="320.4"/>
      </g>
     </g>
     <g id="text_2">
      <!-- 1.6 -->
      <g transform="translate(127.570837 334.998438)scale(0.1 -0.1)">
       <defs>
        <path d="M 2113 2584 
Q 1688 2584 1439 2293 
Q 1191 2003 1191 1497 
Q 1191 994 1439 701 
Q 1688 409 2113 409 
Q 2538 409 2786 701 
Q 3034 994 3034 1497 
Q 3034 2003 2786 2293 
Q 2538 2584 2113 2584 
z
M 3366 4563 
L 3366 3988 
Q 3128 4100 2886 4159 
Q 2644 4219 2406 4219 
Q 1781 4219 1451 3797 
Q 1122 3375 1075 2522 
Q 1259 2794 1537 2939 
Q 1816 3084 2150 3084 
Q 2853 3084 3261 2657 
Q 3669 2231 3669 1497 
Q 3669 778 3244 343 
Q 2819 -91 2113 -91 
Q 1303 -91 875 529 
Q 447 1150 447 2328 
Q 447 3434 972 4092 
Q 1497 4750 2381 4750 
Q 2619 4750 2861 4703 
Q 3103 4656 3366 4563 
z
" id="DejaVuSans-36" transform="scale(0.015625)"/>
       </defs>
       <use xlink:href="#DejaVuSans-31"/>
       <use x="63.623047" xlink:href="#DejaVuSans-2e"/>
       <use x="95.410156" xlink:href="#DejaVuSans-36"/>
      </g>
     </g>
    </g>
    <g id="xtick_3">
     <g id="line2d_5">
      <path clip-path="url(#pcec94d2d66)" d="M 191.304967 320.4 
L 191.304967 43.2 
" style="fill:none;stroke:#b0b0b0;stroke-linecap:square;stroke-width:0.8;"/>
     </g>
     <g id="line2d_6">
      <g>
       <use style="stroke:#000000;stroke-width:0.8;" x="191.304967" xlink:href="#m33d5313b18" y="320.4"/>
      </g>
     </g>
     <g id="text_3">
      <!-- 1.8 -->
      <g transform="translate(183.353405 334.998438)scale(0.1 -0.1)">
       <defs>
        <path d="M 2034 2216 
Q 1584 2216 1326 1975 
Q 1069 1734 1069 1313 
Q 1069 891 1326 650 
Q 1584 409 2034 409 
Q 2484 409 2743 651 
Q 3003 894 3003 1313 
Q 3003 1734 2745 1975 
Q 2488 2216 2034 2216 
z
M 1403 2484 
Q 997 2584 770 2862 
Q 544 3141 544 3541 
Q 544 4100 942 4425 
Q 1341 4750 2034 4750 
Q 2731 4750 3128 4425 
Q 3525 4100 3525 3541 
Q 3525 3141 3298 2862 
Q 3072 2584 2669 2484 
Q 3125 2378 3379 2068 
Q 3634 1759 3634 1313 
Q 3634 634 3220 271 
Q 2806 -91 2034 -91 
Q 1263 -91 848 271 
Q 434 634 434 1313 
Q 434 1759 690 2068 
Q 947 2378 1403 2484 
z
M 1172 3481 
Q 1172 3119 1398 2916 
Q 1625 2713 2034 2713 
Q 2441 2713 2670 2916 
Q 2900 3119 2900 3481 
Q 2900 3844 2670 4047 
Q 2441 4250 2034 4250 
Q 1625 4250 1398 4047 
Q 1172 3844 1172 3481 
z
" id="DejaVuSans-38" transform="scale(0.015625)"/>
       </defs>
       <use xlink:href="#DejaVuSans-31"/>
       <use x="63.623047" xlink:href="#DejaVuSans-2e"/>
       <use x="95.410156" xlink:href="#DejaVuSans-38"/>
      </g>
     </g>
    </g>
    <g id="xtick_4">
     <g id="line2d_7">
      <path clip-path="url(#pcec94d2d66)" d="M 247.087535 320.4 
L 247.087535 43.2 
" style="fill:none;stroke:#b0b0b0;stroke-linecap:square;stroke-width:0.8;"/>
     </g>
     <g id="line2d_8">
      <g>
       <use style="stroke:#000000;stroke-width:0.8;" x="247.087535" xlink:href="#m33d5313b18" y="320.4"/>
      </g>
     </g>
     <g id="text_4">
      <!-- 2.0 -->
      <g transform="translate(239.135973 334.998438)scale(0.1 -0.1)">
       <defs>
        <path d="M 1228 531 
L 3431 531 
L 3431 0 
L 469 0 
L 469 531 
Q 828 903 1448 1529 
Q 2069 2156 2228 2338 
Q 2531 2678 2651 2914 
Q 2772 3150 2772 3378 
Q 2772 3750 2511 3984 
Q 2250 4219 1831 4219 
Q 1534 4219 1204 4116 
Q 875 4013 500 3803 
L 500 4441 
Q 881 4594 1212 4672 
Q 1544 4750 1819 4750 
Q 2544 4750 2975 4387 
Q 3406 4025 3406 3419 
Q 3406 3131 3298 2873 
Q 3191 2616 2906 2266 
Q 2828 2175 2409 1742 
Q 1991 1309 1228 531 
z
" id="DejaVuSans-32" transform="scale(0.015625)"/>
        <path d="M 2034 4250 
Q 1547 4250 1301 3770 
Q 1056 3291 1056 2328 
Q 1056 1369 1301 889 
Q 1547 409 2034 409 
Q 2525 409 2770 889 
Q 3016 1369 3016 2328 
Q 3016 3291 2770 3770 
Q 2525 4250 2034 4250 
z
M 2034 4750 
Q 2819 4750 3233 4129 
Q 3647 3509 3647 2328 
Q 3647 1150 3233 529 
Q 2819 -91 2034 -91 
Q 1250 -91 836 529 
Q 422 1150 422 2328 
Q 422 3509 836 4129 
Q 1250 4750 2034 4750 
z
" id="DejaVuSans-30" transform="scale(0.015625)"/>
       </defs>
       <use xlink:href="#DejaVuSans-32"/>
       <use x="63.623047" xlink:href="#DejaVuSans-2e"/>
       <use x="95.410156" xlink:href="#DejaVuSans-30"/>
      </g>
     </g>
    </g>
    <g id="xtick_5">
     <g id="line2d_9">
      <path clip-path="url(#pcec94d2d66)" d="M 302.870103 320.4 
L 302.870103 43.2 
" style="fill:none;stroke:#b0b0b0;stroke-linecap:square;stroke-width:0.8;"/>
     </g>
     <g id="line2d_10">
      <g>
       <use style="stroke:#000000;stroke-width:0.8;" x="302.870103" xlink:href="#m33d5313b18" y="320.4"/>
      </g>
     </g>
     <g id="text_5">
      <!-- 2.2 -->
      <g transform="translate(294.918541 334.998438)scale(0.1 -0.1)">
       <use xlink:href="#DejaVuSans-32"/>
       <use x="63.623047" xlink:href="#DejaVuSans-2e"/>
       <use x="95.410156" xlink:href="#DejaVuSans-32"/>
      </g>
     </g>
    </g>
    <g id="xtick_6">
     <g id="line2d_11">
      <path clip-path="url(#pcec94d2d66)" d="M 358.652671 320.4 
L 358.652671 43.2 
" style="fill:none;stroke:#b0b0b0;stroke-linecap:square;stroke-width:0.8;"/>
     </g>
     <g id="line2d_12">
      <g>
       <use style="stroke:#000000;stroke-width:0.8;" x="358.652671" xlink:href="#m33d5313b18" y="320.4"/>
      </g>
     </g>
     <g id="text_6">
      <!-- 2.4 -->
      <g transform="translate(350.701109 334.998438)scale(0.1 -0.1)">
       <use xlink:href="#DejaVuSans-32"/>
       <use x="63.623047" xlink:href="#DejaVuSans-2e"/>
       <use x="95.410156" xlink:href="#DejaVuSans-34"/>
      </g>
     </g>
    </g>
    <g id="xtick_7">
     <g id="line2d_13">
      <path clip-path="url(#pcec94d2d66)" d="M 414.435239 320.4 
L 414.435239 43.2 
" style="fill:none;stroke:#b0b0b0;stroke-linecap:square;stroke-width:0.8;"/>
     </g>
     <g id="line2d_14">
      <g>
       <use style="stroke:#000000;stroke-width:0.8;" x="414.435239" xlink:href="#m33d5313b18" y="320.4"/>
      </g>
     </g>
     <g id="text_7">
      <!-- 2.6 -->
      <g transform="translate(406.483676 334.998438)scale(0.1 -0.1)">
       <use xlink:href="#DejaVuSans-32"/>
       <use x="63.623047" xlink:href="#DejaVuSans-2e"/>
       <use x="95.410156" xlink:href="#DejaVuSans-36"/>
      </g>
     </g>
    </g>
    <g id="xtick_8">
     <g id="line2d_15">
      <path clip-path="url(#pcec94d2d66)" d="M 470.217807 320.4 
L 470.217807 43.2 
" style="fill:none;stroke:#b0b0b0;stroke-linecap:square;stroke-width:0.8;"/>
     </g>
     <g id="line2d_16">
      <g>
       <use style="stroke:#000000;stroke-width:0.8;" x="470.217807" xlink:href="#m33d5313b18" y="320.4"/>
      </g>
     </g>
     <g id="text_8">
      <!-- 2.8 -->
      <g transform="translate(462.266244 334.998438)scale(0.1 -0.1)">
       <use xlink:href="#DejaVuSans-32"/>
       <use x="63.623047" xlink:href="#DejaVuSans-2e"/>
       <use x="95.410156" xlink:href="#DejaVuSans-38"/>
      </g>
     </g>
    </g>
    <g id="text_9">
     <!-- Temperature -->
     <g transform="translate(263.530469 348.676562)scale(0.1 -0.1)">
      <defs>
       <path d="M -19 4666 
L 3928 4666 
L 3928 4134 
L 2272 4134 
L 2272 0 
L 1638 0 
L 1638 4134 
L -19 4134 
L -19 4666 
z
" id="DejaVuSans-54" transform="scale(0.015625)"/>
       <path d="M 3597 1894 
L 3597 1613 
L 953 1613 
Q 991 1019 1311 708 
Q 1631 397 2203 397 
Q 2534 397 2845 478 
Q 3156 559 3463 722 
L 3463 178 
Q 3153 47 2828 -22 
Q 2503 -91 2169 -91 
Q 1331 -91 842 396 
Q 353 884 353 1716 
Q 353 2575 817 3079 
Q 1281 3584 2069 3584 
Q 2775 3584 3186 3129 
Q 3597 2675 3597 1894 
z
M 3022 2063 
Q 3016 2534 2758 2815 
Q 2500 3097 2075 3097 
Q 1594 3097 1305 2825 
Q 1016 2553 972 2059 
L 3022 2063 
z
" id="DejaVuSans-65" transform="scale(0.015625)"/>
       <path d="M 3328 2828 
Q 3544 3216 3844 3400 
Q 4144 3584 4550 3584 
Q 5097 3584 5394 3201 
Q 5691 2819 5691 2113 
L 5691 0 
L 5113 0 
L 5113 2094 
Q 5113 2597 4934 2840 
Q 4756 3084 4391 3084 
Q 3944 3084 3684 2787 
Q 3425 2491 3425 1978 
L 3425 0 
L 2847 0 
L 2847 2094 
Q 2847 2600 2669 2842 
Q 2491 3084 2119 3084 
Q 1678 3084 1418 2786 
Q 1159 2488 1159 1978 
L 1159 0 
L 581 0 
L 581 3500 
L 1159 3500 
L 1159 2956 
Q 1356 3278 1631 3431 
Q 1906 3584 2284 3584 
Q 2666 3584 2933 3390 
Q 3200 3197 3328 2828 
z
" id="DejaVuSans-6d" transform="scale(0.015625)"/>
       <path d="M 1159 525 
L 1159 -1331 
L 581 -1331 
L 581 3500 
L 1159 3500 
L 1159 2969 
Q 1341 3281 1617 3432 
Q 1894 3584 2278 3584 
Q 2916 3584 3314 3078 
Q 3713 2572 3713 1747 
Q 3713 922 3314 415 
Q 2916 -91 2278 -91 
Q 1894 -91 1617 61 
Q 1341 213 1159 525 
z
M 3116 1747 
Q 3116 2381 2855 2742 
Q 2594 3103 2138 3103 
Q 1681 3103 1420 2742 
Q 1159 2381 1159 1747 
Q 1159 1113 1420 752 
Q 1681 391 2138 391 
Q 2594 391 2855 752 
Q 3116 1113 3116 1747 
z
" id="DejaVuSans-70" transform="scale(0.015625)"/>
       <path d="M 2631 2963 
Q 2534 3019 2420 3045 
Q 2306 3072 2169 3072 
Q 1681 3072 1420 2755 
Q 1159 2438 1159 1844 
L 1159 0 
L 581 0 
L 581 3500 
L 1159 3500 
L 1159 2956 
Q 1341 3275 1631 3429 
Q 1922 3584 2338 3584 
Q 2397 3584 2469 3576 
Q 2541 3569 2628 3553 
L 2631 2963 
z
" id="DejaVuSans-72" transform="scale(0.015625)"/>
       <path d="M 2194 1759 
Q 1497 1759 1228 1600 
Q 959 1441 959 1056 
Q 959 750 1161 570 
Q 1363 391 1709 391 
Q 2188 391 2477 730 
Q 2766 1069 2766 1631 
L 2766 1759 
L 2194 1759 
z
M 3341 1997 
L 3341 0 
L 2766 0 
L 2766 531 
Q 2569 213 2275 61 
Q 1981 -91 1556 -91 
Q 1019 -91 701 211 
Q 384 513 384 1019 
Q 384 1609 779 1909 
Q 1175 2209 1959 2209 
L 2766 2209 
L 2766 2266 
Q 2766 2663 2505 2880 
Q 2244 3097 1772 3097 
Q 1472 3097 1187 3025 
Q 903 2953 641 2809 
L 641 3341 
Q 956 3463 1253 3523 
Q 1550 3584 1831 3584 
Q 2591 3584 2966 3190 
Q 3341 2797 3341 1997 
z
" id="DejaVuSans-61" transform="scale(0.015625)"/>
       <path d="M 1172 4494 
L 1172 3500 
L 2356 3500 
L 2356 3053 
L 1172 3053 
L 1172 1153 
Q 1172 725 1289 603 
Q 1406 481 1766 481 
L 2356 481 
L 2356 0 
L 1766 0 
Q 1100 0 847 248 
Q 594 497 594 1153 
L 594 3053 
L 172 3053 
L 172 3500 
L 594 3500 
L 594 4494 
L 1172 4494 
z
" id="DejaVuSans-74" transform="scale(0.015625)"/>
       <path d="M 544 1381 
L 544 3500 
L 1119 3500 
L 1119 1403 
Q 1119 906 1312 657 
Q 1506 409 1894 409 
Q 2359 409 2629 706 
Q 2900 1003 2900 1516 
L 2900 3500 
L 3475 3500 
L 3475 0 
L 2900 0 
L 2900 538 
Q 2691 219 2414 64 
Q 2138 -91 1772 -91 
Q 1169 -91 856 284 
Q 544 659 544 1381 
z
M 1991 3584 
L 1991 3584 
z
" id="DejaVuSans-75" transform="scale(0.015625)"/>
      </defs>
      <use xlink:href="#DejaVuSans-54"/>
      <use x="44.083984" xlink:href="#DejaVuSans-65"/>
      <use x="105.607422" xlink:href="#DejaVuSans-6d"/>
      <use x="203.019531" xlink:href="#DejaVuSans-70"/>
      <use x="266.496094" xlink:href="#DejaVuSans-65"/>
      <use x="328.019531" xlink:href="#DejaVuSans-72"/>
      <use x="369.132812" xlink:href="#DejaVuSans-61"/>
      <use x="430.412109" xlink:href="#DejaVuSans-74"/>
      <use x="469.621094" xlink:href="#DejaVuSans-75"/>
      <use x="533" xlink:href="#DejaVuSans-72"/>
      <use x="571.863281" xlink:href="#DejaVuSans-65"/>
     </g>
    </g>
   </g>
   <g id="matplotlib.axis_2">
    <g id="ytick_1">
     <g id="line2d_17">
      <path clip-path="url(#pcec94d2d66)" d="M 72 309.456602 
L 518.4 309.456602 
" style="fill:none;stroke:#b0b0b0;stroke-linecap:square;stroke-width:0.8;"/>
     </g>
     <g id="line2d_18">
      <defs>
       <path d="M 0 0 
L -3.5 0 
" id="meece5f38f4" style="stroke:#000000;stroke-width:0.8;"/>
      </defs>
      <g>
       <use style="stroke:#000000;stroke-width:0.8;" x="72" xlink:href="#meece5f38f4" y="309.456602"/>
      </g>
     </g>
     <g id="text_10">
      <!-- 0 -->
      <g transform="translate(58.6375 313.25582)scale(0.1 -0.1)">
       <use xlink:href="#DejaVuSans-30"/>
      </g>
     </g>
    </g>
    <g id="ytick_2">
     <g id="line2d_19">
      <path clip-path="url(#pcec94d2d66)" d="M 72 252.460706 
L 518.4 252.460706 
" style="fill:none;stroke:#b0b0b0;stroke-linecap:square;stroke-width:0.8;"/>
     </g>
     <g id="line2d_20">
      <g>
       <use style="stroke:#000000;stroke-width:0.8;" x="72" xlink:href="#meece5f38f4" y="252.460706"/>
      </g>
     </g>
     <g id="text_11">
      <!-- 10 -->
      <g transform="translate(52.275 256.259925)scale(0.1 -0.1)">
       <use xlink:href="#DejaVuSans-31"/>
       <use x="63.623047" xlink:href="#DejaVuSans-30"/>
      </g>
     </g>
    </g>
    <g id="ytick_3">
     <g id="line2d_21">
      <path clip-path="url(#pcec94d2d66)" d="M 72 195.464811 
L 518.4 195.464811 
" style="fill:none;stroke:#b0b0b0;stroke-linecap:square;stroke-width:0.8;"/>
     </g>
     <g id="line2d_22">
      <g>
       <use style="stroke:#000000;stroke-width:0.8;" x="72" xlink:href="#meece5f38f4" y="195.464811"/>
      </g>
     </g>
     <g id="text_12">
      <!-- 20 -->
      <g transform="translate(52.275 199.26403)scale(0.1 -0.1)">
       <use xlink:href="#DejaVuSans-32"/>
       <use x="63.623047" xlink:href="#DejaVuSans-30"/>
      </g>
     </g>
    </g>
    <g id="ytick_4">
     <g id="line2d_23">
      <path clip-path="url(#pcec94d2d66)" d="M 72 138.468916 
L 518.4 138.468916 
" style="fill:none;stroke:#b0b0b0;stroke-linecap:square;stroke-width:0.8;"/>
     </g>
     <g id="line2d_24">
      <g>
       <use style="stroke:#000000;stroke-width:0.8;" x="72" xlink:href="#meece5f38f4" y="138.468916"/>
      </g>
     </g>
     <g id="text_13">
      <!-- 30 -->
      <g transform="translate(52.275 142.268135)scale(0.1 -0.1)">
       <defs>
        <path d="M 2597 2516 
Q 3050 2419 3304 2112 
Q 3559 1806 3559 1356 
Q 3559 666 3084 287 
Q 2609 -91 1734 -91 
Q 1441 -91 1130 -33 
Q 819 25 488 141 
L 488 750 
Q 750 597 1062 519 
Q 1375 441 1716 441 
Q 2309 441 2620 675 
Q 2931 909 2931 1356 
Q 2931 1769 2642 2001 
Q 2353 2234 1838 2234 
L 1294 2234 
L 1294 2753 
L 1863 2753 
Q 2328 2753 2575 2939 
Q 2822 3125 2822 3475 
Q 2822 3834 2567 4026 
Q 2313 4219 1838 4219 
Q 1578 4219 1281 4162 
Q 984 4106 628 3988 
L 628 4550 
Q 988 4650 1302 4700 
Q 1616 4750 1894 4750 
Q 2613 4750 3031 4423 
Q 3450 4097 3450 3541 
Q 3450 3153 3228 2886 
Q 3006 2619 2597 2516 
z
" id="DejaVuSans-33" transform="scale(0.015625)"/>
       </defs>
       <use xlink:href="#DejaVuSans-33"/>
       <use x="63.623047" xlink:href="#DejaVuSans-30"/>
      </g>
     </g>
    </g>
    <g id="ytick_5">
     <g id="line2d_25">
      <path clip-path="url(#pcec94d2d66)" d="M 72 81.47302 
L 518.4 81.47302 
" style="fill:none;stroke:#b0b0b0;stroke-linecap:square;stroke-width:0.8;"/>
     </g>
     <g id="line2d_26">
      <g>
       <use style="stroke:#000000;stroke-width:0.8;" x="72" xlink:href="#meece5f38f4" y="81.47302"/>
      </g>
     </g>
     <g id="text_14">
      <!-- 40 -->
      <g transform="translate(52.275 85.272239)scale(0.1 -0.1)">
       <use xlink:href="#DejaVuSans-34"/>
       <use x="63.623047" xlink:href="#DejaVuSans-30"/>
      </g>
     </g>
    </g>
    <g id="text_15">
     <!-- $\chi_{zz}$ -->
     <g transform="translate(46.175 188.6)rotate(-90)scale(0.1 -0.1)">
      <defs>
       <path d="M 1922 -781 
L 1691 416 
L 394 -1334 
L -284 -1334 
L 1553 1141 
L 1269 2613 
Q 1194 3006 713 3006 
L 559 3006 
L 653 3500 
L 872 3494 
Q 1675 3472 1775 2950 
L 2006 1753 
L 3303 3503 
L 3981 3503 
L 2144 1028 
L 2428 -444 
Q 2503 -838 2984 -838 
L 3138 -838 
L 3044 -1331 
L 2825 -1325 
Q 2022 -1303 1922 -781 
z
" id="DejaVuSans-Oblique-3c7" transform="scale(0.015625)"/>
       <path d="M 744 3500 
L 3475 3500 
L 3372 2975 
L 738 459 
L 2913 459 
L 2822 0 
L -19 0 
L 84 525 
L 2719 3041 
L 653 3041 
L 744 3500 
z
" id="DejaVuSans-Oblique-7a" transform="scale(0.015625)"/>
      </defs>
      <use transform="translate(0 0.265625)" xlink:href="#DejaVuSans-Oblique-3c7"/>
      <use transform="translate(59.179688 -16.140625)scale(0.7)" xlink:href="#DejaVuSans-Oblique-7a"/>
      <use transform="translate(95.922852 -16.140625)scale(0.7)" xlink:href="#DejaVuSans-Oblique-7a"/>
     </g>
    </g>
   </g>
   <g id="line2d_27">
    <path clip-path="url(#pcec94d2d66)" d="M 92.290909 73.021608 
L 93.685473 207.891503 
L 95.080037 213.161345 
L 96.474602 175.86332 
L 97.869166 205.081404 
L 99.26373 138.378151 
L 100.658294 208.975442 
L 102.052858 199.909038 
L 103.447423 226.663121 
L 104.841987 183.873495 
L 106.236551 232.036082 
L 107.631115 224.90332 
L 135.522399 281.634647 
L 163.413683 294.159386 
L 191.304967 299.387659 
L 219.196251 301.641389 
L 247.087535 303.568412 
L 274.978819 305.237379 
L 302.870103 305.937794 
L 330.761387 306.195067 
L 358.652671 306.883993 
L 386.543955 306.830377 
L 414.435239 307.140763 
L 442.326523 307.495727 
L 470.217807 307.681434 
L 498.109091 307.741855 
" style="fill:none;stroke:#1f77b4;stroke-dasharray:5.55,2.4;stroke-dashoffset:0;stroke-width:1.5;"/>
    <defs>
     <path d="M 0 1.5 
C 0.397805 1.5 0.77937 1.341951 1.06066 1.06066 
C 1.341951 0.77937 1.5 0.397805 1.5 0 
C 1.5 -0.397805 1.341951 -0.77937 1.06066 -1.06066 
C 0.77937 -1.341951 0.397805 -1.5 0 -1.5 
C -0.397805 -1.5 -0.77937 -1.341951 -1.06066 -1.06066 
C -1.341951 -0.77937 -1.5 -0.397805 -1.5 0 
C -1.5 0.397805 -1.341951 0.77937 -1.06066 1.06066 
C -0.77937 1.341951 -0.397805 1.5 0 1.5 
z
" id="ma94c6df7e5" style="stroke:#1f77b4;"/>
    </defs>
    <g clip-path="url(#pcec94d2d66)">
     <use style="fill:#1f77b4;stroke:#1f77b4;" x="92.290909" xlink:href="#ma94c6df7e5" y="73.021608"/>
     <use style="fill:#1f77b4;stroke:#1f77b4;" x="93.685473" xlink:href="#ma94c6df7e5" y="207.891503"/>
     <use style="fill:#1f77b4;stroke:#1f77b4;" x="95.080037" xlink:href="#ma94c6df7e5" y="213.161345"/>
     <use style="fill:#1f77b4;stroke:#1f77b4;" x="96.474602" xlink:href="#ma94c6df7e5" y="175.86332"/>
     <use style="fill:#1f77b4;stroke:#1f77b4;" x="97.869166" xlink:href="#ma94c6df7e5" y="205.081404"/>
     <use style="fill:#1f77b4;stroke:#1f77b4;" x="99.26373" xlink:href="#ma94c6df7e5" y="138.378151"/>
     <use style="fill:#1f77b4;stroke:#1f77b4;" x="100.658294" xlink:href="#ma94c6df7e5" y="208.975442"/>
     <use style="fill:#1f77b4;stroke:#1f77b4;" x="102.052858" xlink:href="#ma94c6df7e5" y="199.909038"/>
     <use style="fill:#1f77b4;stroke:#1f77b4;" x="103.447423" xlink:href="#ma94c6df7e5" y="226.663121"/>
     <use style="fill:#1f77b4;stroke:#1f77b4;" x="104.841987" xlink:href="#ma94c6df7e5" y="183.873495"/>
     <use style="fill:#1f77b4;stroke:#1f77b4;" x="106.236551" xlink:href="#ma94c6df7e5" y="232.036082"/>
     <use style="fill:#1f77b4;stroke:#1f77b4;" x="107.631115" xlink:href="#ma94c6df7e5" y="224.90332"/>
     <use style="fill:#1f77b4;stroke:#1f77b4;" x="135.522399" xlink:href="#ma94c6df7e5" y="281.634647"/>
     <use style="fill:#1f77b4;stroke:#1f77b4;" x="163.413683" xlink:href="#ma94c6df7e5" y="294.159386"/>
     <use style="fill:#1f77b4;stroke:#1f77b4;" x="191.304967" xlink:href="#ma94c6df7e5" y="299.387659"/>
     <use style="fill:#1f77b4;stroke:#1f77b4;" x="219.196251" xlink:href="#ma94c6df7e5" y="301.641389"/>
     <use style="fill:#1f77b4;stroke:#1f77b4;" x="247.087535" xlink:href="#ma94c6df7e5" y="303.568412"/>
     <use style="fill:#1f77b4;stroke:#1f77b4;" x="274.978819" xlink:href="#ma94c6df7e5" y="305.237379"/>
     <use style="fill:#1f77b4;stroke:#1f77b4;" x="302.870103" xlink:href="#ma94c6df7e5" y="305.937794"/>
     <use style="fill:#1f77b4;stroke:#1f77b4;" x="330.761387" xlink:href="#ma94c6df7e5" y="306.195067"/>
     <use style="fill:#1f77b4;stroke:#1f77b4;" x="358.652671" xlink:href="#ma94c6df7e5" y="306.883993"/>
     <use style="fill:#1f77b4;stroke:#1f77b4;" x="386.543955" xlink:href="#ma94c6df7e5" y="306.830377"/>
     <use style="fill:#1f77b4;stroke:#1f77b4;" x="414.435239" xlink:href="#ma94c6df7e5" y="307.140763"/>
     <use style="fill:#1f77b4;stroke:#1f77b4;" x="442.326523" xlink:href="#ma94c6df7e5" y="307.495727"/>
     <use style="fill:#1f77b4;stroke:#1f77b4;" x="470.217807" xlink:href="#ma94c6df7e5" y="307.681434"/>
     <use style="fill:#1f77b4;stroke:#1f77b4;" x="498.109091" xlink:href="#ma94c6df7e5" y="307.741855"/>
    </g>
   </g>
   <g id="line2d_28">
    <path clip-path="url(#pcec94d2d66)" d="M 92.290909 142.954303 
L 93.685473 191.248438 
L 95.080037 193.396115 
L 96.474602 167.159561 
L 97.869166 262.348516 
L 99.26373 55.8 
L 100.658294 181.923221 
L 102.052858 213.406949 
L 103.447423 229.554531 
L 104.841987 199.15571 
L 106.236551 230.188314 
L 107.631115 242.715352 
L 135.522399 273.45893 
L 163.413683 297.157052 
L 191.304967 299.004097 
L 219.196251 301.720242 
L 247.087535 304.064178 
L 274.978819 305.3394 
L 302.870103 305.527831 
L 330.761387 306.163539 
L 358.652671 306.764375 
L 386.543955 307.098402 
L 414.435239 307.442648 
L 442.326523 307.659471 
L 470.217807 307.538416 
L 498.109091 307.73084 
" style="fill:none;stroke:#ff7f0e;stroke-dasharray:5.55,2.4;stroke-dashoffset:0;stroke-width:1.5;"/>
    <defs>
     <path d="M 0 1.5 
C 0.397805 1.5 0.77937 1.341951 1.06066 1.06066 
C 1.341951 0.77937 1.5 0.397805 1.5 0 
C 1.5 -0.397805 1.341951 -0.77937 1.06066 -1.06066 
C 0.77937 -1.341951 0.397805 -1.5 0 -1.5 
C -0.397805 -1.5 -0.77937 -1.341951 -1.06066 -1.06066 
C -1.341951 -0.77937 -1.5 -0.397805 -1.5 0 
C -1.5 0.397805 -1.341951 0.77937 -1.06066 1.06066 
C -0.77937 1.341951 -0.397805 1.5 0 1.5 
z
" id="m71d89227ac" style="stroke:#ff7f0e;"/>
    </defs>
    <g clip-path="url(#pcec94d2d66)">
     <use style="fill:#ff7f0e;stroke:#ff7f0e;" x="92.290909" xlink:href="#m71d89227ac" y="142.954303"/>
     <use style="fill:#ff7f0e;stroke:#ff7f0e;" x="93.685473" xlink:href="#m71d89227ac" y="191.248438"/>
     <use style="fill:#ff7f0e;stroke:#ff7f0e;" x="95.080037" xlink:href="#m71d89227ac" y="193.396115"/>
     <use style="fill:#ff7f0e;stroke:#ff7f0e;" x="96.474602" xlink:href="#m71d89227ac" y="167.159561"/>
     <use style="fill:#ff7f0e;stroke:#ff7f0e;" x="97.869166" xlink:href="#m71d89227ac" y="262.348516"/>
     <use style="fill:#ff7f0e;stroke:#ff7f0e;" x="99.26373" xlink:href="#m71d89227ac" y="55.8"/>
     <use style="fill:#ff7f0e;stroke:#ff7f0e;" x="100.658294" xlink:href="#m71d89227ac" y="181.923221"/>
     <use style="fill:#ff7f0e;stroke:#ff7f0e;" x="102.052858" xlink:href="#m71d89227ac" y="213.406949"/>
     <use style="fill:#ff7f0e;stroke:#ff7f0e;" x="103.447423" xlink:href="#m71d89227ac" y="229.554531"/>
     <use style="fill:#ff7f0e;stroke:#ff7f0e;" x="104.841987" xlink:href="#m71d89227ac" y="199.15571"/>
     <use style="fill:#ff7f0e;stroke:#ff7f0e;" x="106.236551" xlink:href="#m71d89227ac" y="230.188314"/>
     <use style="fill:#ff7f0e;stroke:#ff7f0e;" x="107.631115" xlink:href="#m71d89227ac" y="242.715352"/>
     <use style="fill:#ff7f0e;stroke:#ff7f0e;" x="135.522399" xlink:href="#m71d89227ac" y="273.45893"/>
     <use style="fill:#ff7f0e;stroke:#ff7f0e;" x="163.413683" xlink:href="#m71d89227ac" y="297.157052"/>
     <use style="fill:#ff7f0e;stroke:#ff7f0e;" x="191.304967" xlink:href="#m71d89227ac" y="299.004097"/>
     <use style="fill:#ff7f0e;stroke:#ff7f0e;" x="219.196251" xlink:href="#m71d89227ac" y="301.720242"/>
     <use style="fill:#ff7f0e;stroke:#ff7f0e;" x="247.087535" xlink:href="#m71d89227ac" y="304.064178"/>
     <use style="fill:#ff7f0e;stroke:#ff7f0e;" x="274.978819" xlink:href="#m71d89227ac" y="305.3394"/>
     <use style="fill:#ff7f0e;stroke:#ff7f0e;" x="302.870103" xlink:href="#m71d89227ac" y="305.527831"/>
     <use style="fill:#ff7f0e;stroke:#ff7f0e;" x="330.761387" xlink:href="#m71d89227ac" y="306.163539"/>
     <use style="fill:#ff7f0e;stroke:#ff7f0e;" x="358.652671" xlink:href="#m71d89227ac" y="306.764375"/>
     <use style="fill:#ff7f0e;stroke:#ff7f0e;" x="386.543955" xlink:href="#m71d89227ac" y="307.098402"/>
     <use style="fill:#ff7f0e;stroke:#ff7f0e;" x="414.435239" xlink:href="#m71d89227ac" y="307.442648"/>
     <use style="fill:#ff7f0e;stroke:#ff7f0e;" x="442.326523" xlink:href="#m71d89227ac" y="307.659471"/>
     <use style="fill:#ff7f0e;stroke:#ff7f0e;" x="470.217807" xlink:href="#m71d89227ac" y="307.538416"/>
     <use style="fill:#ff7f0e;stroke:#ff7f0e;" x="498.109091" xlink:href="#m71d89227ac" y="307.73084"/>
    </g>
   </g>
   <g id="line2d_29">
    <path clip-path="url(#pcec94d2d66)" d="M 92.290909 243.377687 
L 93.685473 219.337393 
L 95.080037 167.394401 
L 96.474602 92.334493 
L 97.869166 62.261898 
L 99.26373 234.983618 
L 100.658294 256.152903 
L 102.052858 226.866199 
L 103.447423 171.892298 
L 104.841987 177.100628 
L 106.236551 273.262721 
L 107.631115 250.792063 
L 135.522399 272.237693 
L 163.413683 294.894277 
L 191.304967 302.490289 
L 219.196251 301.984467 
L 247.087535 304.19997 
L 274.978819 305.944178 
L 302.870103 305.912816 
L 330.761387 306.895899 
L 358.652671 306.782444 
L 386.543955 307.611346 
L 414.435239 307.282853 
L 442.326523 307.114167 
L 470.217807 307.595608 
L 498.109091 307.8 
" style="fill:none;stroke:#2ca02c;stroke-dasharray:5.55,2.4;stroke-dashoffset:0;stroke-width:1.5;"/>
    <defs>
     <path d="M 0 1.5 
C 0.397805 1.5 0.77937 1.341951 1.06066 1.06066 
C 1.341951 0.77937 1.5 0.397805 1.5 0 
C 1.5 -0.397805 1.341951 -0.77937 1.06066 -1.06066 
C 0.77937 -1.341951 0.397805 -1.5 0 -1.5 
C -0.397805 -1.5 -0.77937 -1.341951 -1.06066 -1.06066 
C -1.341951 -0.77937 -1.5 -0.397805 -1.5 0 
C -1.5 0.397805 -1.341951 0.77937 -1.06066 1.06066 
C -0.77937 1.341951 -0.397805 1.5 0 1.5 
z
" id="m18d6f146a0" style="stroke:#2ca02c;"/>
    </defs>
    <g clip-path="url(#pcec94d2d66)">
     <use style="fill:#2ca02c;stroke:#2ca02c;" x="92.290909" xlink:href="#m18d6f146a0" y="243.377687"/>
     <use style="fill:#2ca02c;stroke:#2ca02c;" x="93.685473" xlink:href="#m18d6f146a0" y="219.337393"/>
     <use style="fill:#2ca02c;stroke:#2ca02c;" x="95.080037" xlink:href="#m18d6f146a0" y="167.394401"/>
     <use style="fill:#2ca02c;stroke:#2ca02c;" x="96.474602" xlink:href="#m18d6f146a0" y="92.334493"/>
     <use style="fill:#2ca02c;stroke:#2ca02c;" x="97.869166" xlink:href="#m18d6f146a0" y="62.261898"/>
     <use style="fill:#2ca02c;stroke:#2ca02c;" x="99.26373" xlink:href="#m18d6f146a0" y="234.983618"/>
     <use style="fill:#2ca02c;stroke:#2ca02c;" x="100.658294" xlink:href="#m18d6f146a0" y="256.152903"/>
     <use style="fill:#2ca02c;stroke:#2ca02c;" x="102.052858" xlink:href="#m18d6f146a0" y="226.866199"/>
     <use style="fill:#2ca02c;stroke:#2ca02c;" x="103.447423" xlink:href="#m18d6f146a0" y="171.892298"/>
     <use style="fill:#2ca02c;stroke:#2ca02c;" x="104.841987" xlink:href="#m18d6f146a0" y="177.100628"/>
     <use style="fill:#2ca02c;stroke:#2ca02c;" x="106.236551" xlink:href="#m18d6f146a0" y="273.262721"/>
     <use style="fill:#2ca02c;stroke:#2ca02c;" x="107.631115" xlink:href="#m18d6f146a0" y="250.792063"/>
     <use style="fill:#2ca02c;stroke:#2ca02c;" x="135.522399" xlink:href="#m18d6f146a0" y="272.237693"/>
     <use style="fill:#2ca02c;stroke:#2ca02c;" x="163.413683" xlink:href="#m18d6f146a0" y="294.894277"/>
     <use style="fill:#2ca02c;stroke:#2ca02c;" x="191.304967" xlink:href="#m18d6f146a0" y="302.490289"/>
     <use style="fill:#2ca02c;stroke:#2ca02c;" x="219.196251" xlink:href="#m18d6f146a0" y="301.984467"/>
     <use style="fill:#2ca02c;stroke:#2ca02c;" x="247.087535" xlink:href="#m18d6f146a0" y="304.19997"/>
     <use style="fill:#2ca02c;stroke:#2ca02c;" x="274.978819" xlink:href="#m18d6f146a0" y="305.944178"/>
     <use style="fill:#2ca02c;stroke:#2ca02c;" x="302.870103" xlink:href="#m18d6f146a0" y="305.912816"/>
     <use style="fill:#2ca02c;stroke:#2ca02c;" x="330.761387" xlink:href="#m18d6f146a0" y="306.895899"/>
     <use style="fill:#2ca02c;stroke:#2ca02c;" x="358.652671" xlink:href="#m18d6f146a0" y="306.782444"/>
     <use style="fill:#2ca02c;stroke:#2ca02c;" x="386.543955" xlink:href="#m18d6f146a0" y="307.611346"/>
     <use style="fill:#2ca02c;stroke:#2ca02c;" x="414.435239" xlink:href="#m18d6f146a0" y="307.282853"/>
     <use style="fill:#2ca02c;stroke:#2ca02c;" x="442.326523" xlink:href="#m18d6f146a0" y="307.114167"/>
     <use style="fill:#2ca02c;stroke:#2ca02c;" x="470.217807" xlink:href="#m18d6f146a0" y="307.595608"/>
     <use style="fill:#2ca02c;stroke:#2ca02c;" x="498.109091" xlink:href="#m18d6f146a0" y="307.8"/>
    </g>
   </g>
   <g id="patch_3">
    <path d="M 72 320.4 
L 72 43.2 
" style="fill:none;stroke:#000000;stroke-linecap:square;stroke-linejoin:miter;stroke-width:0.8;"/>
   </g>
   <g id="patch_4">
    <path d="M 518.4 320.4 
L 518.4 43.2 
" style="fill:none;stroke:#000000;stroke-linecap:square;stroke-linejoin:miter;stroke-width:0.8;"/>
   </g>
   <g id="patch_5">
    <path d="M 72 320.4 
L 518.4 320.4 
" style="fill:none;stroke:#000000;stroke-linecap:square;stroke-linejoin:miter;stroke-width:0.8;"/>
   </g>
   <g id="patch_6">
    <path d="M 72 43.2 
L 518.4 43.2 
" style="fill:none;stroke:#000000;stroke-linecap:square;stroke-linejoin:miter;stroke-width:0.8;"/>
   </g>
   <g id="text_16">
    <!-- Magnetic susceptibility per spin -->
    <g transform="translate(200.046562 37.2)scale(0.12 -0.12)">
     <defs>
      <path d="M 628 4666 
L 1569 4666 
L 2759 1491 
L 3956 4666 
L 4897 4666 
L 4897 0 
L 4281 0 
L 4281 4097 
L 3078 897 
L 2444 897 
L 1241 4097 
L 1241 0 
L 628 0 
L 628 4666 
z
" id="DejaVuSans-4d" transform="scale(0.015625)"/>
      <path d="M 2906 1791 
Q 2906 2416 2648 2759 
Q 2391 3103 1925 3103 
Q 1463 3103 1205 2759 
Q 947 2416 947 1791 
Q 947 1169 1205 825 
Q 1463 481 1925 481 
Q 2391 481 2648 825 
Q 2906 1169 2906 1791 
z
M 3481 434 
Q 3481 -459 3084 -895 
Q 2688 -1331 1869 -1331 
Q 1566 -1331 1297 -1286 
Q 1028 -1241 775 -1147 
L 775 -588 
Q 1028 -725 1275 -790 
Q 1522 -856 1778 -856 
Q 2344 -856 2625 -561 
Q 2906 -266 2906 331 
L 2906 616 
Q 2728 306 2450 153 
Q 2172 0 1784 0 
Q 1141 0 747 490 
Q 353 981 353 1791 
Q 353 2603 747 3093 
Q 1141 3584 1784 3584 
Q 2172 3584 2450 3431 
Q 2728 3278 2906 2969 
L 2906 3500 
L 3481 3500 
L 3481 434 
z
" id="DejaVuSans-67" transform="scale(0.015625)"/>
      <path d="M 3513 2113 
L 3513 0 
L 2938 0 
L 2938 2094 
Q 2938 2591 2744 2837 
Q 2550 3084 2163 3084 
Q 1697 3084 1428 2787 
Q 1159 2491 1159 1978 
L 1159 0 
L 581 0 
L 581 3500 
L 1159 3500 
L 1159 2956 
Q 1366 3272 1645 3428 
Q 1925 3584 2291 3584 
Q 2894 3584 3203 3211 
Q 3513 2838 3513 2113 
z
" id="DejaVuSans-6e" transform="scale(0.015625)"/>
      <path d="M 603 3500 
L 1178 3500 
L 1178 0 
L 603 0 
L 603 3500 
z
M 603 4863 
L 1178 4863 
L 1178 4134 
L 603 4134 
L 603 4863 
z
" id="DejaVuSans-69" transform="scale(0.015625)"/>
      <path d="M 3122 3366 
L 3122 2828 
Q 2878 2963 2633 3030 
Q 2388 3097 2138 3097 
Q 1578 3097 1268 2742 
Q 959 2388 959 1747 
Q 959 1106 1268 751 
Q 1578 397 2138 397 
Q 2388 397 2633 464 
Q 2878 531 3122 666 
L 3122 134 
Q 2881 22 2623 -34 
Q 2366 -91 2075 -91 
Q 1284 -91 818 406 
Q 353 903 353 1747 
Q 353 2603 823 3093 
Q 1294 3584 2113 3584 
Q 2378 3584 2631 3529 
Q 2884 3475 3122 3366 
z
" id="DejaVuSans-63" transform="scale(0.015625)"/>
      <path id="DejaVuSans-20" transform="scale(0.015625)"/>
      <path d="M 2834 3397 
L 2834 2853 
Q 2591 2978 2328 3040 
Q 2066 3103 1784 3103 
Q 1356 3103 1142 2972 
Q 928 2841 928 2578 
Q 928 2378 1081 2264 
Q 1234 2150 1697 2047 
L 1894 2003 
Q 2506 1872 2764 1633 
Q 3022 1394 3022 966 
Q 3022 478 2636 193 
Q 2250 -91 1575 -91 
Q 1294 -91 989 -36 
Q 684 19 347 128 
L 347 722 
Q 666 556 975 473 
Q 1284 391 1588 391 
Q 1994 391 2212 530 
Q 2431 669 2431 922 
Q 2431 1156 2273 1281 
Q 2116 1406 1581 1522 
L 1381 1569 
Q 847 1681 609 1914 
Q 372 2147 372 2553 
Q 372 3047 722 3315 
Q 1072 3584 1716 3584 
Q 2034 3584 2315 3537 
Q 2597 3491 2834 3397 
z
" id="DejaVuSans-73" transform="scale(0.015625)"/>
      <path d="M 3116 1747 
Q 3116 2381 2855 2742 
Q 2594 3103 2138 3103 
Q 1681 3103 1420 2742 
Q 1159 2381 1159 1747 
Q 1159 1113 1420 752 
Q 1681 391 2138 391 
Q 2594 391 2855 752 
Q 3116 1113 3116 1747 
z
M 1159 2969 
Q 1341 3281 1617 3432 
Q 1894 3584 2278 3584 
Q 2916 3584 3314 3078 
Q 3713 2572 3713 1747 
Q 3713 922 3314 415 
Q 2916 -91 2278 -91 
Q 1894 -91 1617 61 
Q 1341 213 1159 525 
L 1159 0 
L 581 0 
L 581 4863 
L 1159 4863 
L 1159 2969 
z
" id="DejaVuSans-62" transform="scale(0.015625)"/>
      <path d="M 603 4863 
L 1178 4863 
L 1178 0 
L 603 0 
L 603 4863 
z
" id="DejaVuSans-6c" transform="scale(0.015625)"/>
      <path d="M 2059 -325 
Q 1816 -950 1584 -1140 
Q 1353 -1331 966 -1331 
L 506 -1331 
L 506 -850 
L 844 -850 
Q 1081 -850 1212 -737 
Q 1344 -625 1503 -206 
L 1606 56 
L 191 3500 
L 800 3500 
L 1894 763 
L 2988 3500 
L 3597 3500 
L 2059 -325 
z
" id="DejaVuSans-79" transform="scale(0.015625)"/>
     </defs>
     <use xlink:href="#DejaVuSans-4d"/>
     <use x="86.279297" xlink:href="#DejaVuSans-61"/>
     <use x="147.558594" xlink:href="#DejaVuSans-67"/>
     <use x="211.035156" xlink:href="#DejaVuSans-6e"/>
     <use x="274.414062" xlink:href="#DejaVuSans-65"/>
     <use x="335.9375" xlink:href="#DejaVuSans-74"/>
     <use x="375.146484" xlink:href="#DejaVuSans-69"/>
     <use x="402.929688" xlink:href="#DejaVuSans-63"/>
     <use x="457.910156" xlink:href="#DejaVuSans-20"/>
     <use x="489.697266" xlink:href="#DejaVuSans-73"/>
     <use x="541.796875" xlink:href="#DejaVuSans-75"/>
     <use x="605.175781" xlink:href="#DejaVuSans-73"/>
     <use x="657.275391" xlink:href="#DejaVuSans-63"/>
     <use x="712.255859" xlink:href="#DejaVuSans-65"/>
     <use x="773.779297" xlink:href="#DejaVuSans-70"/>
     <use x="837.255859" xlink:href="#DejaVuSans-74"/>
     <use x="876.464844" xlink:href="#DejaVuSans-69"/>
     <use x="904.248047" xlink:href="#DejaVuSans-62"/>
     <use x="967.724609" xlink:href="#DejaVuSans-69"/>
     <use x="995.507812" xlink:href="#DejaVuSans-6c"/>
     <use x="1023.291016" xlink:href="#DejaVuSans-69"/>
     <use x="1051.074219" xlink:href="#DejaVuSans-74"/>
     <use x="1090.283203" xlink:href="#DejaVuSans-79"/>
     <use x="1149.462891" xlink:href="#DejaVuSans-20"/>
     <use x="1181.25" xlink:href="#DejaVuSans-70"/>
     <use x="1244.726562" xlink:href="#DejaVuSans-65"/>
     <use x="1306.25" xlink:href="#DejaVuSans-72"/>
     <use x="1347.363281" xlink:href="#DejaVuSans-20"/>
     <use x="1379.150391" xlink:href="#DejaVuSans-73"/>
     <use x="1431.25" xlink:href="#DejaVuSans-70"/>
     <use x="1494.726562" xlink:href="#DejaVuSans-69"/>
     <use x="1522.509766" xlink:href="#DejaVuSans-6e"/>
    </g>
   </g>
   <g id="legend_1">
    <g id="patch_7">
     <path d="M 436.826562 95.234375 
L 511.4 95.234375 
Q 513.4 95.234375 513.4 93.234375 
L 513.4 50.2 
Q 513.4 48.2 511.4 48.2 
L 436.826562 48.2 
Q 434.826562 48.2 434.826562 50.2 
L 434.826562 93.234375 
Q 434.826562 95.234375 436.826562 95.234375 
z
" style="fill:#ffffff;opacity:0.8;stroke:#cccccc;stroke-linejoin:miter;"/>
    </g>
    <g id="line2d_30">
     <path d="M 438.826562 56.298437 
L 458.826562 56.298437 
" style="fill:none;stroke:#1f77b4;stroke-dasharray:5.55,2.4;stroke-dashoffset:0;stroke-width:1.5;"/>
    </g>
    <g id="line2d_31">
     <g>
      <use style="fill:#1f77b4;stroke:#1f77b4;" x="448.826562" xlink:href="#ma94c6df7e5" y="56.298437"/>
     </g>
    </g>
    <g id="text_17">
     <!-- L = 12.0 -->
     <g transform="translate(466.826562 59.798437)scale(0.1 -0.1)">
      <defs>
       <path d="M 628 4666 
L 1259 4666 
L 1259 531 
L 3531 531 
L 3531 0 
L 628 0 
L 628 4666 
z
" id="DejaVuSans-4c" transform="scale(0.015625)"/>
       <path d="M 678 2906 
L 4684 2906 
L 4684 2381 
L 678 2381 
L 678 2906 
z
M 678 1631 
L 4684 1631 
L 4684 1100 
L 678 1100 
L 678 1631 
z
" id="DejaVuSans-3d" transform="scale(0.015625)"/>
      </defs>
      <use xlink:href="#DejaVuSans-4c"/>
      <use x="55.712891" xlink:href="#DejaVuSans-20"/>
      <use x="87.5" xlink:href="#DejaVuSans-3d"/>
      <use x="171.289062" xlink:href="#DejaVuSans-20"/>
      <use x="203.076172" xlink:href="#DejaVuSans-31"/>
      <use x="266.699219" xlink:href="#DejaVuSans-32"/>
      <use x="330.322266" xlink:href="#DejaVuSans-2e"/>
      <use x="362.109375" xlink:href="#DejaVuSans-30"/>
     </g>
    </g>
    <g id="line2d_32">
     <path d="M 438.826562 70.976562 
L 458.826562 70.976562 
" style="fill:none;stroke:#ff7f0e;stroke-dasharray:5.55,2.4;stroke-dashoffset:0;stroke-width:1.5;"/>
    </g>
    <g id="line2d_33">
     <g>
      <use style="fill:#ff7f0e;stroke:#ff7f0e;" x="448.826562" xlink:href="#m71d89227ac" y="70.976562"/>
     </g>
    </g>
    <g id="text_18">
     <!-- L = 16.0 -->
     <g transform="translate(466.826562 74.476562)scale(0.1 -0.1)">
      <use xlink:href="#DejaVuSans-4c"/>
      <use x="55.712891" xlink:href="#DejaVuSans-20"/>
      <use x="87.5" xlink:href="#DejaVuSans-3d"/>
      <use x="171.289062" xlink:href="#DejaVuSans-20"/>
      <use x="203.076172" xlink:href="#DejaVuSans-31"/>
      <use x="266.699219" xlink:href="#DejaVuSans-36"/>
      <use x="330.322266" xlink:href="#DejaVuSans-2e"/>
      <use x="362.109375" xlink:href="#DejaVuSans-30"/>
     </g>
    </g>
    <g id="line2d_34">
     <path d="M 438.826562 85.654687 
L 458.826562 85.654687 
" style="fill:none;stroke:#2ca02c;stroke-dasharray:5.55,2.4;stroke-dashoffset:0;stroke-width:1.5;"/>
    </g>
    <g id="line2d_35">
     <g>
      <use style="fill:#2ca02c;stroke:#2ca02c;" x="448.826562" xlink:href="#m18d6f146a0" y="85.654687"/>
     </g>
    </g>
    <g id="text_19">
     <!-- L = 20.0 -->
     <g transform="translate(466.826562 89.154687)scale(0.1 -0.1)">
      <use xlink:href="#DejaVuSans-4c"/>
      <use x="55.712891" xlink:href="#DejaVuSans-20"/>
      <use x="87.5" xlink:href="#DejaVuSans-3d"/>
      <use x="171.289062" xlink:href="#DejaVuSans-20"/>
      <use x="203.076172" xlink:href="#DejaVuSans-32"/>
      <use x="266.699219" xlink:href="#DejaVuSans-30"/>
      <use x="330.322266" xlink:href="#DejaVuSans-2e"/>
      <use x="362.109375" xlink:href="#DejaVuSans-30"/>
     </g>
    </g>
   </g>
  </g>
 </g>
 <defs>
  <clipPath id="pcec94d2d66">
   <rect height="277.2" width="446.4" x="72" y="43.2"/>
  </clipPath>
 </defs>
</svg>
