<?xml version="1.0" encoding="utf-8" standalone="no"?>
<!DOCTYPE svg PUBLIC "-//W3C//DTD SVG 1.1//EN"
  "http://www.w3.org/Graphics/SVG/1.1/DTD/svg11.dtd">
<svg height="360pt" version="1.1" viewBox="0 0 576 360" width="576pt" xmlns="http://www.w3.org/2000/svg" xmlns:xlink="http://www.w3.org/1999/xlink">
 <metadata>
  <rdf:RDF xmlns:cc="http://creativecommons.org/ns#" xmlns:dc="http://purl.org/dc/elements/1.1/" xmlns:rdf="http://www.w3.org/1999/02/22-rdf-syntax-ns#">
   <cc:Work>
    <dc:type rdf:resource="http://purl.org/dc/dcmitype/StillImage"/>
    <dc:date>2022-04-25T20:23:28.043939</dc:date>
    <dc:format>image/svg+xml</dc:format>
    <dc:creator>
     <cc:Agent>
      <dc:title>Matplotlib v3.4.3, https://matplotlib.org/</dc:title>
     </cc:Agent>
    </dc:creator>
   </cc:Work>
  </rdf:RDF>
 </metadata>
 <defs>
  <style type="text/css">*{stroke-linecap:butt;stroke-linejoin:round;}</style>
 </defs>
 <g id="figure_1">
  <g id="patch_1">
   <path d="M 0 360 
L 576 360 
L 576 0 
L 0 0 
z
" style="fill:#ffffff;"/>
  </g>
  <g id="axes_1">
   <g id="patch_2">
    <path d="M 72 320.4 
L 518.4 320.4 
L 518.4 43.2 
L 72 43.2 
z
" style="fill:#ffffff;"/>
   </g>
   <g id="matplotlib.axis_1">
    <g id="xtick_1">
     <g id="line2d_1">
      <path clip-path="url(#pd86d8285e5)" d="M 78.297179 320.4 
L 78.297179 43.2 
" style="fill:none;stroke:#b0b0b0;stroke-linecap:square;stroke-width:0.8;"/>
     </g>
     <g id="line2d_2">
      <defs>
       <path d="M 0 0 
L 0 3.5 
" id="md6373dd609" style="stroke:#000000;stroke-width:0.8;"/>
      </defs>
      <g>
       <use style="stroke:#000000;stroke-width:0.8;" x="78.297179" xlink:href="#md6373dd609" y="320.4"/>
      </g>
     </g>
     <g id="text_1">
      <!-- 0.2 -->
      <g transform="translate(70.345616 334.998438)scale(0.1 -0.1)">
       <defs>
        <path d="M 2034 4250 
Q 1547 4250 1301 3770 
Q 1056 3291 1056 2328 
Q 1056 1369 1301 889 
Q 1547 409 2034 409 
Q 2525 409 2770 889 
Q 3016 1369 3016 2328 
Q 3016 3291 2770 3770 
Q 2525 4250 2034 4250 
z
M 2034 4750 
Q 2819 4750 3233 4129 
Q 3647 3509 3647 2328 
Q 3647 1150 3233 529 
Q 2819 -91 2034 -91 
Q 1250 -91 836 529 
Q 422 1150 422 2328 
Q 422 3509 836 4129 
Q 1250 4750 2034 4750 
z
" id="DejaVuSans-30" transform="scale(0.015625)"/>
        <path d="M 684 794 
L 1344 794 
L 1344 0 
L 684 0 
L 684 794 
z
" id="DejaVuSans-2e" transform="scale(0.015625)"/>
        <path d="M 1228 531 
L 3431 531 
L 3431 0 
L 469 0 
L 469 531 
Q 828 903 1448 1529 
Q 2069 2156 2228 2338 
Q 2531 2678 2651 2914 
Q 2772 3150 2772 3378 
Q 2772 3750 2511 3984 
Q 2250 4219 1831 4219 
Q 1534 4219 1204 4116 
Q 875 4013 500 3803 
L 500 4441 
Q 881 4594 1212 4672 
Q 1544 4750 1819 4750 
Q 2544 4750 2975 4387 
Q 3406 4025 3406 3419 
Q 3406 3131 3298 2873 
Q 3191 2616 2906 2266 
Q 2828 2175 2409 1742 
Q 1991 1309 1228 531 
z
" id="DejaVuSans-32" transform="scale(0.015625)"/>
       </defs>
       <use xlink:href="#DejaVuSans-30"/>
       <use x="63.623047" xlink:href="#DejaVuSans-2e"/>
       <use x="95.410156" xlink:href="#DejaVuSans-32"/>
      </g>
     </g>
    </g>
    <g id="xtick_2">
     <g id="line2d_3">
      <path clip-path="url(#pd86d8285e5)" d="M 134.2721 320.4 
L 134.2721 43.2 
" style="fill:none;stroke:#b0b0b0;stroke-linecap:square;stroke-width:0.8;"/>
     </g>
     <g id="line2d_4">
      <g>
       <use style="stroke:#000000;stroke-width:0.8;" x="134.2721" xlink:href="#md6373dd609" y="320.4"/>
      </g>
     </g>
     <g id="text_2">
      <!-- 0.4 -->
      <g transform="translate(126.320538 334.998438)scale(0.1 -0.1)">
       <defs>
        <path d="M 2419 4116 
L 825 1625 
L 2419 1625 
L 2419 4116 
z
M 2253 4666 
L 3047 4666 
L 3047 1625 
L 3713 1625 
L 3713 1100 
L 3047 1100 
L 3047 0 
L 2419 0 
L 2419 1100 
L 313 1100 
L 313 1709 
L 2253 4666 
z
" id="DejaVuSans-34" transform="scale(0.015625)"/>
       </defs>
       <use xlink:href="#DejaVuSans-30"/>
       <use x="63.623047" xlink:href="#DejaVuSans-2e"/>
       <use x="95.410156" xlink:href="#DejaVuSans-34"/>
      </g>
     </g>
    </g>
    <g id="xtick_3">
     <g id="line2d_5">
      <path clip-path="url(#pd86d8285e5)" d="M 190.247022 320.4 
L 190.247022 43.2 
" style="fill:none;stroke:#b0b0b0;stroke-linecap:square;stroke-width:0.8;"/>
     </g>
     <g id="line2d_6">
      <g>
       <use style="stroke:#000000;stroke-width:0.8;" x="190.247022" xlink:href="#md6373dd609" y="320.4"/>
      </g>
     </g>
     <g id="text_3">
      <!-- 0.6 -->
      <g transform="translate(182.295459 334.998438)scale(0.1 -0.1)">
       <defs>
        <path d="M 2113 2584 
Q 1688 2584 1439 2293 
Q 1191 2003 1191 1497 
Q 1191 994 1439 701 
Q 1688 409 2113 409 
Q 2538 409 2786 701 
Q 3034 994 3034 1497 
Q 3034 2003 2786 2293 
Q 2538 2584 2113 2584 
z
M 3366 4563 
L 3366 3988 
Q 3128 4100 2886 4159 
Q 2644 4219 2406 4219 
Q 1781 4219 1451 3797 
Q 1122 3375 1075 2522 
Q 1259 2794 1537 2939 
Q 1816 3084 2150 3084 
Q 2853 3084 3261 2657 
Q 3669 2231 3669 1497 
Q 3669 778 3244 343 
Q 2819 -91 2113 -91 
Q 1303 -91 875 529 
Q 447 1150 447 2328 
Q 447 3434 972 4092 
Q 1497 4750 2381 4750 
Q 2619 4750 2861 4703 
Q 3103 4656 3366 4563 
z
" id="DejaVuSans-36" transform="scale(0.015625)"/>
       </defs>
       <use xlink:href="#DejaVuSans-30"/>
       <use x="63.623047" xlink:href="#DejaVuSans-2e"/>
       <use x="95.410156" xlink:href="#DejaVuSans-36"/>
      </g>
     </g>
    </g>
    <g id="xtick_4">
     <g id="line2d_7">
      <path clip-path="url(#pd86d8285e5)" d="M 246.221944 320.4 
L 246.221944 43.2 
" style="fill:none;stroke:#b0b0b0;stroke-linecap:square;stroke-width:0.8;"/>
     </g>
     <g id="line2d_8">
      <g>
       <use style="stroke:#000000;stroke-width:0.8;" x="246.221944" xlink:href="#md6373dd609" y="320.4"/>
      </g>
     </g>
     <g id="text_4">
      <!-- 0.8 -->
      <g transform="translate(238.270381 334.998438)scale(0.1 -0.1)">
       <defs>
        <path d="M 2034 2216 
Q 1584 2216 1326 1975 
Q 1069 1734 1069 1313 
Q 1069 891 1326 650 
Q 1584 409 2034 409 
Q 2484 409 2743 651 
Q 3003 894 3003 1313 
Q 3003 1734 2745 1975 
Q 2488 2216 2034 2216 
z
M 1403 2484 
Q 997 2584 770 2862 
Q 544 3141 544 3541 
Q 544 4100 942 4425 
Q 1341 4750 2034 4750 
Q 2731 4750 3128 4425 
Q 3525 4100 3525 3541 
Q 3525 3141 3298 2862 
Q 3072 2584 2669 2484 
Q 3125 2378 3379 2068 
Q 3634 1759 3634 1313 
Q 3634 634 3220 271 
Q 2806 -91 2034 -91 
Q 1263 -91 848 271 
Q 434 634 434 1313 
Q 434 1759 690 2068 
Q 947 2378 1403 2484 
z
M 1172 3481 
Q 1172 3119 1398 2916 
Q 1625 2713 2034 2713 
Q 2441 2713 2670 2916 
Q 2900 3119 2900 3481 
Q 2900 3844 2670 4047 
Q 2441 4250 2034 4250 
Q 1625 4250 1398 4047 
Q 1172 3844 1172 3481 
z
" id="DejaVuSans-38" transform="scale(0.015625)"/>
       </defs>
       <use xlink:href="#DejaVuSans-30"/>
       <use x="63.623047" xlink:href="#DejaVuSans-2e"/>
       <use x="95.410156" xlink:href="#DejaVuSans-38"/>
      </g>
     </g>
    </g>
    <g id="xtick_5">
     <g id="line2d_9">
      <path clip-path="url(#pd86d8285e5)" d="M 302.196865 320.4 
L 302.196865 43.2 
" style="fill:none;stroke:#b0b0b0;stroke-linecap:square;stroke-width:0.8;"/>
     </g>
     <g id="line2d_10">
      <g>
       <use style="stroke:#000000;stroke-width:0.8;" x="302.196865" xlink:href="#md6373dd609" y="320.4"/>
      </g>
     </g>
     <g id="text_5">
      <!-- 1.0 -->
      <g transform="translate(294.245303 334.998438)scale(0.1 -0.1)">
       <defs>
        <path d="M 794 531 
L 1825 531 
L 1825 4091 
L 703 3866 
L 703 4441 
L 1819 4666 
L 2450 4666 
L 2450 531 
L 3481 531 
L 3481 0 
L 794 0 
L 794 531 
z
" id="DejaVuSans-31" transform="scale(0.015625)"/>
       </defs>
       <use xlink:href="#DejaVuSans-31"/>
       <use x="63.623047" xlink:href="#DejaVuSans-2e"/>
       <use x="95.410156" xlink:href="#DejaVuSans-30"/>
      </g>
     </g>
    </g>
    <g id="xtick_6">
     <g id="line2d_11">
      <path clip-path="url(#pd86d8285e5)" d="M 358.171787 320.4 
L 358.171787 43.2 
" style="fill:none;stroke:#b0b0b0;stroke-linecap:square;stroke-width:0.8;"/>
     </g>
     <g id="line2d_12">
      <g>
       <use style="stroke:#000000;stroke-width:0.8;" x="358.171787" xlink:href="#md6373dd609" y="320.4"/>
      </g>
     </g>
     <g id="text_6">
      <!-- 1.2 -->
      <g transform="translate(350.220224 334.998438)scale(0.1 -0.1)">
       <use xlink:href="#DejaVuSans-31"/>
       <use x="63.623047" xlink:href="#DejaVuSans-2e"/>
       <use x="95.410156" xlink:href="#DejaVuSans-32"/>
      </g>
     </g>
    </g>
    <g id="xtick_7">
     <g id="line2d_13">
      <path clip-path="url(#pd86d8285e5)" d="M 414.146708 320.4 
L 414.146708 43.2 
" style="fill:none;stroke:#b0b0b0;stroke-linecap:square;stroke-width:0.8;"/>
     </g>
     <g id="line2d_14">
      <g>
       <use style="stroke:#000000;stroke-width:0.8;" x="414.146708" xlink:href="#md6373dd609" y="320.4"/>
      </g>
     </g>
     <g id="text_7">
      <!-- 1.4 -->
      <g transform="translate(406.195146 334.998438)scale(0.1 -0.1)">
       <use xlink:href="#DejaVuSans-31"/>
       <use x="63.623047" xlink:href="#DejaVuSans-2e"/>
       <use x="95.410156" xlink:href="#DejaVuSans-34"/>
      </g>
     </g>
    </g>
    <g id="xtick_8">
     <g id="line2d_15">
      <path clip-path="url(#pd86d8285e5)" d="M 470.12163 320.4 
L 470.12163 43.2 
" style="fill:none;stroke:#b0b0b0;stroke-linecap:square;stroke-width:0.8;"/>
     </g>
     <g id="line2d_16">
      <g>
       <use style="stroke:#000000;stroke-width:0.8;" x="470.12163" xlink:href="#md6373dd609" y="320.4"/>
      </g>
     </g>
     <g id="text_8">
      <!-- 1.6 -->
      <g transform="translate(462.170068 334.998438)scale(0.1 -0.1)">
       <use xlink:href="#DejaVuSans-31"/>
       <use x="63.623047" xlink:href="#DejaVuSans-2e"/>
       <use x="95.410156" xlink:href="#DejaVuSans-36"/>
      </g>
     </g>
    </g>
    <g id="text_9">
     <!-- Temperature -->
     <g transform="translate(263.530469 348.676562)scale(0.1 -0.1)">
      <defs>
       <path d="M -19 4666 
L 3928 4666 
L 3928 4134 
L 2272 4134 
L 2272 0 
L 1638 0 
L 1638 4134 
L -19 4134 
L -19 4666 
z
" id="DejaVuSans-54" transform="scale(0.015625)"/>
       <path d="M 3597 1894 
L 3597 1613 
L 953 1613 
Q 991 1019 1311 708 
Q 1631 397 2203 397 
Q 2534 397 2845 478 
Q 3156 559 3463 722 
L 3463 178 
Q 3153 47 2828 -22 
Q 2503 -91 2169 -91 
Q 1331 -91 842 396 
Q 353 884 353 1716 
Q 353 2575 817 3079 
Q 1281 3584 2069 3584 
Q 2775 3584 3186 3129 
Q 3597 2675 3597 1894 
z
M 3022 2063 
Q 3016 2534 2758 2815 
Q 2500 3097 2075 3097 
Q 1594 3097 1305 2825 
Q 1016 2553 972 2059 
L 3022 2063 
z
" id="DejaVuSans-65" transform="scale(0.015625)"/>
       <path d="M 3328 2828 
Q 3544 3216 3844 3400 
Q 4144 3584 4550 3584 
Q 5097 3584 5394 3201 
Q 5691 2819 5691 2113 
L 5691 0 
L 5113 0 
L 5113 2094 
Q 5113 2597 4934 2840 
Q 4756 3084 4391 3084 
Q 3944 3084 3684 2787 
Q 3425 2491 3425 1978 
L 3425 0 
L 2847 0 
L 2847 2094 
Q 2847 2600 2669 2842 
Q 2491 3084 2119 3084 
Q 1678 3084 1418 2786 
Q 1159 2488 1159 1978 
L 1159 0 
L 581 0 
L 581 3500 
L 1159 3500 
L 1159 2956 
Q 1356 3278 1631 3431 
Q 1906 3584 2284 3584 
Q 2666 3584 2933 3390 
Q 3200 3197 3328 2828 
z
" id="DejaVuSans-6d" transform="scale(0.015625)"/>
       <path d="M 1159 525 
L 1159 -1331 
L 581 -1331 
L 581 3500 
L 1159 3500 
L 1159 2969 
Q 1341 3281 1617 3432 
Q 1894 3584 2278 3584 
Q 2916 3584 3314 3078 
Q 3713 2572 3713 1747 
Q 3713 922 3314 415 
Q 2916 -91 2278 -91 
Q 1894 -91 1617 61 
Q 1341 213 1159 525 
z
M 3116 1747 
Q 3116 2381 2855 2742 
Q 2594 3103 2138 3103 
Q 1681 3103 1420 2742 
Q 1159 2381 1159 1747 
Q 1159 1113 1420 752 
Q 1681 391 2138 391 
Q 2594 391 2855 752 
Q 3116 1113 3116 1747 
z
" id="DejaVuSans-70" transform="scale(0.015625)"/>
       <path d="M 2631 2963 
Q 2534 3019 2420 3045 
Q 2306 3072 2169 3072 
Q 1681 3072 1420 2755 
Q 1159 2438 1159 1844 
L 1159 0 
L 581 0 
L 581 3500 
L 1159 3500 
L 1159 2956 
Q 1341 3275 1631 3429 
Q 1922 3584 2338 3584 
Q 2397 3584 2469 3576 
Q 2541 3569 2628 3553 
L 2631 2963 
z
" id="DejaVuSans-72" transform="scale(0.015625)"/>
       <path d="M 2194 1759 
Q 1497 1759 1228 1600 
Q 959 1441 959 1056 
Q 959 750 1161 570 
Q 1363 391 1709 391 
Q 2188 391 2477 730 
Q 2766 1069 2766 1631 
L 2766 1759 
L 2194 1759 
z
M 3341 1997 
L 3341 0 
L 2766 0 
L 2766 531 
Q 2569 213 2275 61 
Q 1981 -91 1556 -91 
Q 1019 -91 701 211 
Q 384 513 384 1019 
Q 384 1609 779 1909 
Q 1175 2209 1959 2209 
L 2766 2209 
L 2766 2266 
Q 2766 2663 2505 2880 
Q 2244 3097 1772 3097 
Q 1472 3097 1187 3025 
Q 903 2953 641 2809 
L 641 3341 
Q 956 3463 1253 3523 
Q 1550 3584 1831 3584 
Q 2591 3584 2966 3190 
Q 3341 2797 3341 1997 
z
" id="DejaVuSans-61" transform="scale(0.015625)"/>
       <path d="M 1172 4494 
L 1172 3500 
L 2356 3500 
L 2356 3053 
L 1172 3053 
L 1172 1153 
Q 1172 725 1289 603 
Q 1406 481 1766 481 
L 2356 481 
L 2356 0 
L 1766 0 
Q 1100 0 847 248 
Q 594 497 594 1153 
L 594 3053 
L 172 3053 
L 172 3500 
L 594 3500 
L 594 4494 
L 1172 4494 
z
" id="DejaVuSans-74" transform="scale(0.015625)"/>
       <path d="M 544 1381 
L 544 3500 
L 1119 3500 
L 1119 1403 
Q 1119 906 1312 657 
Q 1506 409 1894 409 
Q 2359 409 2629 706 
Q 2900 1003 2900 1516 
L 2900 3500 
L 3475 3500 
L 3475 0 
L 2900 0 
L 2900 538 
Q 2691 219 2414 64 
Q 2138 -91 1772 -91 
Q 1169 -91 856 284 
Q 544 659 544 1381 
z
M 1991 3584 
L 1991 3584 
z
" id="DejaVuSans-75" transform="scale(0.015625)"/>
      </defs>
      <use xlink:href="#DejaVuSans-54"/>
      <use x="44.083984" xlink:href="#DejaVuSans-65"/>
      <use x="105.607422" xlink:href="#DejaVuSans-6d"/>
      <use x="203.019531" xlink:href="#DejaVuSans-70"/>
      <use x="266.496094" xlink:href="#DejaVuSans-65"/>
      <use x="328.019531" xlink:href="#DejaVuSans-72"/>
      <use x="369.132812" xlink:href="#DejaVuSans-61"/>
      <use x="430.412109" xlink:href="#DejaVuSans-74"/>
      <use x="469.621094" xlink:href="#DejaVuSans-75"/>
      <use x="533" xlink:href="#DejaVuSans-72"/>
      <use x="571.863281" xlink:href="#DejaVuSans-65"/>
     </g>
    </g>
   </g>
   <g id="matplotlib.axis_2">
    <g id="ytick_1">
     <g id="line2d_17">
      <path clip-path="url(#pd86d8285e5)" d="M 72 276.585027 
L 518.4 276.585027 
" style="fill:none;stroke:#b0b0b0;stroke-linecap:square;stroke-width:0.8;"/>
     </g>
     <g id="line2d_18">
      <defs>
       <path d="M 0 0 
L -3.5 0 
" id="m6a29babd9e" style="stroke:#000000;stroke-width:0.8;"/>
      </defs>
      <g>
       <use style="stroke:#000000;stroke-width:0.8;" x="72" xlink:href="#m6a29babd9e" y="276.585027"/>
      </g>
     </g>
     <g id="text_10">
      <!-- 0.02 -->
      <g transform="translate(42.734375 280.384246)scale(0.1 -0.1)">
       <use xlink:href="#DejaVuSans-30"/>
       <use x="63.623047" xlink:href="#DejaVuSans-2e"/>
       <use x="95.410156" xlink:href="#DejaVuSans-30"/>
       <use x="159.033203" xlink:href="#DejaVuSans-32"/>
      </g>
     </g>
    </g>
    <g id="ytick_2">
     <g id="line2d_19">
      <path clip-path="url(#pd86d8285e5)" d="M 72 223.478217 
L 518.4 223.478217 
" style="fill:none;stroke:#b0b0b0;stroke-linecap:square;stroke-width:0.8;"/>
     </g>
     <g id="line2d_20">
      <g>
       <use style="stroke:#000000;stroke-width:0.8;" x="72" xlink:href="#m6a29babd9e" y="223.478217"/>
      </g>
     </g>
     <g id="text_11">
      <!-- 0.04 -->
      <g transform="translate(42.734375 227.277436)scale(0.1 -0.1)">
       <use xlink:href="#DejaVuSans-30"/>
       <use x="63.623047" xlink:href="#DejaVuSans-2e"/>
       <use x="95.410156" xlink:href="#DejaVuSans-30"/>
       <use x="159.033203" xlink:href="#DejaVuSans-34"/>
      </g>
     </g>
    </g>
    <g id="ytick_3">
     <g id="line2d_21">
      <path clip-path="url(#pd86d8285e5)" d="M 72 170.371406 
L 518.4 170.371406 
" style="fill:none;stroke:#b0b0b0;stroke-linecap:square;stroke-width:0.8;"/>
     </g>
     <g id="line2d_22">
      <g>
       <use style="stroke:#000000;stroke-width:0.8;" x="72" xlink:href="#m6a29babd9e" y="170.371406"/>
      </g>
     </g>
     <g id="text_12">
      <!-- 0.06 -->
      <g transform="translate(42.734375 174.170625)scale(0.1 -0.1)">
       <use xlink:href="#DejaVuSans-30"/>
       <use x="63.623047" xlink:href="#DejaVuSans-2e"/>
       <use x="95.410156" xlink:href="#DejaVuSans-30"/>
       <use x="159.033203" xlink:href="#DejaVuSans-36"/>
      </g>
     </g>
    </g>
    <g id="ytick_4">
     <g id="line2d_23">
      <path clip-path="url(#pd86d8285e5)" d="M 72 117.264596 
L 518.4 117.264596 
" style="fill:none;stroke:#b0b0b0;stroke-linecap:square;stroke-width:0.8;"/>
     </g>
     <g id="line2d_24">
      <g>
       <use style="stroke:#000000;stroke-width:0.8;" x="72" xlink:href="#m6a29babd9e" y="117.264596"/>
      </g>
     </g>
     <g id="text_13">
      <!-- 0.08 -->
      <g transform="translate(42.734375 121.063814)scale(0.1 -0.1)">
       <use xlink:href="#DejaVuSans-30"/>
       <use x="63.623047" xlink:href="#DejaVuSans-2e"/>
       <use x="95.410156" xlink:href="#DejaVuSans-30"/>
       <use x="159.033203" xlink:href="#DejaVuSans-38"/>
      </g>
     </g>
    </g>
    <g id="ytick_5">
     <g id="line2d_25">
      <path clip-path="url(#pd86d8285e5)" d="M 72 64.157785 
L 518.4 64.157785 
" style="fill:none;stroke:#b0b0b0;stroke-linecap:square;stroke-width:0.8;"/>
     </g>
     <g id="line2d_26">
      <g>
       <use style="stroke:#000000;stroke-width:0.8;" x="72" xlink:href="#m6a29babd9e" y="64.157785"/>
      </g>
     </g>
     <g id="text_14">
      <!-- 0.10 -->
      <g transform="translate(42.734375 67.957004)scale(0.1 -0.1)">
       <use xlink:href="#DejaVuSans-30"/>
       <use x="63.623047" xlink:href="#DejaVuSans-2e"/>
       <use x="95.410156" xlink:href="#DejaVuSans-31"/>
       <use x="159.033203" xlink:href="#DejaVuSans-30"/>
      </g>
     </g>
    </g>
    <g id="text_15">
     <!-- $c_v$ -->
     <g transform="translate(36.654688 186.8)rotate(-90)scale(0.1 -0.1)">
      <defs>
       <path d="M 3431 3366 
L 3316 2797 
Q 3109 2947 2876 3022 
Q 2644 3097 2394 3097 
Q 2119 3097 1870 3000 
Q 1622 2903 1453 2725 
Q 1184 2453 1037 2087 
Q 891 1722 891 1331 
Q 891 859 1127 628 
Q 1363 397 1844 397 
Q 2081 397 2348 469 
Q 2616 541 2906 684 
L 2797 116 
Q 2547 13 2283 -39 
Q 2019 -91 1741 -91 
Q 1044 -91 669 257 
Q 294 606 294 1253 
Q 294 1797 489 2255 
Q 684 2713 1069 3078 
Q 1331 3328 1684 3456 
Q 2038 3584 2456 3584 
Q 2700 3584 2940 3529 
Q 3181 3475 3431 3366 
z
" id="DejaVuSans-Oblique-63" transform="scale(0.015625)"/>
       <path d="M 459 3500 
L 1069 3500 
L 1581 525 
L 3256 3500 
L 3866 3500 
L 1875 0 
L 1100 0 
L 459 3500 
z
" id="DejaVuSans-Oblique-76" transform="scale(0.015625)"/>
      </defs>
      <use xlink:href="#DejaVuSans-Oblique-63"/>
      <use transform="translate(54.980469 -16.40625)scale(0.7)" xlink:href="#DejaVuSans-Oblique-76"/>
     </g>
    </g>
   </g>
   <g id="line2d_27">
    <path clip-path="url(#pd86d8285e5)" d="M 92.290909 150.414277 
L 106.284639 142.898484 
L 120.27837 154.791328 
L 134.2721 137.438297 
L 148.265831 142.536027 
L 162.259561 129.250342 
L 176.253292 105.016313 
L 190.247022 55.8 
L 204.240752 80.474993 
L 218.234483 61.895885 
L 232.228213 59.839889 
L 246.221944 75.77697 
L 260.215674 121.500113 
L 274.209404 147.354126 
L 288.203135 150.165009 
L 302.196865 178.905661 
L 316.190596 199.729606 
L 330.184326 214.461323 
L 344.178056 229.67143 
L 358.171787 231.541735 
L 372.165517 234.510874 
L 386.159248 246.607957 
L 400.152978 255.901076 
L 414.146708 263.532006 
L 428.140439 270.119054 
L 442.134169 273.414404 
L 456.1279 271.63959 
L 470.12163 273.4762 
L 484.115361 282.093886 
L 498.109091 282.319457 
" style="fill:none;stroke:#1f77b4;stroke-dasharray:1.5,2.475;stroke-dashoffset:0;stroke-width:1.5;"/>
    <defs>
     <path d="M 0 1.5 
C 0.397805 1.5 0.77937 1.341951 1.06066 1.06066 
C 1.341951 0.77937 1.5 0.397805 1.5 0 
C 1.5 -0.397805 1.341951 -0.77937 1.06066 -1.06066 
C 0.77937 -1.341951 0.397805 -1.5 0 -1.5 
C -0.397805 -1.5 -0.77937 -1.341951 -1.06066 -1.06066 
C -1.341951 -0.77937 -1.5 -0.397805 -1.5 0 
C -1.5 0.397805 -1.341951 0.77937 -1.06066 1.06066 
C -0.77937 1.341951 -0.397805 1.5 0 1.5 
z
" id="m55eb85e6e9" style="stroke:#1f77b4;"/>
    </defs>
    <g clip-path="url(#pd86d8285e5)">
     <use style="fill:#1f77b4;stroke:#1f77b4;" x="92.290909" xlink:href="#m55eb85e6e9" y="150.414277"/>
     <use style="fill:#1f77b4;stroke:#1f77b4;" x="106.284639" xlink:href="#m55eb85e6e9" y="142.898484"/>
     <use style="fill:#1f77b4;stroke:#1f77b4;" x="120.27837" xlink:href="#m55eb85e6e9" y="154.791328"/>
     <use style="fill:#1f77b4;stroke:#1f77b4;" x="134.2721" xlink:href="#m55eb85e6e9" y="137.438297"/>
     <use style="fill:#1f77b4;stroke:#1f77b4;" x="148.265831" xlink:href="#m55eb85e6e9" y="142.536027"/>
     <use style="fill:#1f77b4;stroke:#1f77b4;" x="162.259561" xlink:href="#m55eb85e6e9" y="129.250342"/>
     <use style="fill:#1f77b4;stroke:#1f77b4;" x="176.253292" xlink:href="#m55eb85e6e9" y="105.016313"/>
     <use style="fill:#1f77b4;stroke:#1f77b4;" x="190.247022" xlink:href="#m55eb85e6e9" y="55.8"/>
     <use style="fill:#1f77b4;stroke:#1f77b4;" x="204.240752" xlink:href="#m55eb85e6e9" y="80.474993"/>
     <use style="fill:#1f77b4;stroke:#1f77b4;" x="218.234483" xlink:href="#m55eb85e6e9" y="61.895885"/>
     <use style="fill:#1f77b4;stroke:#1f77b4;" x="232.228213" xlink:href="#m55eb85e6e9" y="59.839889"/>
     <use style="fill:#1f77b4;stroke:#1f77b4;" x="246.221944" xlink:href="#m55eb85e6e9" y="75.77697"/>
     <use style="fill:#1f77b4;stroke:#1f77b4;" x="260.215674" xlink:href="#m55eb85e6e9" y="121.500113"/>
     <use style="fill:#1f77b4;stroke:#1f77b4;" x="274.209404" xlink:href="#m55eb85e6e9" y="147.354126"/>
     <use style="fill:#1f77b4;stroke:#1f77b4;" x="288.203135" xlink:href="#m55eb85e6e9" y="150.165009"/>
     <use style="fill:#1f77b4;stroke:#1f77b4;" x="302.196865" xlink:href="#m55eb85e6e9" y="178.905661"/>
     <use style="fill:#1f77b4;stroke:#1f77b4;" x="316.190596" xlink:href="#m55eb85e6e9" y="199.729606"/>
     <use style="fill:#1f77b4;stroke:#1f77b4;" x="330.184326" xlink:href="#m55eb85e6e9" y="214.461323"/>
     <use style="fill:#1f77b4;stroke:#1f77b4;" x="344.178056" xlink:href="#m55eb85e6e9" y="229.67143"/>
     <use style="fill:#1f77b4;stroke:#1f77b4;" x="358.171787" xlink:href="#m55eb85e6e9" y="231.541735"/>
     <use style="fill:#1f77b4;stroke:#1f77b4;" x="372.165517" xlink:href="#m55eb85e6e9" y="234.510874"/>
     <use style="fill:#1f77b4;stroke:#1f77b4;" x="386.159248" xlink:href="#m55eb85e6e9" y="246.607957"/>
     <use style="fill:#1f77b4;stroke:#1f77b4;" x="400.152978" xlink:href="#m55eb85e6e9" y="255.901076"/>
     <use style="fill:#1f77b4;stroke:#1f77b4;" x="414.146708" xlink:href="#m55eb85e6e9" y="263.532006"/>
     <use style="fill:#1f77b4;stroke:#1f77b4;" x="428.140439" xlink:href="#m55eb85e6e9" y="270.119054"/>
     <use style="fill:#1f77b4;stroke:#1f77b4;" x="442.134169" xlink:href="#m55eb85e6e9" y="273.414404"/>
     <use style="fill:#1f77b4;stroke:#1f77b4;" x="456.1279" xlink:href="#m55eb85e6e9" y="271.63959"/>
     <use style="fill:#1f77b4;stroke:#1f77b4;" x="470.12163" xlink:href="#m55eb85e6e9" y="273.4762"/>
     <use style="fill:#1f77b4;stroke:#1f77b4;" x="484.115361" xlink:href="#m55eb85e6e9" y="282.093886"/>
     <use style="fill:#1f77b4;stroke:#1f77b4;" x="498.109091" xlink:href="#m55eb85e6e9" y="282.319457"/>
    </g>
   </g>
   <g id="line2d_28">
    <path clip-path="url(#pd86d8285e5)" d="M 92.290909 184.450155 
L 106.284639 189.331818 
L 120.27837 179.688973 
L 134.2721 176.719201 
L 148.265831 182.279573 
L 162.259561 167.103938 
L 176.253292 148.208883 
L 190.247022 131.752151 
L 204.240752 109.935453 
L 218.234483 84.652771 
L 232.228213 123.110609 
L 246.221944 132.814138 
L 260.215674 158.736274 
L 274.209404 184.715484 
L 288.203135 189.421586 
L 302.196865 216.444728 
L 316.190596 221.372805 
L 330.184326 231.481011 
L 344.178056 239.293558 
L 358.171787 247.546837 
L 372.165517 256.225167 
L 386.159248 264.211646 
L 400.152978 267.764499 
L 414.146708 274.07162 
L 428.140439 279.182761 
L 442.134169 281.939937 
L 456.1279 286.905861 
L 470.12163 291.005218 
L 484.115361 293.748642 
L 498.109091 294.396912 
" style="fill:none;stroke:#ff7f0e;stroke-dasharray:1.5,2.475;stroke-dashoffset:0;stroke-width:1.5;"/>
    <defs>
     <path d="M 0 1.5 
C 0.397805 1.5 0.77937 1.341951 1.06066 1.06066 
C 1.341951 0.77937 1.5 0.397805 1.5 0 
C 1.5 -0.397805 1.341951 -0.77937 1.06066 -1.06066 
C 0.77937 -1.341951 0.397805 -1.5 0 -1.5 
C -0.397805 -1.5 -0.77937 -1.341951 -1.06066 -1.06066 
C -1.341951 -0.77937 -1.5 -0.397805 -1.5 0 
C -1.5 0.397805 -1.341951 0.77937 -1.06066 1.06066 
C -0.77937 1.341951 -0.397805 1.5 0 1.5 
z
" id="m3d76db1b24" style="stroke:#ff7f0e;"/>
    </defs>
    <g clip-path="url(#pd86d8285e5)">
     <use style="fill:#ff7f0e;stroke:#ff7f0e;" x="92.290909" xlink:href="#m3d76db1b24" y="184.450155"/>
     <use style="fill:#ff7f0e;stroke:#ff7f0e;" x="106.284639" xlink:href="#m3d76db1b24" y="189.331818"/>
     <use style="fill:#ff7f0e;stroke:#ff7f0e;" x="120.27837" xlink:href="#m3d76db1b24" y="179.688973"/>
     <use style="fill:#ff7f0e;stroke:#ff7f0e;" x="134.2721" xlink:href="#m3d76db1b24" y="176.719201"/>
     <use style="fill:#ff7f0e;stroke:#ff7f0e;" x="148.265831" xlink:href="#m3d76db1b24" y="182.279573"/>
     <use style="fill:#ff7f0e;stroke:#ff7f0e;" x="162.259561" xlink:href="#m3d76db1b24" y="167.103938"/>
     <use style="fill:#ff7f0e;stroke:#ff7f0e;" x="176.253292" xlink:href="#m3d76db1b24" y="148.208883"/>
     <use style="fill:#ff7f0e;stroke:#ff7f0e;" x="190.247022" xlink:href="#m3d76db1b24" y="131.752151"/>
     <use style="fill:#ff7f0e;stroke:#ff7f0e;" x="204.240752" xlink:href="#m3d76db1b24" y="109.935453"/>
     <use style="fill:#ff7f0e;stroke:#ff7f0e;" x="218.234483" xlink:href="#m3d76db1b24" y="84.652771"/>
     <use style="fill:#ff7f0e;stroke:#ff7f0e;" x="232.228213" xlink:href="#m3d76db1b24" y="123.110609"/>
     <use style="fill:#ff7f0e;stroke:#ff7f0e;" x="246.221944" xlink:href="#m3d76db1b24" y="132.814138"/>
     <use style="fill:#ff7f0e;stroke:#ff7f0e;" x="260.215674" xlink:href="#m3d76db1b24" y="158.736274"/>
     <use style="fill:#ff7f0e;stroke:#ff7f0e;" x="274.209404" xlink:href="#m3d76db1b24" y="184.715484"/>
     <use style="fill:#ff7f0e;stroke:#ff7f0e;" x="288.203135" xlink:href="#m3d76db1b24" y="189.421586"/>
     <use style="fill:#ff7f0e;stroke:#ff7f0e;" x="302.196865" xlink:href="#m3d76db1b24" y="216.444728"/>
     <use style="fill:#ff7f0e;stroke:#ff7f0e;" x="316.190596" xlink:href="#m3d76db1b24" y="221.372805"/>
     <use style="fill:#ff7f0e;stroke:#ff7f0e;" x="330.184326" xlink:href="#m3d76db1b24" y="231.481011"/>
     <use style="fill:#ff7f0e;stroke:#ff7f0e;" x="344.178056" xlink:href="#m3d76db1b24" y="239.293558"/>
     <use style="fill:#ff7f0e;stroke:#ff7f0e;" x="358.171787" xlink:href="#m3d76db1b24" y="247.546837"/>
     <use style="fill:#ff7f0e;stroke:#ff7f0e;" x="372.165517" xlink:href="#m3d76db1b24" y="256.225167"/>
     <use style="fill:#ff7f0e;stroke:#ff7f0e;" x="386.159248" xlink:href="#m3d76db1b24" y="264.211646"/>
     <use style="fill:#ff7f0e;stroke:#ff7f0e;" x="400.152978" xlink:href="#m3d76db1b24" y="267.764499"/>
     <use style="fill:#ff7f0e;stroke:#ff7f0e;" x="414.146708" xlink:href="#m3d76db1b24" y="274.07162"/>
     <use style="fill:#ff7f0e;stroke:#ff7f0e;" x="428.140439" xlink:href="#m3d76db1b24" y="279.182761"/>
     <use style="fill:#ff7f0e;stroke:#ff7f0e;" x="442.134169" xlink:href="#m3d76db1b24" y="281.939937"/>
     <use style="fill:#ff7f0e;stroke:#ff7f0e;" x="456.1279" xlink:href="#m3d76db1b24" y="286.905861"/>
     <use style="fill:#ff7f0e;stroke:#ff7f0e;" x="470.12163" xlink:href="#m3d76db1b24" y="291.005218"/>
     <use style="fill:#ff7f0e;stroke:#ff7f0e;" x="484.115361" xlink:href="#m3d76db1b24" y="293.748642"/>
     <use style="fill:#ff7f0e;stroke:#ff7f0e;" x="498.109091" xlink:href="#m3d76db1b24" y="294.396912"/>
    </g>
   </g>
   <g id="line2d_29">
    <path clip-path="url(#pd86d8285e5)" d="M 92.290909 212.722671 
L 106.284639 207.710848 
L 120.27837 210.395957 
L 134.2721 194.984429 
L 148.265831 193.706953 
L 162.259561 181.730431 
L 176.253292 183.111864 
L 190.247022 142.732459 
L 204.240752 134.65042 
L 218.234483 152.094604 
L 232.228213 129.174282 
L 246.221944 162.669734 
L 260.215674 182.897308 
L 274.209404 198.829871 
L 288.203135 216.603107 
L 302.196865 234.382404 
L 316.190596 237.102641 
L 330.184326 248.899547 
L 344.178056 260.801524 
L 358.171787 261.719867 
L 372.165517 276.406693 
L 386.159248 277.331467 
L 400.152978 276.829269 
L 414.146708 284.846553 
L 428.140439 287.121902 
L 442.134169 291.282978 
L 456.1279 295.321378 
L 470.12163 295.860223 
L 484.115361 298.864389 
L 498.109091 300.701415 
" style="fill:none;stroke:#2ca02c;stroke-dasharray:1.5,2.475;stroke-dashoffset:0;stroke-width:1.5;"/>
    <defs>
     <path d="M 0 1.5 
C 0.397805 1.5 0.77937 1.341951 1.06066 1.06066 
C 1.341951 0.77937 1.5 0.397805 1.5 0 
C 1.5 -0.397805 1.341951 -0.77937 1.06066 -1.06066 
C 0.77937 -1.341951 0.397805 -1.5 0 -1.5 
C -0.397805 -1.5 -0.77937 -1.341951 -1.06066 -1.06066 
C -1.341951 -0.77937 -1.5 -0.397805 -1.5 0 
C -1.5 0.397805 -1.341951 0.77937 -1.06066 1.06066 
C -0.77937 1.341951 -0.397805 1.5 0 1.5 
z
" id="m1ee3d90aa0" style="stroke:#2ca02c;"/>
    </defs>
    <g clip-path="url(#pd86d8285e5)">
     <use style="fill:#2ca02c;stroke:#2ca02c;" x="92.290909" xlink:href="#m1ee3d90aa0" y="212.722671"/>
     <use style="fill:#2ca02c;stroke:#2ca02c;" x="106.284639" xlink:href="#m1ee3d90aa0" y="207.710848"/>
     <use style="fill:#2ca02c;stroke:#2ca02c;" x="120.27837" xlink:href="#m1ee3d90aa0" y="210.395957"/>
     <use style="fill:#2ca02c;stroke:#2ca02c;" x="134.2721" xlink:href="#m1ee3d90aa0" y="194.984429"/>
     <use style="fill:#2ca02c;stroke:#2ca02c;" x="148.265831" xlink:href="#m1ee3d90aa0" y="193.706953"/>
     <use style="fill:#2ca02c;stroke:#2ca02c;" x="162.259561" xlink:href="#m1ee3d90aa0" y="181.730431"/>
     <use style="fill:#2ca02c;stroke:#2ca02c;" x="176.253292" xlink:href="#m1ee3d90aa0" y="183.111864"/>
     <use style="fill:#2ca02c;stroke:#2ca02c;" x="190.247022" xlink:href="#m1ee3d90aa0" y="142.732459"/>
     <use style="fill:#2ca02c;stroke:#2ca02c;" x="204.240752" xlink:href="#m1ee3d90aa0" y="134.65042"/>
     <use style="fill:#2ca02c;stroke:#2ca02c;" x="218.234483" xlink:href="#m1ee3d90aa0" y="152.094604"/>
     <use style="fill:#2ca02c;stroke:#2ca02c;" x="232.228213" xlink:href="#m1ee3d90aa0" y="129.174282"/>
     <use style="fill:#2ca02c;stroke:#2ca02c;" x="246.221944" xlink:href="#m1ee3d90aa0" y="162.669734"/>
     <use style="fill:#2ca02c;stroke:#2ca02c;" x="260.215674" xlink:href="#m1ee3d90aa0" y="182.897308"/>
     <use style="fill:#2ca02c;stroke:#2ca02c;" x="274.209404" xlink:href="#m1ee3d90aa0" y="198.829871"/>
     <use style="fill:#2ca02c;stroke:#2ca02c;" x="288.203135" xlink:href="#m1ee3d90aa0" y="216.603107"/>
     <use style="fill:#2ca02c;stroke:#2ca02c;" x="302.196865" xlink:href="#m1ee3d90aa0" y="234.382404"/>
     <use style="fill:#2ca02c;stroke:#2ca02c;" x="316.190596" xlink:href="#m1ee3d90aa0" y="237.102641"/>
     <use style="fill:#2ca02c;stroke:#2ca02c;" x="330.184326" xlink:href="#m1ee3d90aa0" y="248.899547"/>
     <use style="fill:#2ca02c;stroke:#2ca02c;" x="344.178056" xlink:href="#m1ee3d90aa0" y="260.801524"/>
     <use style="fill:#2ca02c;stroke:#2ca02c;" x="358.171787" xlink:href="#m1ee3d90aa0" y="261.719867"/>
     <use style="fill:#2ca02c;stroke:#2ca02c;" x="372.165517" xlink:href="#m1ee3d90aa0" y="276.406693"/>
     <use style="fill:#2ca02c;stroke:#2ca02c;" x="386.159248" xlink:href="#m1ee3d90aa0" y="277.331467"/>
     <use style="fill:#2ca02c;stroke:#2ca02c;" x="400.152978" xlink:href="#m1ee3d90aa0" y="276.829269"/>
     <use style="fill:#2ca02c;stroke:#2ca02c;" x="414.146708" xlink:href="#m1ee3d90aa0" y="284.846553"/>
     <use style="fill:#2ca02c;stroke:#2ca02c;" x="428.140439" xlink:href="#m1ee3d90aa0" y="287.121902"/>
     <use style="fill:#2ca02c;stroke:#2ca02c;" x="442.134169" xlink:href="#m1ee3d90aa0" y="291.282978"/>
     <use style="fill:#2ca02c;stroke:#2ca02c;" x="456.1279" xlink:href="#m1ee3d90aa0" y="295.321378"/>
     <use style="fill:#2ca02c;stroke:#2ca02c;" x="470.12163" xlink:href="#m1ee3d90aa0" y="295.860223"/>
     <use style="fill:#2ca02c;stroke:#2ca02c;" x="484.115361" xlink:href="#m1ee3d90aa0" y="298.864389"/>
     <use style="fill:#2ca02c;stroke:#2ca02c;" x="498.109091" xlink:href="#m1ee3d90aa0" y="300.701415"/>
    </g>
   </g>
   <g id="line2d_30">
    <path clip-path="url(#pd86d8285e5)" d="M 92.290909 238.545614 
L 106.284639 224.258002 
L 120.27837 225.823327 
L 134.2721 227.731655 
L 148.265831 219.77908 
L 162.259561 222.898605 
L 176.253292 198.571275 
L 190.247022 163.383437 
L 204.240752 193.900288 
L 218.234483 153.208027 
L 232.228213 192.729518 
L 246.221944 205.449313 
L 260.215674 200.662762 
L 274.209404 214.400155 
L 288.203135 227.033728 
L 302.196865 241.043624 
L 316.190596 255.793062 
L 330.184326 263.516621 
L 344.178056 265.991218 
L 358.171787 275.256245 
L 372.165517 281.408995 
L 386.159248 282.054804 
L 400.152978 286.153052 
L 414.146708 290.394135 
L 428.140439 294.175235 
L 442.134169 294.423724 
L 456.1279 297.086122 
L 470.12163 300.472132 
L 484.115361 302.173916 
L 498.109091 303.917817 
" style="fill:none;stroke:#d62728;stroke-dasharray:1.5,2.475;stroke-dashoffset:0;stroke-width:1.5;"/>
    <defs>
     <path d="M 0 1.5 
C 0.397805 1.5 0.77937 1.341951 1.06066 1.06066 
C 1.341951 0.77937 1.5 0.397805 1.5 0 
C 1.5 -0.397805 1.341951 -0.77937 1.06066 -1.06066 
C 0.77937 -1.341951 0.397805 -1.5 0 -1.5 
C -0.397805 -1.5 -0.77937 -1.341951 -1.06066 -1.06066 
C -1.341951 -0.77937 -1.5 -0.397805 -1.5 0 
C -1.5 0.397805 -1.341951 0.77937 -1.06066 1.06066 
C -0.77937 1.341951 -0.397805 1.5 0 1.5 
z
" id="m874f3e22b6" style="stroke:#d62728;"/>
    </defs>
    <g clip-path="url(#pd86d8285e5)">
     <use style="fill:#d62728;stroke:#d62728;" x="92.290909" xlink:href="#m874f3e22b6" y="238.545614"/>
     <use style="fill:#d62728;stroke:#d62728;" x="106.284639" xlink:href="#m874f3e22b6" y="224.258002"/>
     <use style="fill:#d62728;stroke:#d62728;" x="120.27837" xlink:href="#m874f3e22b6" y="225.823327"/>
     <use style="fill:#d62728;stroke:#d62728;" x="134.2721" xlink:href="#m874f3e22b6" y="227.731655"/>
     <use style="fill:#d62728;stroke:#d62728;" x="148.265831" xlink:href="#m874f3e22b6" y="219.77908"/>
     <use style="fill:#d62728;stroke:#d62728;" x="162.259561" xlink:href="#m874f3e22b6" y="222.898605"/>
     <use style="fill:#d62728;stroke:#d62728;" x="176.253292" xlink:href="#m874f3e22b6" y="198.571275"/>
     <use style="fill:#d62728;stroke:#d62728;" x="190.247022" xlink:href="#m874f3e22b6" y="163.383437"/>
     <use style="fill:#d62728;stroke:#d62728;" x="204.240752" xlink:href="#m874f3e22b6" y="193.900288"/>
     <use style="fill:#d62728;stroke:#d62728;" x="218.234483" xlink:href="#m874f3e22b6" y="153.208027"/>
     <use style="fill:#d62728;stroke:#d62728;" x="232.228213" xlink:href="#m874f3e22b6" y="192.729518"/>
     <use style="fill:#d62728;stroke:#d62728;" x="246.221944" xlink:href="#m874f3e22b6" y="205.449313"/>
     <use style="fill:#d62728;stroke:#d62728;" x="260.215674" xlink:href="#m874f3e22b6" y="200.662762"/>
     <use style="fill:#d62728;stroke:#d62728;" x="274.209404" xlink:href="#m874f3e22b6" y="214.400155"/>
     <use style="fill:#d62728;stroke:#d62728;" x="288.203135" xlink:href="#m874f3e22b6" y="227.033728"/>
     <use style="fill:#d62728;stroke:#d62728;" x="302.196865" xlink:href="#m874f3e22b6" y="241.043624"/>
     <use style="fill:#d62728;stroke:#d62728;" x="316.190596" xlink:href="#m874f3e22b6" y="255.793062"/>
     <use style="fill:#d62728;stroke:#d62728;" x="330.184326" xlink:href="#m874f3e22b6" y="263.516621"/>
     <use style="fill:#d62728;stroke:#d62728;" x="344.178056" xlink:href="#m874f3e22b6" y="265.991218"/>
     <use style="fill:#d62728;stroke:#d62728;" x="358.171787" xlink:href="#m874f3e22b6" y="275.256245"/>
     <use style="fill:#d62728;stroke:#d62728;" x="372.165517" xlink:href="#m874f3e22b6" y="281.408995"/>
     <use style="fill:#d62728;stroke:#d62728;" x="386.159248" xlink:href="#m874f3e22b6" y="282.054804"/>
     <use style="fill:#d62728;stroke:#d62728;" x="400.152978" xlink:href="#m874f3e22b6" y="286.153052"/>
     <use style="fill:#d62728;stroke:#d62728;" x="414.146708" xlink:href="#m874f3e22b6" y="290.394135"/>
     <use style="fill:#d62728;stroke:#d62728;" x="428.140439" xlink:href="#m874f3e22b6" y="294.175235"/>
     <use style="fill:#d62728;stroke:#d62728;" x="442.134169" xlink:href="#m874f3e22b6" y="294.423724"/>
     <use style="fill:#d62728;stroke:#d62728;" x="456.1279" xlink:href="#m874f3e22b6" y="297.086122"/>
     <use style="fill:#d62728;stroke:#d62728;" x="470.12163" xlink:href="#m874f3e22b6" y="300.472132"/>
     <use style="fill:#d62728;stroke:#d62728;" x="484.115361" xlink:href="#m874f3e22b6" y="302.173916"/>
     <use style="fill:#d62728;stroke:#d62728;" x="498.109091" xlink:href="#m874f3e22b6" y="303.917817"/>
    </g>
   </g>
   <g id="line2d_31">
    <path clip-path="url(#pd86d8285e5)" d="M 92.290909 237.33097 
L 106.284639 235.246883 
L 120.27837 230.895724 
L 134.2721 243.310894 
L 148.265831 220.018101 
L 162.259561 217.946323 
L 176.253292 227.27124 
L 190.247022 206.043084 
L 204.240752 190.137001 
L 218.234483 190.639182 
L 232.228213 212.733111 
L 246.221944 216.126512 
L 260.215674 216.524235 
L 274.209404 234.94539 
L 288.203135 250.939293 
L 302.196865 255.029192 
L 316.190596 255.823018 
L 330.184326 270.818179 
L 344.178056 272.44243 
L 358.171787 282.267188 
L 372.165517 283.638701 
L 386.159248 290.595765 
L 400.152978 289.87892 
L 414.146708 293.887596 
L 428.140439 299.534361 
L 442.134169 301.185807 
L 456.1279 305.151723 
L 470.12163 305.018788 
L 484.115361 306.255056 
L 498.109091 307.8 
" style="fill:none;stroke:#9467bd;stroke-dasharray:1.5,2.475;stroke-dashoffset:0;stroke-width:1.5;"/>
    <defs>
     <path d="M 0 1.5 
C 0.397805 1.5 0.77937 1.341951 1.06066 1.06066 
C 1.341951 0.77937 1.5 0.397805 1.5 0 
C 1.5 -0.397805 1.341951 -0.77937 1.06066 -1.06066 
C 0.77937 -1.341951 0.397805 -1.5 0 -1.5 
C -0.397805 -1.5 -0.77937 -1.341951 -1.06066 -1.06066 
C -1.341951 -0.77937 -1.5 -0.397805 -1.5 0 
C -1.5 0.397805 -1.341951 0.77937 -1.06066 1.06066 
C -0.77937 1.341951 -0.397805 1.5 0 1.5 
z
" id="m05e0f394d8" style="stroke:#9467bd;"/>
    </defs>
    <g clip-path="url(#pd86d8285e5)">
     <use style="fill:#9467bd;stroke:#9467bd;" x="92.290909" xlink:href="#m05e0f394d8" y="237.33097"/>
     <use style="fill:#9467bd;stroke:#9467bd;" x="106.284639" xlink:href="#m05e0f394d8" y="235.246883"/>
     <use style="fill:#9467bd;stroke:#9467bd;" x="120.27837" xlink:href="#m05e0f394d8" y="230.895724"/>
     <use style="fill:#9467bd;stroke:#9467bd;" x="134.2721" xlink:href="#m05e0f394d8" y="243.310894"/>
     <use style="fill:#9467bd;stroke:#9467bd;" x="148.265831" xlink:href="#m05e0f394d8" y="220.018101"/>
     <use style="fill:#9467bd;stroke:#9467bd;" x="162.259561" xlink:href="#m05e0f394d8" y="217.946323"/>
     <use style="fill:#9467bd;stroke:#9467bd;" x="176.253292" xlink:href="#m05e0f394d8" y="227.27124"/>
     <use style="fill:#9467bd;stroke:#9467bd;" x="190.247022" xlink:href="#m05e0f394d8" y="206.043084"/>
     <use style="fill:#9467bd;stroke:#9467bd;" x="204.240752" xlink:href="#m05e0f394d8" y="190.137001"/>
     <use style="fill:#9467bd;stroke:#9467bd;" x="218.234483" xlink:href="#m05e0f394d8" y="190.639182"/>
     <use style="fill:#9467bd;stroke:#9467bd;" x="232.228213" xlink:href="#m05e0f394d8" y="212.733111"/>
     <use style="fill:#9467bd;stroke:#9467bd;" x="246.221944" xlink:href="#m05e0f394d8" y="216.126512"/>
     <use style="fill:#9467bd;stroke:#9467bd;" x="260.215674" xlink:href="#m05e0f394d8" y="216.524235"/>
     <use style="fill:#9467bd;stroke:#9467bd;" x="274.209404" xlink:href="#m05e0f394d8" y="234.94539"/>
     <use style="fill:#9467bd;stroke:#9467bd;" x="288.203135" xlink:href="#m05e0f394d8" y="250.939293"/>
     <use style="fill:#9467bd;stroke:#9467bd;" x="302.196865" xlink:href="#m05e0f394d8" y="255.029192"/>
     <use style="fill:#9467bd;stroke:#9467bd;" x="316.190596" xlink:href="#m05e0f394d8" y="255.823018"/>
     <use style="fill:#9467bd;stroke:#9467bd;" x="330.184326" xlink:href="#m05e0f394d8" y="270.818179"/>
     <use style="fill:#9467bd;stroke:#9467bd;" x="344.178056" xlink:href="#m05e0f394d8" y="272.44243"/>
     <use style="fill:#9467bd;stroke:#9467bd;" x="358.171787" xlink:href="#m05e0f394d8" y="282.267188"/>
     <use style="fill:#9467bd;stroke:#9467bd;" x="372.165517" xlink:href="#m05e0f394d8" y="283.638701"/>
     <use style="fill:#9467bd;stroke:#9467bd;" x="386.159248" xlink:href="#m05e0f394d8" y="290.595765"/>
     <use style="fill:#9467bd;stroke:#9467bd;" x="400.152978" xlink:href="#m05e0f394d8" y="289.87892"/>
     <use style="fill:#9467bd;stroke:#9467bd;" x="414.146708" xlink:href="#m05e0f394d8" y="293.887596"/>
     <use style="fill:#9467bd;stroke:#9467bd;" x="428.140439" xlink:href="#m05e0f394d8" y="299.534361"/>
     <use style="fill:#9467bd;stroke:#9467bd;" x="442.134169" xlink:href="#m05e0f394d8" y="301.185807"/>
     <use style="fill:#9467bd;stroke:#9467bd;" x="456.1279" xlink:href="#m05e0f394d8" y="305.151723"/>
     <use style="fill:#9467bd;stroke:#9467bd;" x="470.12163" xlink:href="#m05e0f394d8" y="305.018788"/>
     <use style="fill:#9467bd;stroke:#9467bd;" x="484.115361" xlink:href="#m05e0f394d8" y="306.255056"/>
     <use style="fill:#9467bd;stroke:#9467bd;" x="498.109091" xlink:href="#m05e0f394d8" y="307.8"/>
    </g>
   </g>
   <g id="patch_3">
    <path d="M 72 320.4 
L 72 43.2 
" style="fill:none;stroke:#000000;stroke-linecap:square;stroke-linejoin:miter;stroke-width:0.8;"/>
   </g>
   <g id="patch_4">
    <path d="M 518.4 320.4 
L 518.4 43.2 
" style="fill:none;stroke:#000000;stroke-linecap:square;stroke-linejoin:miter;stroke-width:0.8;"/>
   </g>
   <g id="patch_5">
    <path d="M 72 320.4 
L 518.4 320.4 
" style="fill:none;stroke:#000000;stroke-linecap:square;stroke-linejoin:miter;stroke-width:0.8;"/>
   </g>
   <g id="patch_6">
    <path d="M 72 43.2 
L 518.4 43.2 
" style="fill:none;stroke:#000000;stroke-linecap:square;stroke-linejoin:miter;stroke-width:0.8;"/>
   </g>
   <g id="text_16">
    <!-- Variation of Heat capacity per spin with temperature -->
    <g transform="translate(137.07375 37.2)scale(0.12 -0.12)">
     <defs>
      <path d="M 1831 0 
L 50 4666 
L 709 4666 
L 2188 738 
L 3669 4666 
L 4325 4666 
L 2547 0 
L 1831 0 
z
" id="DejaVuSans-56" transform="scale(0.015625)"/>
      <path d="M 603 3500 
L 1178 3500 
L 1178 0 
L 603 0 
L 603 3500 
z
M 603 4863 
L 1178 4863 
L 1178 4134 
L 603 4134 
L 603 4863 
z
" id="DejaVuSans-69" transform="scale(0.015625)"/>
      <path d="M 1959 3097 
Q 1497 3097 1228 2736 
Q 959 2375 959 1747 
Q 959 1119 1226 758 
Q 1494 397 1959 397 
Q 2419 397 2687 759 
Q 2956 1122 2956 1747 
Q 2956 2369 2687 2733 
Q 2419 3097 1959 3097 
z
M 1959 3584 
Q 2709 3584 3137 3096 
Q 3566 2609 3566 1747 
Q 3566 888 3137 398 
Q 2709 -91 1959 -91 
Q 1206 -91 779 398 
Q 353 888 353 1747 
Q 353 2609 779 3096 
Q 1206 3584 1959 3584 
z
" id="DejaVuSans-6f" transform="scale(0.015625)"/>
      <path d="M 3513 2113 
L 3513 0 
L 2938 0 
L 2938 2094 
Q 2938 2591 2744 2837 
Q 2550 3084 2163 3084 
Q 1697 3084 1428 2787 
Q 1159 2491 1159 1978 
L 1159 0 
L 581 0 
L 581 3500 
L 1159 3500 
L 1159 2956 
Q 1366 3272 1645 3428 
Q 1925 3584 2291 3584 
Q 2894 3584 3203 3211 
Q 3513 2838 3513 2113 
z
" id="DejaVuSans-6e" transform="scale(0.015625)"/>
      <path id="DejaVuSans-20" transform="scale(0.015625)"/>
      <path d="M 2375 4863 
L 2375 4384 
L 1825 4384 
Q 1516 4384 1395 4259 
Q 1275 4134 1275 3809 
L 1275 3500 
L 2222 3500 
L 2222 3053 
L 1275 3053 
L 1275 0 
L 697 0 
L 697 3053 
L 147 3053 
L 147 3500 
L 697 3500 
L 697 3744 
Q 697 4328 969 4595 
Q 1241 4863 1831 4863 
L 2375 4863 
z
" id="DejaVuSans-66" transform="scale(0.015625)"/>
      <path d="M 628 4666 
L 1259 4666 
L 1259 2753 
L 3553 2753 
L 3553 4666 
L 4184 4666 
L 4184 0 
L 3553 0 
L 3553 2222 
L 1259 2222 
L 1259 0 
L 628 0 
L 628 4666 
z
" id="DejaVuSans-48" transform="scale(0.015625)"/>
      <path d="M 3122 3366 
L 3122 2828 
Q 2878 2963 2633 3030 
Q 2388 3097 2138 3097 
Q 1578 3097 1268 2742 
Q 959 2388 959 1747 
Q 959 1106 1268 751 
Q 1578 397 2138 397 
Q 2388 397 2633 464 
Q 2878 531 3122 666 
L 3122 134 
Q 2881 22 2623 -34 
Q 2366 -91 2075 -91 
Q 1284 -91 818 406 
Q 353 903 353 1747 
Q 353 2603 823 3093 
Q 1294 3584 2113 3584 
Q 2378 3584 2631 3529 
Q 2884 3475 3122 3366 
z
" id="DejaVuSans-63" transform="scale(0.015625)"/>
      <path d="M 2059 -325 
Q 1816 -950 1584 -1140 
Q 1353 -1331 966 -1331 
L 506 -1331 
L 506 -850 
L 844 -850 
Q 1081 -850 1212 -737 
Q 1344 -625 1503 -206 
L 1606 56 
L 191 3500 
L 800 3500 
L 1894 763 
L 2988 3500 
L 3597 3500 
L 2059 -325 
z
" id="DejaVuSans-79" transform="scale(0.015625)"/>
      <path d="M 2834 3397 
L 2834 2853 
Q 2591 2978 2328 3040 
Q 2066 3103 1784 3103 
Q 1356 3103 1142 2972 
Q 928 2841 928 2578 
Q 928 2378 1081 2264 
Q 1234 2150 1697 2047 
L 1894 2003 
Q 2506 1872 2764 1633 
Q 3022 1394 3022 966 
Q 3022 478 2636 193 
Q 2250 -91 1575 -91 
Q 1294 -91 989 -36 
Q 684 19 347 128 
L 347 722 
Q 666 556 975 473 
Q 1284 391 1588 391 
Q 1994 391 2212 530 
Q 2431 669 2431 922 
Q 2431 1156 2273 1281 
Q 2116 1406 1581 1522 
L 1381 1569 
Q 847 1681 609 1914 
Q 372 2147 372 2553 
Q 372 3047 722 3315 
Q 1072 3584 1716 3584 
Q 2034 3584 2315 3537 
Q 2597 3491 2834 3397 
z
" id="DejaVuSans-73" transform="scale(0.015625)"/>
      <path d="M 269 3500 
L 844 3500 
L 1563 769 
L 2278 3500 
L 2956 3500 
L 3675 769 
L 4391 3500 
L 4966 3500 
L 4050 0 
L 3372 0 
L 2619 2869 
L 1863 0 
L 1184 0 
L 269 3500 
z
" id="DejaVuSans-77" transform="scale(0.015625)"/>
      <path d="M 3513 2113 
L 3513 0 
L 2938 0 
L 2938 2094 
Q 2938 2591 2744 2837 
Q 2550 3084 2163 3084 
Q 1697 3084 1428 2787 
Q 1159 2491 1159 1978 
L 1159 0 
L 581 0 
L 581 4863 
L 1159 4863 
L 1159 2956 
Q 1366 3272 1645 3428 
Q 1925 3584 2291 3584 
Q 2894 3584 3203 3211 
Q 3513 2838 3513 2113 
z
" id="DejaVuSans-68" transform="scale(0.015625)"/>
     </defs>
     <use xlink:href="#DejaVuSans-56"/>
     <use x="60.658203" xlink:href="#DejaVuSans-61"/>
     <use x="121.9375" xlink:href="#DejaVuSans-72"/>
     <use x="163.050781" xlink:href="#DejaVuSans-69"/>
     <use x="190.833984" xlink:href="#DejaVuSans-61"/>
     <use x="252.113281" xlink:href="#DejaVuSans-74"/>
     <use x="291.322266" xlink:href="#DejaVuSans-69"/>
     <use x="319.105469" xlink:href="#DejaVuSans-6f"/>
     <use x="380.287109" xlink:href="#DejaVuSans-6e"/>
     <use x="443.666016" xlink:href="#DejaVuSans-20"/>
     <use x="475.453125" xlink:href="#DejaVuSans-6f"/>
     <use x="536.634766" xlink:href="#DejaVuSans-66"/>
     <use x="571.839844" xlink:href="#DejaVuSans-20"/>
     <use x="603.626953" xlink:href="#DejaVuSans-48"/>
     <use x="678.822266" xlink:href="#DejaVuSans-65"/>
     <use x="740.345703" xlink:href="#DejaVuSans-61"/>
     <use x="801.625" xlink:href="#DejaVuSans-74"/>
     <use x="840.833984" xlink:href="#DejaVuSans-20"/>
     <use x="872.621094" xlink:href="#DejaVuSans-63"/>
     <use x="927.601562" xlink:href="#DejaVuSans-61"/>
     <use x="988.880859" xlink:href="#DejaVuSans-70"/>
     <use x="1052.357422" xlink:href="#DejaVuSans-61"/>
     <use x="1113.636719" xlink:href="#DejaVuSans-63"/>
     <use x="1168.617188" xlink:href="#DejaVuSans-69"/>
     <use x="1196.400391" xlink:href="#DejaVuSans-74"/>
     <use x="1235.609375" xlink:href="#DejaVuSans-79"/>
     <use x="1294.789062" xlink:href="#DejaVuSans-20"/>
     <use x="1326.576172" xlink:href="#DejaVuSans-70"/>
     <use x="1390.052734" xlink:href="#DejaVuSans-65"/>
     <use x="1451.576172" xlink:href="#DejaVuSans-72"/>
     <use x="1492.689453" xlink:href="#DejaVuSans-20"/>
     <use x="1524.476562" xlink:href="#DejaVuSans-73"/>
     <use x="1576.576172" xlink:href="#DejaVuSans-70"/>
     <use x="1640.052734" xlink:href="#DejaVuSans-69"/>
     <use x="1667.835938" xlink:href="#DejaVuSans-6e"/>
     <use x="1731.214844" xlink:href="#DejaVuSans-20"/>
     <use x="1763.001953" xlink:href="#DejaVuSans-77"/>
     <use x="1844.789062" xlink:href="#DejaVuSans-69"/>
     <use x="1872.572266" xlink:href="#DejaVuSans-74"/>
     <use x="1911.78125" xlink:href="#DejaVuSans-68"/>
     <use x="1975.160156" xlink:href="#DejaVuSans-20"/>
     <use x="2006.947266" xlink:href="#DejaVuSans-74"/>
     <use x="2046.15625" xlink:href="#DejaVuSans-65"/>
     <use x="2107.679688" xlink:href="#DejaVuSans-6d"/>
     <use x="2205.091797" xlink:href="#DejaVuSans-70"/>
     <use x="2268.568359" xlink:href="#DejaVuSans-65"/>
     <use x="2330.091797" xlink:href="#DejaVuSans-72"/>
     <use x="2371.205078" xlink:href="#DejaVuSans-61"/>
     <use x="2432.484375" xlink:href="#DejaVuSans-74"/>
     <use x="2471.693359" xlink:href="#DejaVuSans-75"/>
     <use x="2535.072266" xlink:href="#DejaVuSans-72"/>
     <use x="2573.935547" xlink:href="#DejaVuSans-65"/>
    </g>
   </g>
   <g id="legend_1">
    <g id="patch_7">
     <path d="M 436.826562 124.590625 
L 511.4 124.590625 
Q 513.4 124.590625 513.4 122.590625 
L 513.4 50.2 
Q 513.4 48.2 511.4 48.2 
L 436.826562 48.2 
Q 434.826562 48.2 434.826562 50.2 
L 434.826562 122.590625 
Q 434.826562 124.590625 436.826562 124.590625 
z
" style="fill:#ffffff;opacity:0.8;stroke:#cccccc;stroke-linejoin:miter;"/>
    </g>
    <g id="line2d_32">
     <path d="M 438.826562 56.298437 
L 458.826562 56.298437 
" style="fill:none;stroke:#1f77b4;stroke-dasharray:1.5,2.475;stroke-dashoffset:0;stroke-width:1.5;"/>
    </g>
    <g id="line2d_33">
     <g>
      <use style="fill:#1f77b4;stroke:#1f77b4;" x="448.826562" xlink:href="#m55eb85e6e9" y="56.298437"/>
     </g>
    </g>
    <g id="text_17">
     <!-- L = 16.0 -->
     <g transform="translate(466.826562 59.798437)scale(0.1 -0.1)">
      <defs>
       <path d="M 628 4666 
L 1259 4666 
L 1259 531 
L 3531 531 
L 3531 0 
L 628 0 
L 628 4666 
z
" id="DejaVuSans-4c" transform="scale(0.015625)"/>
       <path d="M 678 2906 
L 4684 2906 
L 4684 2381 
L 678 2381 
L 678 2906 
z
M 678 1631 
L 4684 1631 
L 4684 1100 
L 678 1100 
L 678 1631 
z
" id="DejaVuSans-3d" transform="scale(0.015625)"/>
      </defs>
      <use xlink:href="#DejaVuSans-4c"/>
      <use x="55.712891" xlink:href="#DejaVuSans-20"/>
      <use x="87.5" xlink:href="#DejaVuSans-3d"/>
      <use x="171.289062" xlink:href="#DejaVuSans-20"/>
      <use x="203.076172" xlink:href="#DejaVuSans-31"/>
      <use x="266.699219" xlink:href="#DejaVuSans-36"/>
      <use x="330.322266" xlink:href="#DejaVuSans-2e"/>
      <use x="362.109375" xlink:href="#DejaVuSans-30"/>
     </g>
    </g>
    <g id="line2d_34">
     <path d="M 438.826562 70.976562 
L 458.826562 70.976562 
" style="fill:none;stroke:#ff7f0e;stroke-dasharray:1.5,2.475;stroke-dashoffset:0;stroke-width:1.5;"/>
    </g>
    <g id="line2d_35">
     <g>
      <use style="fill:#ff7f0e;stroke:#ff7f0e;" x="448.826562" xlink:href="#m3d76db1b24" y="70.976562"/>
     </g>
    </g>
    <g id="text_18">
     <!-- L = 20.0 -->
     <g transform="translate(466.826562 74.476562)scale(0.1 -0.1)">
      <use xlink:href="#DejaVuSans-4c"/>
      <use x="55.712891" xlink:href="#DejaVuSans-20"/>
      <use x="87.5" xlink:href="#DejaVuSans-3d"/>
      <use x="171.289062" xlink:href="#DejaVuSans-20"/>
      <use x="203.076172" xlink:href="#DejaVuSans-32"/>
      <use x="266.699219" xlink:href="#DejaVuSans-30"/>
      <use x="330.322266" xlink:href="#DejaVuSans-2e"/>
      <use x="362.109375" xlink:href="#DejaVuSans-30"/>
     </g>
    </g>
    <g id="line2d_36">
     <path d="M 438.826562 85.654687 
L 458.826562 85.654687 
" style="fill:none;stroke:#2ca02c;stroke-dasharray:1.5,2.475;stroke-dashoffset:0;stroke-width:1.5;"/>
    </g>
    <g id="line2d_37">
     <g>
      <use style="fill:#2ca02c;stroke:#2ca02c;" x="448.826562" xlink:href="#m1ee3d90aa0" y="85.654687"/>
     </g>
    </g>
    <g id="text_19">
     <!-- L = 24.0 -->
     <g transform="translate(466.826562 89.154687)scale(0.1 -0.1)">
      <use xlink:href="#DejaVuSans-4c"/>
      <use x="55.712891" xlink:href="#DejaVuSans-20"/>
      <use x="87.5" xlink:href="#DejaVuSans-3d"/>
      <use x="171.289062" xlink:href="#DejaVuSans-20"/>
      <use x="203.076172" xlink:href="#DejaVuSans-32"/>
      <use x="266.699219" xlink:href="#DejaVuSans-34"/>
      <use x="330.322266" xlink:href="#DejaVuSans-2e"/>
      <use x="362.109375" xlink:href="#DejaVuSans-30"/>
     </g>
    </g>
    <g id="line2d_38">
     <path d="M 438.826562 100.332812 
L 458.826562 100.332812 
" style="fill:none;stroke:#d62728;stroke-dasharray:1.5,2.475;stroke-dashoffset:0;stroke-width:1.5;"/>
    </g>
    <g id="line2d_39">
     <g>
      <use style="fill:#d62728;stroke:#d62728;" x="448.826562" xlink:href="#m874f3e22b6" y="100.332812"/>
     </g>
    </g>
    <g id="text_20">
     <!-- L = 28.0 -->
     <g transform="translate(466.826562 103.832812)scale(0.1 -0.1)">
      <use xlink:href="#DejaVuSans-4c"/>
      <use x="55.712891" xlink:href="#DejaVuSans-20"/>
      <use x="87.5" xlink:href="#DejaVuSans-3d"/>
      <use x="171.289062" xlink:href="#DejaVuSans-20"/>
      <use x="203.076172" xlink:href="#DejaVuSans-32"/>
      <use x="266.699219" xlink:href="#DejaVuSans-38"/>
      <use x="330.322266" xlink:href="#DejaVuSans-2e"/>
      <use x="362.109375" xlink:href="#DejaVuSans-30"/>
     </g>
    </g>
    <g id="line2d_40">
     <path d="M 438.826562 115.010937 
L 458.826562 115.010937 
" style="fill:none;stroke:#9467bd;stroke-dasharray:1.5,2.475;stroke-dashoffset:0;stroke-width:1.5;"/>
    </g>
    <g id="line2d_41">
     <g>
      <use style="fill:#9467bd;stroke:#9467bd;" x="448.826562" xlink:href="#m05e0f394d8" y="115.010937"/>
     </g>
    </g>
    <g id="text_21">
     <!-- L = 32.0 -->
     <g transform="translate(466.826562 118.510937)scale(0.1 -0.1)">
      <defs>
       <path d="M 2597 2516 
Q 3050 2419 3304 2112 
Q 3559 1806 3559 1356 
Q 3559 666 3084 287 
Q 2609 -91 1734 -91 
Q 1441 -91 1130 -33 
Q 819 25 488 141 
L 488 750 
Q 750 597 1062 519 
Q 1375 441 1716 441 
Q 2309 441 2620 675 
Q 2931 909 2931 1356 
Q 2931 1769 2642 2001 
Q 2353 2234 1838 2234 
L 1294 2234 
L 1294 2753 
L 1863 2753 
Q 2328 2753 2575 2939 
Q 2822 3125 2822 3475 
Q 2822 3834 2567 4026 
Q 2313 4219 1838 4219 
Q 1578 4219 1281 4162 
Q 984 4106 628 3988 
L 628 4550 
Q 988 4650 1302 4700 
Q 1616 4750 1894 4750 
Q 2613 4750 3031 4423 
Q 3450 4097 3450 3541 
Q 3450 3153 3228 2886 
Q 3006 2619 2597 2516 
z
" id="DejaVuSans-33" transform="scale(0.015625)"/>
      </defs>
      <use xlink:href="#DejaVuSans-4c"/>
      <use x="55.712891" xlink:href="#DejaVuSans-20"/>
      <use x="87.5" xlink:href="#DejaVuSans-3d"/>
      <use x="171.289062" xlink:href="#DejaVuSans-20"/>
      <use x="203.076172" xlink:href="#DejaVuSans-33"/>
      <use x="266.699219" xlink:href="#DejaVuSans-32"/>
      <use x="330.322266" xlink:href="#DejaVuSans-2e"/>
      <use x="362.109375" xlink:href="#DejaVuSans-30"/>
     </g>
    </g>
   </g>
  </g>
 </g>
 <defs>
  <clipPath id="pd86d8285e5">
   <rect height="277.2" width="446.4" x="72" y="43.2"/>
  </clipPath>
 </defs>
</svg>
