<?xml version="1.0" encoding="utf-8" standalone="no"?>
<!DOCTYPE svg PUBLIC "-//W3C//DTD SVG 1.1//EN"
  "http://www.w3.org/Graphics/SVG/1.1/DTD/svg11.dtd">
<svg height="360pt" version="1.1" viewBox="0 0 576 360" width="576pt" xmlns="http://www.w3.org/2000/svg" xmlns:xlink="http://www.w3.org/1999/xlink">
 <metadata>
  <rdf:RDF xmlns:cc="http://creativecommons.org/ns#" xmlns:dc="http://purl.org/dc/elements/1.1/" xmlns:rdf="http://www.w3.org/1999/02/22-rdf-syntax-ns#">
   <cc:Work>
    <dc:type rdf:resource="http://purl.org/dc/dcmitype/StillImage"/>
    <dc:date>2022-04-25T17:09:50.504474</dc:date>
    <dc:format>image/svg+xml</dc:format>
    <dc:creator>
     <cc:Agent>
      <dc:title>Matplotlib v3.4.3, https://matplotlib.org/</dc:title>
     </cc:Agent>
    </dc:creator>
   </cc:Work>
  </rdf:RDF>
 </metadata>
 <defs>
  <style type="text/css">*{stroke-linecap:butt;stroke-linejoin:round;}</style>
 </defs>
 <g id="figure_1">
  <g id="patch_1">
   <path d="M 0 360 
L 576 360 
L 576 0 
L 0 0 
z
" style="fill:#ffffff;"/>
  </g>
  <g id="axes_1">
   <g id="patch_2">
    <path d="M 72 320.4 
L 518.4 320.4 
L 518.4 43.2 
L 72 43.2 
z
" style="fill:#ffffff;"/>
   </g>
   <g id="patch_3">
    <path clip-path="url(#p4622d29304)" d="M 92.290909 320.4 
L 97.850062 320.4 
L 97.850062 320.068342 
L 92.290909 320.068342 
z
" style="fill:#1f77b4;fill-opacity:0.75;stroke:#000000;stroke-linejoin:miter;stroke-width:0.555915;"/>
   </g>
   <g id="patch_4">
    <path clip-path="url(#p4622d29304)" d="M 97.850062 320.4 
L 103.409215 320.4 
L 103.409215 320.068342 
L 97.850062 320.068342 
z
" style="fill:#1f77b4;fill-opacity:0.75;stroke:#000000;stroke-linejoin:miter;stroke-width:0.555915;"/>
   </g>
   <g id="patch_5">
    <path clip-path="url(#p4622d29304)" d="M 103.409215 320.4 
L 108.968369 320.4 
L 108.968369 318.741709 
L 103.409215 318.741709 
z
" style="fill:#1f77b4;fill-opacity:0.75;stroke:#000000;stroke-linejoin:miter;stroke-width:0.555915;"/>
   </g>
   <g id="patch_6">
    <path clip-path="url(#p4622d29304)" d="M 108.968369 320.4 
L 114.527522 320.4 
L 114.527522 318.741709 
L 108.968369 318.741709 
z
" style="fill:#1f77b4;fill-opacity:0.75;stroke:#000000;stroke-linejoin:miter;stroke-width:0.555915;"/>
   </g>
   <g id="patch_7">
    <path clip-path="url(#p4622d29304)" d="M 114.527522 320.4 
L 120.086675 320.4 
L 120.086675 318.41005 
L 114.527522 318.41005 
z
" style="fill:#1f77b4;fill-opacity:0.75;stroke:#000000;stroke-linejoin:miter;stroke-width:0.555915;"/>
   </g>
   <g id="patch_8">
    <path clip-path="url(#p4622d29304)" d="M 120.086675 320.4 
L 125.645828 320.4 
L 125.645828 318.078392 
L 120.086675 318.078392 
z
" style="fill:#1f77b4;fill-opacity:0.75;stroke:#000000;stroke-linejoin:miter;stroke-width:0.555915;"/>
   </g>
   <g id="patch_9">
    <path clip-path="url(#p4622d29304)" d="M 125.645828 320.4 
L 131.204981 320.4 
L 131.204981 317.083417 
L 125.645828 317.083417 
z
" style="fill:#1f77b4;fill-opacity:0.75;stroke:#000000;stroke-linejoin:miter;stroke-width:0.555915;"/>
   </g>
   <g id="patch_10">
    <path clip-path="url(#p4622d29304)" d="M 131.204981 320.4 
L 136.764134 320.4 
L 136.764134 315.425126 
L 131.204981 315.425126 
z
" style="fill:#1f77b4;fill-opacity:0.75;stroke:#000000;stroke-linejoin:miter;stroke-width:0.555915;"/>
   </g>
   <g id="patch_11">
    <path clip-path="url(#p4622d29304)" d="M 136.764134 320.4 
L 142.323288 320.4 
L 142.323288 316.751759 
L 136.764134 316.751759 
z
" style="fill:#1f77b4;fill-opacity:0.75;stroke:#000000;stroke-linejoin:miter;stroke-width:0.555915;"/>
   </g>
   <g id="patch_12">
    <path clip-path="url(#p4622d29304)" d="M 142.323288 320.4 
L 147.882441 320.4 
L 147.882441 313.766834 
L 142.323288 313.766834 
z
" style="fill:#1f77b4;fill-opacity:0.75;stroke:#000000;stroke-linejoin:miter;stroke-width:0.555915;"/>
   </g>
   <g id="patch_13">
    <path clip-path="url(#p4622d29304)" d="M 147.882441 320.4 
L 153.441594 320.4 
L 153.441594 307.796985 
L 147.882441 307.796985 
z
" style="fill:#1f77b4;fill-opacity:0.75;stroke:#000000;stroke-linejoin:miter;stroke-width:0.555915;"/>
   </g>
   <g id="patch_14">
    <path clip-path="url(#p4622d29304)" d="M 153.441594 320.4 
L 159.000747 320.4 
L 159.000747 303.817085 
L 153.441594 303.817085 
z
" style="fill:#1f77b4;fill-opacity:0.75;stroke:#000000;stroke-linejoin:miter;stroke-width:0.555915;"/>
   </g>
   <g id="patch_15">
    <path clip-path="url(#p4622d29304)" d="M 159.000747 320.4 
L 164.5599 320.4 
L 164.5599 302.490452 
L 159.000747 302.490452 
z
" style="fill:#1f77b4;fill-opacity:0.75;stroke:#000000;stroke-linejoin:miter;stroke-width:0.555915;"/>
   </g>
   <g id="patch_16">
    <path clip-path="url(#p4622d29304)" d="M 164.5599 320.4 
L 170.119054 320.4 
L 170.119054 296.188945 
L 164.5599 296.188945 
z
" style="fill:#1f77b4;fill-opacity:0.75;stroke:#000000;stroke-linejoin:miter;stroke-width:0.555915;"/>
   </g>
   <g id="patch_17">
    <path clip-path="url(#p4622d29304)" d="M 170.119054 320.4 
L 175.678207 320.4 
L 175.678207 291.877387 
L 170.119054 291.877387 
z
" style="fill:#1f77b4;fill-opacity:0.75;stroke:#000000;stroke-linejoin:miter;stroke-width:0.555915;"/>
   </g>
   <g id="patch_18">
    <path clip-path="url(#p4622d29304)" d="M 175.678207 320.4 
L 181.23736 320.4 
L 181.23736 285.575879 
L 175.678207 285.575879 
z
" style="fill:#1f77b4;fill-opacity:0.75;stroke:#000000;stroke-linejoin:miter;stroke-width:0.555915;"/>
   </g>
   <g id="patch_19">
    <path clip-path="url(#p4622d29304)" d="M 181.23736 320.4 
L 186.796513 320.4 
L 186.796513 272.972864 
L 181.23736 272.972864 
z
" style="fill:#1f77b4;fill-opacity:0.75;stroke:#000000;stroke-linejoin:miter;stroke-width:0.555915;"/>
   </g>
   <g id="patch_20">
    <path clip-path="url(#p4622d29304)" d="M 186.796513 320.4 
L 192.355666 320.4 
L 192.355666 269.98794 
L 186.796513 269.98794 
z
" style="fill:#1f77b4;fill-opacity:0.75;stroke:#000000;stroke-linejoin:miter;stroke-width:0.555915;"/>
   </g>
   <g id="patch_21">
    <path clip-path="url(#p4622d29304)" d="M 192.355666 320.4 
L 197.914819 320.4 
L 197.914819 254.731658 
L 192.355666 254.731658 
z
" style="fill:#1f77b4;fill-opacity:0.75;stroke:#000000;stroke-linejoin:miter;stroke-width:0.555915;"/>
   </g>
   <g id="patch_22">
    <path clip-path="url(#p4622d29304)" d="M 197.914819 320.4 
L 203.473973 320.4 
L 203.473973 234.168844 
L 197.914819 234.168844 
z
" style="fill:#1f77b4;fill-opacity:0.75;stroke:#000000;stroke-linejoin:miter;stroke-width:0.555915;"/>
   </g>
   <g id="patch_23">
    <path clip-path="url(#p4622d29304)" d="M 203.473973 320.4 
L 209.033126 320.4 
L 209.033126 222.229146 
L 203.473973 222.229146 
z
" style="fill:#1f77b4;fill-opacity:0.75;stroke:#000000;stroke-linejoin:miter;stroke-width:0.555915;"/>
   </g>
   <g id="patch_24">
    <path clip-path="url(#p4622d29304)" d="M 209.033126 320.4 
L 214.592279 320.4 
L 214.592279 217.58593 
L 209.033126 217.58593 
z
" style="fill:#1f77b4;fill-opacity:0.75;stroke:#000000;stroke-linejoin:miter;stroke-width:0.555915;"/>
   </g>
   <g id="patch_25">
    <path clip-path="url(#p4622d29304)" d="M 214.592279 320.4 
L 220.151432 320.4 
L 220.151432 206.972864 
L 214.592279 206.972864 
z
" style="fill:#1f77b4;fill-opacity:0.75;stroke:#000000;stroke-linejoin:miter;stroke-width:0.555915;"/>
   </g>
   <g id="patch_26">
    <path clip-path="url(#p4622d29304)" d="M 220.151432 320.4 
L 225.710585 320.4 
L 225.710585 161.867337 
L 220.151432 161.867337 
z
" style="fill:#1f77b4;fill-opacity:0.75;stroke:#000000;stroke-linejoin:miter;stroke-width:0.555915;"/>
   </g>
   <g id="patch_27">
    <path clip-path="url(#p4622d29304)" d="M 225.710585 320.4 
L 231.269738 320.4 
L 231.269738 184.088442 
L 225.710585 184.088442 
z
" style="fill:#1f77b4;fill-opacity:0.75;stroke:#000000;stroke-linejoin:miter;stroke-width:0.555915;"/>
   </g>
   <g id="patch_28">
    <path clip-path="url(#p4622d29304)" d="M 231.269738 320.4 
L 236.828892 320.4 
L 236.828892 152.249246 
L 231.269738 152.249246 
z
" style="fill:#1f77b4;fill-opacity:0.75;stroke:#000000;stroke-linejoin:miter;stroke-width:0.555915;"/>
   </g>
   <g id="patch_29">
    <path clip-path="url(#p4622d29304)" d="M 236.828892 320.4 
L 242.388045 320.4 
L 242.388045 157.224121 
L 236.828892 157.224121 
z
" style="fill:#1f77b4;fill-opacity:0.75;stroke:#000000;stroke-linejoin:miter;stroke-width:0.555915;"/>
   </g>
   <g id="patch_30">
    <path clip-path="url(#p4622d29304)" d="M 242.388045 320.4 
L 247.947198 320.4 
L 247.947198 95.867337 
L 242.388045 95.867337 
z
" style="fill:#1f77b4;fill-opacity:0.75;stroke:#000000;stroke-linejoin:miter;stroke-width:0.555915;"/>
   </g>
   <g id="patch_31">
    <path clip-path="url(#p4622d29304)" d="M 247.947198 320.4 
L 253.506351 320.4 
L 253.506351 109.465327 
L 247.947198 109.465327 
z
" style="fill:#1f77b4;fill-opacity:0.75;stroke:#000000;stroke-linejoin:miter;stroke-width:0.555915;"/>
   </g>
   <g id="patch_32">
    <path clip-path="url(#p4622d29304)" d="M 253.506351 320.4 
L 259.065504 320.4 
L 259.065504 96.198995 
L 253.506351 96.198995 
z
" style="fill:#1f77b4;fill-opacity:0.75;stroke:#000000;stroke-linejoin:miter;stroke-width:0.555915;"/>
   </g>
   <g id="patch_33">
    <path clip-path="url(#p4622d29304)" d="M 259.065504 320.4 
L 264.624658 320.4 
L 264.624658 85.58593 
L 259.065504 85.58593 
z
" style="fill:#1f77b4;fill-opacity:0.75;stroke:#000000;stroke-linejoin:miter;stroke-width:0.555915;"/>
   </g>
   <g id="patch_34">
    <path clip-path="url(#p4622d29304)" d="M 264.624658 320.4 
L 270.183811 320.4 
L 270.183811 63.364824 
L 264.624658 63.364824 
z
" style="fill:#1f77b4;fill-opacity:0.75;stroke:#000000;stroke-linejoin:miter;stroke-width:0.555915;"/>
   </g>
   <g id="patch_35">
    <path clip-path="url(#p4622d29304)" d="M 270.183811 320.4 
L 275.742964 320.4 
L 275.742964 73.646231 
L 270.183811 73.646231 
z
" style="fill:#1f77b4;fill-opacity:0.75;stroke:#000000;stroke-linejoin:miter;stroke-width:0.555915;"/>
   </g>
   <g id="patch_36">
    <path clip-path="url(#p4622d29304)" d="M 275.742964 320.4 
L 281.302117 320.4 
L 281.302117 76.962814 
L 275.742964 76.962814 
z
" style="fill:#1f77b4;fill-opacity:0.75;stroke:#000000;stroke-linejoin:miter;stroke-width:0.555915;"/>
   </g>
   <g id="patch_37">
    <path clip-path="url(#p4622d29304)" d="M 281.302117 320.4 
L 286.86127 320.4 
L 286.86127 71.656281 
L 281.302117 71.656281 
z
" style="fill:#1f77b4;fill-opacity:0.75;stroke:#000000;stroke-linejoin:miter;stroke-width:0.555915;"/>
   </g>
   <g id="patch_38">
    <path clip-path="url(#p4622d29304)" d="M 286.86127 320.4 
L 292.420423 320.4 
L 292.420423 56.4 
L 286.86127 56.4 
z
" style="fill:#1f77b4;fill-opacity:0.75;stroke:#000000;stroke-linejoin:miter;stroke-width:0.555915;"/>
   </g>
   <g id="patch_39">
    <path clip-path="url(#p4622d29304)" d="M 292.420423 320.4 
L 297.979577 320.4 
L 297.979577 74.972864 
L 292.420423 74.972864 
z
" style="fill:#1f77b4;fill-opacity:0.75;stroke:#000000;stroke-linejoin:miter;stroke-width:0.555915;"/>
   </g>
   <g id="patch_40">
    <path clip-path="url(#p4622d29304)" d="M 297.979577 320.4 
L 303.53873 320.4 
L 303.53873 80.611055 
L 297.979577 80.611055 
z
" style="fill:#1f77b4;fill-opacity:0.75;stroke:#000000;stroke-linejoin:miter;stroke-width:0.555915;"/>
   </g>
   <g id="patch_41">
    <path clip-path="url(#p4622d29304)" d="M 303.53873 320.4 
L 309.097883 320.4 
L 309.097883 91.555779 
L 303.53873 91.555779 
z
" style="fill:#1f77b4;fill-opacity:0.75;stroke:#000000;stroke-linejoin:miter;stroke-width:0.555915;"/>
   </g>
   <g id="patch_42">
    <path clip-path="url(#p4622d29304)" d="M 309.097883 320.4 
L 314.657036 320.4 
L 314.657036 95.867337 
L 309.097883 95.867337 
z
" style="fill:#1f77b4;fill-opacity:0.75;stroke:#000000;stroke-linejoin:miter;stroke-width:0.555915;"/>
   </g>
   <g id="patch_43">
    <path clip-path="url(#p4622d29304)" d="M 314.657036 320.4 
L 320.216189 320.4 
L 320.216189 120.41005 
L 314.657036 120.41005 
z
" style="fill:#1f77b4;fill-opacity:0.75;stroke:#000000;stroke-linejoin:miter;stroke-width:0.555915;"/>
   </g>
   <g id="patch_44">
    <path clip-path="url(#p4622d29304)" d="M 320.216189 320.4 
L 325.775342 320.4 
L 325.775342 124.058291 
L 320.216189 124.058291 
z
" style="fill:#1f77b4;fill-opacity:0.75;stroke:#000000;stroke-linejoin:miter;stroke-width:0.555915;"/>
   </g>
   <g id="patch_45">
    <path clip-path="url(#p4622d29304)" d="M 325.775342 320.4 
L 331.334496 320.4 
L 331.334496 142.631156 
L 325.775342 142.631156 
z
" style="fill:#1f77b4;fill-opacity:0.75;stroke:#000000;stroke-linejoin:miter;stroke-width:0.555915;"/>
   </g>
   <g id="patch_46">
    <path clip-path="url(#p4622d29304)" d="M 331.334496 320.4 
L 336.893649 320.4 
L 336.893649 160.540704 
L 331.334496 160.540704 
z
" style="fill:#1f77b4;fill-opacity:0.75;stroke:#000000;stroke-linejoin:miter;stroke-width:0.555915;"/>
   </g>
   <g id="patch_47">
    <path clip-path="url(#p4622d29304)" d="M 336.893649 320.4 
L 342.452802 320.4 
L 342.452802 156.560804 
L 336.893649 156.560804 
z
" style="fill:#1f77b4;fill-opacity:0.75;stroke:#000000;stroke-linejoin:miter;stroke-width:0.555915;"/>
   </g>
   <g id="patch_48">
    <path clip-path="url(#p4622d29304)" d="M 342.452802 320.4 
L 348.011955 320.4 
L 348.011955 186.078392 
L 342.452802 186.078392 
z
" style="fill:#1f77b4;fill-opacity:0.75;stroke:#000000;stroke-linejoin:miter;stroke-width:0.555915;"/>
   </g>
   <g id="patch_49">
    <path clip-path="url(#p4622d29304)" d="M 348.011955 320.4 
L 353.571108 320.4 
L 353.571108 195.696482 
L 348.011955 195.696482 
z
" style="fill:#1f77b4;fill-opacity:0.75;stroke:#000000;stroke-linejoin:miter;stroke-width:0.555915;"/>
   </g>
   <g id="patch_50">
    <path clip-path="url(#p4622d29304)" d="M 353.571108 320.4 
L 359.130262 320.4 
L 359.130262 213.937688 
L 353.571108 213.937688 
z
" style="fill:#1f77b4;fill-opacity:0.75;stroke:#000000;stroke-linejoin:miter;stroke-width:0.555915;"/>
   </g>
   <g id="patch_51">
    <path clip-path="url(#p4622d29304)" d="M 359.130262 320.4 
L 364.689415 320.4 
L 364.689415 219.575879 
L 359.130262 219.575879 
z
" style="fill:#1f77b4;fill-opacity:0.75;stroke:#000000;stroke-linejoin:miter;stroke-width:0.555915;"/>
   </g>
   <g id="patch_52">
    <path clip-path="url(#p4622d29304)" d="M 364.689415 320.4 
L 370.248568 320.4 
L 370.248568 237.817085 
L 364.689415 237.817085 
z
" style="fill:#1f77b4;fill-opacity:0.75;stroke:#000000;stroke-linejoin:miter;stroke-width:0.555915;"/>
   </g>
   <g id="patch_53">
    <path clip-path="url(#p4622d29304)" d="M 370.248568 320.4 
L 375.807721 320.4 
L 375.807721 247.103518 
L 370.248568 247.103518 
z
" style="fill:#1f77b4;fill-opacity:0.75;stroke:#000000;stroke-linejoin:miter;stroke-width:0.555915;"/>
   </g>
   <g id="patch_54">
    <path clip-path="url(#p4622d29304)" d="M 375.807721 320.4 
L 381.366874 320.4 
L 381.366874 254.4 
L 375.807721 254.4 
z
" style="fill:#1f77b4;fill-opacity:0.75;stroke:#000000;stroke-linejoin:miter;stroke-width:0.555915;"/>
   </g>
   <g id="patch_55">
    <path clip-path="url(#p4622d29304)" d="M 381.366874 320.4 
L 386.926027 320.4 
L 386.926027 260.038191 
L 381.366874 260.038191 
z
" style="fill:#1f77b4;fill-opacity:0.75;stroke:#000000;stroke-linejoin:miter;stroke-width:0.555915;"/>
   </g>
   <g id="patch_56">
    <path clip-path="url(#p4622d29304)" d="M 386.926027 320.4 
L 392.485181 320.4 
L 392.485181 277.947739 
L 386.926027 277.947739 
z
" style="fill:#1f77b4;fill-opacity:0.75;stroke:#000000;stroke-linejoin:miter;stroke-width:0.555915;"/>
   </g>
   <g id="patch_57">
    <path clip-path="url(#p4622d29304)" d="M 392.485181 320.4 
L 398.044334 320.4 
L 398.044334 284.580905 
L 392.485181 284.580905 
z
" style="fill:#1f77b4;fill-opacity:0.75;stroke:#000000;stroke-linejoin:miter;stroke-width:0.555915;"/>
   </g>
   <g id="patch_58">
    <path clip-path="url(#p4622d29304)" d="M 398.044334 320.4 
L 403.603487 320.4 
L 403.603487 286.239196 
L 398.044334 286.239196 
z
" style="fill:#1f77b4;fill-opacity:0.75;stroke:#000000;stroke-linejoin:miter;stroke-width:0.555915;"/>
   </g>
   <g id="patch_59">
    <path clip-path="url(#p4622d29304)" d="M 403.603487 320.4 
L 409.16264 320.4 
L 409.16264 298.842211 
L 403.603487 298.842211 
z
" style="fill:#1f77b4;fill-opacity:0.75;stroke:#000000;stroke-linejoin:miter;stroke-width:0.555915;"/>
   </g>
   <g id="patch_60">
    <path clip-path="url(#p4622d29304)" d="M 409.16264 320.4 
L 414.721793 320.4 
L 414.721793 302.822111 
L 409.16264 302.822111 
z
" style="fill:#1f77b4;fill-opacity:0.75;stroke:#000000;stroke-linejoin:miter;stroke-width:0.555915;"/>
   </g>
   <g id="patch_61">
    <path clip-path="url(#p4622d29304)" d="M 414.721793 320.4 
L 420.280946 320.4 
L 420.280946 303.485427 
L 414.721793 303.485427 
z
" style="fill:#1f77b4;fill-opacity:0.75;stroke:#000000;stroke-linejoin:miter;stroke-width:0.555915;"/>
   </g>
   <g id="patch_62">
    <path clip-path="url(#p4622d29304)" d="M 420.280946 320.4 
L 425.8401 320.4 
L 425.8401 312.108543 
L 420.280946 312.108543 
z
" style="fill:#1f77b4;fill-opacity:0.75;stroke:#000000;stroke-linejoin:miter;stroke-width:0.555915;"/>
   </g>
   <g id="patch_63">
    <path clip-path="url(#p4622d29304)" d="M 425.8401 320.4 
L 431.399253 320.4 
L 431.399253 312.771859 
L 425.8401 312.771859 
z
" style="fill:#1f77b4;fill-opacity:0.75;stroke:#000000;stroke-linejoin:miter;stroke-width:0.555915;"/>
   </g>
   <g id="patch_64">
    <path clip-path="url(#p4622d29304)" d="M 431.399253 320.4 
L 436.958406 320.4 
L 436.958406 314.098492 
L 431.399253 314.098492 
z
" style="fill:#1f77b4;fill-opacity:0.75;stroke:#000000;stroke-linejoin:miter;stroke-width:0.555915;"/>
   </g>
   <g id="patch_65">
    <path clip-path="url(#p4622d29304)" d="M 436.958406 320.4 
L 442.517559 320.4 
L 442.517559 315.093467 
L 436.958406 315.093467 
z
" style="fill:#1f77b4;fill-opacity:0.75;stroke:#000000;stroke-linejoin:miter;stroke-width:0.555915;"/>
   </g>
   <g id="patch_66">
    <path clip-path="url(#p4622d29304)" d="M 442.517559 320.4 
L 448.076712 320.4 
L 448.076712 318.078392 
L 442.517559 318.078392 
z
" style="fill:#1f77b4;fill-opacity:0.75;stroke:#000000;stroke-linejoin:miter;stroke-width:0.555915;"/>
   </g>
   <g id="patch_67">
    <path clip-path="url(#p4622d29304)" d="M 448.076712 320.4 
L 453.635866 320.4 
L 453.635866 316.751759 
L 448.076712 316.751759 
z
" style="fill:#1f77b4;fill-opacity:0.75;stroke:#000000;stroke-linejoin:miter;stroke-width:0.555915;"/>
   </g>
   <g id="patch_68">
    <path clip-path="url(#p4622d29304)" d="M 453.635866 320.4 
L 459.195019 320.4 
L 459.195019 317.415075 
L 453.635866 317.415075 
z
" style="fill:#1f77b4;fill-opacity:0.75;stroke:#000000;stroke-linejoin:miter;stroke-width:0.555915;"/>
   </g>
   <g id="patch_69">
    <path clip-path="url(#p4622d29304)" d="M 459.195019 320.4 
L 464.754172 320.4 
L 464.754172 319.073367 
L 459.195019 319.073367 
z
" style="fill:#1f77b4;fill-opacity:0.75;stroke:#000000;stroke-linejoin:miter;stroke-width:0.555915;"/>
   </g>
   <g id="patch_70">
    <path clip-path="url(#p4622d29304)" d="M 464.754172 320.4 
L 470.313325 320.4 
L 470.313325 318.41005 
L 464.754172 318.41005 
z
" style="fill:#1f77b4;fill-opacity:0.75;stroke:#000000;stroke-linejoin:miter;stroke-width:0.555915;"/>
   </g>
   <g id="patch_71">
    <path clip-path="url(#p4622d29304)" d="M 470.313325 320.4 
L 475.872478 320.4 
L 475.872478 319.405025 
L 470.313325 319.405025 
z
" style="fill:#1f77b4;fill-opacity:0.75;stroke:#000000;stroke-linejoin:miter;stroke-width:0.555915;"/>
   </g>
   <g id="patch_72">
    <path clip-path="url(#p4622d29304)" d="M 475.872478 320.4 
L 481.431631 320.4 
L 481.431631 319.736683 
L 475.872478 319.736683 
z
" style="fill:#1f77b4;fill-opacity:0.75;stroke:#000000;stroke-linejoin:miter;stroke-width:0.555915;"/>
   </g>
   <g id="patch_73">
    <path clip-path="url(#p4622d29304)" d="M 481.431631 320.4 
L 486.990785 320.4 
L 486.990785 320.4 
L 481.431631 320.4 
z
" style="fill:#1f77b4;fill-opacity:0.75;stroke:#000000;stroke-linejoin:miter;stroke-width:0.555915;"/>
   </g>
   <g id="patch_74">
    <path clip-path="url(#p4622d29304)" d="M 486.990785 320.4 
L 492.549938 320.4 
L 492.549938 320.4 
L 486.990785 320.4 
z
" style="fill:#1f77b4;fill-opacity:0.75;stroke:#000000;stroke-linejoin:miter;stroke-width:0.555915;"/>
   </g>
   <g id="patch_75">
    <path clip-path="url(#p4622d29304)" d="M 492.549938 320.4 
L 498.109091 320.4 
L 498.109091 320.068342 
L 492.549938 320.068342 
z
" style="fill:#1f77b4;fill-opacity:0.75;stroke:#000000;stroke-linejoin:miter;stroke-width:0.555915;"/>
   </g>
   <g id="matplotlib.axis_1">
    <g id="xtick_1">
     <g id="line2d_1">
      <path clip-path="url(#p4622d29304)" d="M 90.53403 320.4 
L 90.53403 43.2 
" style="fill:none;stroke:#b0b0b0;stroke-linecap:square;stroke-width:0.8;"/>
     </g>
     <g id="line2d_2">
      <defs>
       <path d="M 0 0 
L 0 3.5 
" id="mf0359f8c0e" style="stroke:#000000;stroke-width:0.8;"/>
      </defs>
      <g>
       <use style="stroke:#000000;stroke-width:0.8;" x="90.53403" xlink:href="#mf0359f8c0e" y="320.4"/>
      </g>
     </g>
     <g id="text_1">
      <!-- −750 -->
      <g transform="translate(76.800436 334.998438)scale(0.1 -0.1)">
       <defs>
        <path d="M 678 2272 
L 4684 2272 
L 4684 1741 
L 678 1741 
L 678 2272 
z
" id="DejaVuSans-2212" transform="scale(0.015625)"/>
        <path d="M 525 4666 
L 3525 4666 
L 3525 4397 
L 1831 0 
L 1172 0 
L 2766 4134 
L 525 4134 
L 525 4666 
z
" id="DejaVuSans-37" transform="scale(0.015625)"/>
        <path d="M 691 4666 
L 3169 4666 
L 3169 4134 
L 1269 4134 
L 1269 2991 
Q 1406 3038 1543 3061 
Q 1681 3084 1819 3084 
Q 2600 3084 3056 2656 
Q 3513 2228 3513 1497 
Q 3513 744 3044 326 
Q 2575 -91 1722 -91 
Q 1428 -91 1123 -41 
Q 819 9 494 109 
L 494 744 
Q 775 591 1075 516 
Q 1375 441 1709 441 
Q 2250 441 2565 725 
Q 2881 1009 2881 1497 
Q 2881 1984 2565 2268 
Q 2250 2553 1709 2553 
Q 1456 2553 1204 2497 
Q 953 2441 691 2322 
L 691 4666 
z
" id="DejaVuSans-35" transform="scale(0.015625)"/>
        <path d="M 2034 4250 
Q 1547 4250 1301 3770 
Q 1056 3291 1056 2328 
Q 1056 1369 1301 889 
Q 1547 409 2034 409 
Q 2525 409 2770 889 
Q 3016 1369 3016 2328 
Q 3016 3291 2770 3770 
Q 2525 4250 2034 4250 
z
M 2034 4750 
Q 2819 4750 3233 4129 
Q 3647 3509 3647 2328 
Q 3647 1150 3233 529 
Q 2819 -91 2034 -91 
Q 1250 -91 836 529 
Q 422 1150 422 2328 
Q 422 3509 836 4129 
Q 1250 4750 2034 4750 
z
" id="DejaVuSans-30" transform="scale(0.015625)"/>
       </defs>
       <use xlink:href="#DejaVuSans-2212"/>
       <use x="83.789062" xlink:href="#DejaVuSans-37"/>
       <use x="147.412109" xlink:href="#DejaVuSans-35"/>
       <use x="211.035156" xlink:href="#DejaVuSans-30"/>
      </g>
     </g>
    </g>
    <g id="xtick_2">
     <g id="line2d_3">
      <path clip-path="url(#p4622d29304)" d="M 148.5455 320.4 
L 148.5455 43.2 
" style="fill:none;stroke:#b0b0b0;stroke-linecap:square;stroke-width:0.8;"/>
     </g>
     <g id="line2d_4">
      <g>
       <use style="stroke:#000000;stroke-width:0.8;" x="148.5455" xlink:href="#mf0359f8c0e" y="320.4"/>
      </g>
     </g>
     <g id="text_2">
      <!-- −700 -->
      <g transform="translate(134.811907 334.998438)scale(0.1 -0.1)">
       <use xlink:href="#DejaVuSans-2212"/>
       <use x="83.789062" xlink:href="#DejaVuSans-37"/>
       <use x="147.412109" xlink:href="#DejaVuSans-30"/>
       <use x="211.035156" xlink:href="#DejaVuSans-30"/>
      </g>
     </g>
    </g>
    <g id="xtick_3">
     <g id="line2d_5">
      <path clip-path="url(#p4622d29304)" d="M 206.55697 320.4 
L 206.55697 43.2 
" style="fill:none;stroke:#b0b0b0;stroke-linecap:square;stroke-width:0.8;"/>
     </g>
     <g id="line2d_6">
      <g>
       <use style="stroke:#000000;stroke-width:0.8;" x="206.55697" xlink:href="#mf0359f8c0e" y="320.4"/>
      </g>
     </g>
     <g id="text_3">
      <!-- −650 -->
      <g transform="translate(192.823377 334.998438)scale(0.1 -0.1)">
       <defs>
        <path d="M 2113 2584 
Q 1688 2584 1439 2293 
Q 1191 2003 1191 1497 
Q 1191 994 1439 701 
Q 1688 409 2113 409 
Q 2538 409 2786 701 
Q 3034 994 3034 1497 
Q 3034 2003 2786 2293 
Q 2538 2584 2113 2584 
z
M 3366 4563 
L 3366 3988 
Q 3128 4100 2886 4159 
Q 2644 4219 2406 4219 
Q 1781 4219 1451 3797 
Q 1122 3375 1075 2522 
Q 1259 2794 1537 2939 
Q 1816 3084 2150 3084 
Q 2853 3084 3261 2657 
Q 3669 2231 3669 1497 
Q 3669 778 3244 343 
Q 2819 -91 2113 -91 
Q 1303 -91 875 529 
Q 447 1150 447 2328 
Q 447 3434 972 4092 
Q 1497 4750 2381 4750 
Q 2619 4750 2861 4703 
Q 3103 4656 3366 4563 
z
" id="DejaVuSans-36" transform="scale(0.015625)"/>
       </defs>
       <use xlink:href="#DejaVuSans-2212"/>
       <use x="83.789062" xlink:href="#DejaVuSans-36"/>
       <use x="147.412109" xlink:href="#DejaVuSans-35"/>
       <use x="211.035156" xlink:href="#DejaVuSans-30"/>
      </g>
     </g>
    </g>
    <g id="xtick_4">
     <g id="line2d_7">
      <path clip-path="url(#p4622d29304)" d="M 264.568441 320.4 
L 264.568441 43.2 
" style="fill:none;stroke:#b0b0b0;stroke-linecap:square;stroke-width:0.8;"/>
     </g>
     <g id="line2d_8">
      <g>
       <use style="stroke:#000000;stroke-width:0.8;" x="264.568441" xlink:href="#mf0359f8c0e" y="320.4"/>
      </g>
     </g>
     <g id="text_4">
      <!-- −600 -->
      <g transform="translate(250.834847 334.998438)scale(0.1 -0.1)">
       <use xlink:href="#DejaVuSans-2212"/>
       <use x="83.789062" xlink:href="#DejaVuSans-36"/>
       <use x="147.412109" xlink:href="#DejaVuSans-30"/>
       <use x="211.035156" xlink:href="#DejaVuSans-30"/>
      </g>
     </g>
    </g>
    <g id="xtick_5">
     <g id="line2d_9">
      <path clip-path="url(#p4622d29304)" d="M 322.579911 320.4 
L 322.579911 43.2 
" style="fill:none;stroke:#b0b0b0;stroke-linecap:square;stroke-width:0.8;"/>
     </g>
     <g id="line2d_10">
      <g>
       <use style="stroke:#000000;stroke-width:0.8;" x="322.579911" xlink:href="#mf0359f8c0e" y="320.4"/>
      </g>
     </g>
     <g id="text_5">
      <!-- −550 -->
      <g transform="translate(308.846317 334.998438)scale(0.1 -0.1)">
       <use xlink:href="#DejaVuSans-2212"/>
       <use x="83.789062" xlink:href="#DejaVuSans-35"/>
       <use x="147.412109" xlink:href="#DejaVuSans-35"/>
       <use x="211.035156" xlink:href="#DejaVuSans-30"/>
      </g>
     </g>
    </g>
    <g id="xtick_6">
     <g id="line2d_11">
      <path clip-path="url(#p4622d29304)" d="M 380.591381 320.4 
L 380.591381 43.2 
" style="fill:none;stroke:#b0b0b0;stroke-linecap:square;stroke-width:0.8;"/>
     </g>
     <g id="line2d_12">
      <g>
       <use style="stroke:#000000;stroke-width:0.8;" x="380.591381" xlink:href="#mf0359f8c0e" y="320.4"/>
      </g>
     </g>
     <g id="text_6">
      <!-- −500 -->
      <g transform="translate(366.857787 334.998438)scale(0.1 -0.1)">
       <use xlink:href="#DejaVuSans-2212"/>
       <use x="83.789062" xlink:href="#DejaVuSans-35"/>
       <use x="147.412109" xlink:href="#DejaVuSans-30"/>
       <use x="211.035156" xlink:href="#DejaVuSans-30"/>
      </g>
     </g>
    </g>
    <g id="xtick_7">
     <g id="line2d_13">
      <path clip-path="url(#p4622d29304)" d="M 438.602851 320.4 
L 438.602851 43.2 
" style="fill:none;stroke:#b0b0b0;stroke-linecap:square;stroke-width:0.8;"/>
     </g>
     <g id="line2d_14">
      <g>
       <use style="stroke:#000000;stroke-width:0.8;" x="438.602851" xlink:href="#mf0359f8c0e" y="320.4"/>
      </g>
     </g>
     <g id="text_7">
      <!-- −450 -->
      <g transform="translate(424.869257 334.998438)scale(0.1 -0.1)">
       <defs>
        <path d="M 2419 4116 
L 825 1625 
L 2419 1625 
L 2419 4116 
z
M 2253 4666 
L 3047 4666 
L 3047 1625 
L 3713 1625 
L 3713 1100 
L 3047 1100 
L 3047 0 
L 2419 0 
L 2419 1100 
L 313 1100 
L 313 1709 
L 2253 4666 
z
" id="DejaVuSans-34" transform="scale(0.015625)"/>
       </defs>
       <use xlink:href="#DejaVuSans-2212"/>
       <use x="83.789062" xlink:href="#DejaVuSans-34"/>
       <use x="147.412109" xlink:href="#DejaVuSans-35"/>
       <use x="211.035156" xlink:href="#DejaVuSans-30"/>
      </g>
     </g>
    </g>
    <g id="xtick_8">
     <g id="line2d_15">
      <path clip-path="url(#p4622d29304)" d="M 496.614321 320.4 
L 496.614321 43.2 
" style="fill:none;stroke:#b0b0b0;stroke-linecap:square;stroke-width:0.8;"/>
     </g>
     <g id="line2d_16">
      <g>
       <use style="stroke:#000000;stroke-width:0.8;" x="496.614321" xlink:href="#mf0359f8c0e" y="320.4"/>
      </g>
     </g>
     <g id="text_8">
      <!-- −400 -->
      <g transform="translate(482.880727 334.998438)scale(0.1 -0.1)">
       <use xlink:href="#DejaVuSans-2212"/>
       <use x="83.789062" xlink:href="#DejaVuSans-34"/>
       <use x="147.412109" xlink:href="#DejaVuSans-30"/>
       <use x="211.035156" xlink:href="#DejaVuSans-30"/>
      </g>
     </g>
    </g>
    <g id="text_9">
     <!-- Energy -->
     <g transform="translate(277.69375 348.676562)scale(0.1 -0.1)">
      <defs>
       <path d="M 628 4666 
L 3578 4666 
L 3578 4134 
L 1259 4134 
L 1259 2753 
L 3481 2753 
L 3481 2222 
L 1259 2222 
L 1259 531 
L 3634 531 
L 3634 0 
L 628 0 
L 628 4666 
z
" id="DejaVuSans-45" transform="scale(0.015625)"/>
       <path d="M 3513 2113 
L 3513 0 
L 2938 0 
L 2938 2094 
Q 2938 2591 2744 2837 
Q 2550 3084 2163 3084 
Q 1697 3084 1428 2787 
Q 1159 2491 1159 1978 
L 1159 0 
L 581 0 
L 581 3500 
L 1159 3500 
L 1159 2956 
Q 1366 3272 1645 3428 
Q 1925 3584 2291 3584 
Q 2894 3584 3203 3211 
Q 3513 2838 3513 2113 
z
" id="DejaVuSans-6e" transform="scale(0.015625)"/>
       <path d="M 3597 1894 
L 3597 1613 
L 953 1613 
Q 991 1019 1311 708 
Q 1631 397 2203 397 
Q 2534 397 2845 478 
Q 3156 559 3463 722 
L 3463 178 
Q 3153 47 2828 -22 
Q 2503 -91 2169 -91 
Q 1331 -91 842 396 
Q 353 884 353 1716 
Q 353 2575 817 3079 
Q 1281 3584 2069 3584 
Q 2775 3584 3186 3129 
Q 3597 2675 3597 1894 
z
M 3022 2063 
Q 3016 2534 2758 2815 
Q 2500 3097 2075 3097 
Q 1594 3097 1305 2825 
Q 1016 2553 972 2059 
L 3022 2063 
z
" id="DejaVuSans-65" transform="scale(0.015625)"/>
       <path d="M 2631 2963 
Q 2534 3019 2420 3045 
Q 2306 3072 2169 3072 
Q 1681 3072 1420 2755 
Q 1159 2438 1159 1844 
L 1159 0 
L 581 0 
L 581 3500 
L 1159 3500 
L 1159 2956 
Q 1341 3275 1631 3429 
Q 1922 3584 2338 3584 
Q 2397 3584 2469 3576 
Q 2541 3569 2628 3553 
L 2631 2963 
z
" id="DejaVuSans-72" transform="scale(0.015625)"/>
       <path d="M 2906 1791 
Q 2906 2416 2648 2759 
Q 2391 3103 1925 3103 
Q 1463 3103 1205 2759 
Q 947 2416 947 1791 
Q 947 1169 1205 825 
Q 1463 481 1925 481 
Q 2391 481 2648 825 
Q 2906 1169 2906 1791 
z
M 3481 434 
Q 3481 -459 3084 -895 
Q 2688 -1331 1869 -1331 
Q 1566 -1331 1297 -1286 
Q 1028 -1241 775 -1147 
L 775 -588 
Q 1028 -725 1275 -790 
Q 1522 -856 1778 -856 
Q 2344 -856 2625 -561 
Q 2906 -266 2906 331 
L 2906 616 
Q 2728 306 2450 153 
Q 2172 0 1784 0 
Q 1141 0 747 490 
Q 353 981 353 1791 
Q 353 2603 747 3093 
Q 1141 3584 1784 3584 
Q 2172 3584 2450 3431 
Q 2728 3278 2906 2969 
L 2906 3500 
L 3481 3500 
L 3481 434 
z
" id="DejaVuSans-67" transform="scale(0.015625)"/>
       <path d="M 2059 -325 
Q 1816 -950 1584 -1140 
Q 1353 -1331 966 -1331 
L 506 -1331 
L 506 -850 
L 844 -850 
Q 1081 -850 1212 -737 
Q 1344 -625 1503 -206 
L 1606 56 
L 191 3500 
L 800 3500 
L 1894 763 
L 2988 3500 
L 3597 3500 
L 2059 -325 
z
" id="DejaVuSans-79" transform="scale(0.015625)"/>
      </defs>
      <use xlink:href="#DejaVuSans-45"/>
      <use x="63.183594" xlink:href="#DejaVuSans-6e"/>
      <use x="126.5625" xlink:href="#DejaVuSans-65"/>
      <use x="188.085938" xlink:href="#DejaVuSans-72"/>
      <use x="227.449219" xlink:href="#DejaVuSans-67"/>
      <use x="290.925781" xlink:href="#DejaVuSans-79"/>
     </g>
    </g>
   </g>
   <g id="matplotlib.axis_2">
    <g id="ytick_1">
     <g id="line2d_17">
      <path clip-path="url(#p4622d29304)" d="M 72 320.4 
L 518.4 320.4 
" style="fill:none;stroke:#b0b0b0;stroke-linecap:square;stroke-width:0.8;"/>
     </g>
     <g id="line2d_18">
      <defs>
       <path d="M 0 0 
L -3.5 0 
" id="m6c14e6edc0" style="stroke:#000000;stroke-width:0.8;"/>
      </defs>
      <g>
       <use style="stroke:#000000;stroke-width:0.8;" x="72" xlink:href="#m6c14e6edc0" y="320.4"/>
      </g>
     </g>
     <g id="text_10">
      <!-- 0 -->
      <g transform="translate(58.6375 324.199219)scale(0.1 -0.1)">
       <use xlink:href="#DejaVuSans-30"/>
      </g>
     </g>
    </g>
    <g id="ytick_2">
     <g id="line2d_19">
      <path clip-path="url(#p4622d29304)" d="M 72 287.234171 
L 518.4 287.234171 
" style="fill:none;stroke:#b0b0b0;stroke-linecap:square;stroke-width:0.8;"/>
     </g>
     <g id="line2d_20">
      <g>
       <use style="stroke:#000000;stroke-width:0.8;" x="72" xlink:href="#m6c14e6edc0" y="287.234171"/>
      </g>
     </g>
     <g id="text_11">
      <!-- 100 -->
      <g transform="translate(45.9125 291.03339)scale(0.1 -0.1)">
       <defs>
        <path d="M 794 531 
L 1825 531 
L 1825 4091 
L 703 3866 
L 703 4441 
L 1819 4666 
L 2450 4666 
L 2450 531 
L 3481 531 
L 3481 0 
L 794 0 
L 794 531 
z
" id="DejaVuSans-31" transform="scale(0.015625)"/>
       </defs>
       <use xlink:href="#DejaVuSans-31"/>
       <use x="63.623047" xlink:href="#DejaVuSans-30"/>
       <use x="127.246094" xlink:href="#DejaVuSans-30"/>
      </g>
     </g>
    </g>
    <g id="ytick_3">
     <g id="line2d_21">
      <path clip-path="url(#p4622d29304)" d="M 72 254.068342 
L 518.4 254.068342 
" style="fill:none;stroke:#b0b0b0;stroke-linecap:square;stroke-width:0.8;"/>
     </g>
     <g id="line2d_22">
      <g>
       <use style="stroke:#000000;stroke-width:0.8;" x="72" xlink:href="#m6c14e6edc0" y="254.068342"/>
      </g>
     </g>
     <g id="text_12">
      <!-- 200 -->
      <g transform="translate(45.9125 257.86756)scale(0.1 -0.1)">
       <defs>
        <path d="M 1228 531 
L 3431 531 
L 3431 0 
L 469 0 
L 469 531 
Q 828 903 1448 1529 
Q 2069 2156 2228 2338 
Q 2531 2678 2651 2914 
Q 2772 3150 2772 3378 
Q 2772 3750 2511 3984 
Q 2250 4219 1831 4219 
Q 1534 4219 1204 4116 
Q 875 4013 500 3803 
L 500 4441 
Q 881 4594 1212 4672 
Q 1544 4750 1819 4750 
Q 2544 4750 2975 4387 
Q 3406 4025 3406 3419 
Q 3406 3131 3298 2873 
Q 3191 2616 2906 2266 
Q 2828 2175 2409 1742 
Q 1991 1309 1228 531 
z
" id="DejaVuSans-32" transform="scale(0.015625)"/>
       </defs>
       <use xlink:href="#DejaVuSans-32"/>
       <use x="63.623047" xlink:href="#DejaVuSans-30"/>
       <use x="127.246094" xlink:href="#DejaVuSans-30"/>
      </g>
     </g>
    </g>
    <g id="ytick_4">
     <g id="line2d_23">
      <path clip-path="url(#p4622d29304)" d="M 72 220.902513 
L 518.4 220.902513 
" style="fill:none;stroke:#b0b0b0;stroke-linecap:square;stroke-width:0.8;"/>
     </g>
     <g id="line2d_24">
      <g>
       <use style="stroke:#000000;stroke-width:0.8;" x="72" xlink:href="#m6c14e6edc0" y="220.902513"/>
      </g>
     </g>
     <g id="text_13">
      <!-- 300 -->
      <g transform="translate(45.9125 224.701731)scale(0.1 -0.1)">
       <defs>
        <path d="M 2597 2516 
Q 3050 2419 3304 2112 
Q 3559 1806 3559 1356 
Q 3559 666 3084 287 
Q 2609 -91 1734 -91 
Q 1441 -91 1130 -33 
Q 819 25 488 141 
L 488 750 
Q 750 597 1062 519 
Q 1375 441 1716 441 
Q 2309 441 2620 675 
Q 2931 909 2931 1356 
Q 2931 1769 2642 2001 
Q 2353 2234 1838 2234 
L 1294 2234 
L 1294 2753 
L 1863 2753 
Q 2328 2753 2575 2939 
Q 2822 3125 2822 3475 
Q 2822 3834 2567 4026 
Q 2313 4219 1838 4219 
Q 1578 4219 1281 4162 
Q 984 4106 628 3988 
L 628 4550 
Q 988 4650 1302 4700 
Q 1616 4750 1894 4750 
Q 2613 4750 3031 4423 
Q 3450 4097 3450 3541 
Q 3450 3153 3228 2886 
Q 3006 2619 2597 2516 
z
" id="DejaVuSans-33" transform="scale(0.015625)"/>
       </defs>
       <use xlink:href="#DejaVuSans-33"/>
       <use x="63.623047" xlink:href="#DejaVuSans-30"/>
       <use x="127.246094" xlink:href="#DejaVuSans-30"/>
      </g>
     </g>
    </g>
    <g id="ytick_5">
     <g id="line2d_25">
      <path clip-path="url(#p4622d29304)" d="M 72 187.736683 
L 518.4 187.736683 
" style="fill:none;stroke:#b0b0b0;stroke-linecap:square;stroke-width:0.8;"/>
     </g>
     <g id="line2d_26">
      <g>
       <use style="stroke:#000000;stroke-width:0.8;" x="72" xlink:href="#m6c14e6edc0" y="187.736683"/>
      </g>
     </g>
     <g id="text_14">
      <!-- 400 -->
      <g transform="translate(45.9125 191.535902)scale(0.1 -0.1)">
       <use xlink:href="#DejaVuSans-34"/>
       <use x="63.623047" xlink:href="#DejaVuSans-30"/>
       <use x="127.246094" xlink:href="#DejaVuSans-30"/>
      </g>
     </g>
    </g>
    <g id="ytick_6">
     <g id="line2d_27">
      <path clip-path="url(#p4622d29304)" d="M 72 154.570854 
L 518.4 154.570854 
" style="fill:none;stroke:#b0b0b0;stroke-linecap:square;stroke-width:0.8;"/>
     </g>
     <g id="line2d_28">
      <g>
       <use style="stroke:#000000;stroke-width:0.8;" x="72" xlink:href="#m6c14e6edc0" y="154.570854"/>
      </g>
     </g>
     <g id="text_15">
      <!-- 500 -->
      <g transform="translate(45.9125 158.370073)scale(0.1 -0.1)">
       <use xlink:href="#DejaVuSans-35"/>
       <use x="63.623047" xlink:href="#DejaVuSans-30"/>
       <use x="127.246094" xlink:href="#DejaVuSans-30"/>
      </g>
     </g>
    </g>
    <g id="ytick_7">
     <g id="line2d_29">
      <path clip-path="url(#p4622d29304)" d="M 72 121.405025 
L 518.4 121.405025 
" style="fill:none;stroke:#b0b0b0;stroke-linecap:square;stroke-width:0.8;"/>
     </g>
     <g id="line2d_30">
      <g>
       <use style="stroke:#000000;stroke-width:0.8;" x="72" xlink:href="#m6c14e6edc0" y="121.405025"/>
      </g>
     </g>
     <g id="text_16">
      <!-- 600 -->
      <g transform="translate(45.9125 125.204244)scale(0.1 -0.1)">
       <use xlink:href="#DejaVuSans-36"/>
       <use x="63.623047" xlink:href="#DejaVuSans-30"/>
       <use x="127.246094" xlink:href="#DejaVuSans-30"/>
      </g>
     </g>
    </g>
    <g id="ytick_8">
     <g id="line2d_31">
      <path clip-path="url(#p4622d29304)" d="M 72 88.239196 
L 518.4 88.239196 
" style="fill:none;stroke:#b0b0b0;stroke-linecap:square;stroke-width:0.8;"/>
     </g>
     <g id="line2d_32">
      <g>
       <use style="stroke:#000000;stroke-width:0.8;" x="72" xlink:href="#m6c14e6edc0" y="88.239196"/>
      </g>
     </g>
     <g id="text_17">
      <!-- 700 -->
      <g transform="translate(45.9125 92.038415)scale(0.1 -0.1)">
       <use xlink:href="#DejaVuSans-37"/>
       <use x="63.623047" xlink:href="#DejaVuSans-30"/>
       <use x="127.246094" xlink:href="#DejaVuSans-30"/>
      </g>
     </g>
    </g>
    <g id="ytick_9">
     <g id="line2d_33">
      <path clip-path="url(#p4622d29304)" d="M 72 55.073367 
L 518.4 55.073367 
" style="fill:none;stroke:#b0b0b0;stroke-linecap:square;stroke-width:0.8;"/>
     </g>
     <g id="line2d_34">
      <g>
       <use style="stroke:#000000;stroke-width:0.8;" x="72" xlink:href="#m6c14e6edc0" y="55.073367"/>
      </g>
     </g>
     <g id="text_18">
      <!-- 800 -->
      <g transform="translate(45.9125 58.872586)scale(0.1 -0.1)">
       <defs>
        <path d="M 2034 2216 
Q 1584 2216 1326 1975 
Q 1069 1734 1069 1313 
Q 1069 891 1326 650 
Q 1584 409 2034 409 
Q 2484 409 2743 651 
Q 3003 894 3003 1313 
Q 3003 1734 2745 1975 
Q 2488 2216 2034 2216 
z
M 1403 2484 
Q 997 2584 770 2862 
Q 544 3141 544 3541 
Q 544 4100 942 4425 
Q 1341 4750 2034 4750 
Q 2731 4750 3128 4425 
Q 3525 4100 3525 3541 
Q 3525 3141 3298 2862 
Q 3072 2584 2669 2484 
Q 3125 2378 3379 2068 
Q 3634 1759 3634 1313 
Q 3634 634 3220 271 
Q 2806 -91 2034 -91 
Q 1263 -91 848 271 
Q 434 634 434 1313 
Q 434 1759 690 2068 
Q 947 2378 1403 2484 
z
M 1172 3481 
Q 1172 3119 1398 2916 
Q 1625 2713 2034 2713 
Q 2441 2713 2670 2916 
Q 2900 3119 2900 3481 
Q 2900 3844 2670 4047 
Q 2441 4250 2034 4250 
Q 1625 4250 1398 4047 
Q 1172 3844 1172 3481 
z
" id="DejaVuSans-38" transform="scale(0.015625)"/>
       </defs>
       <use xlink:href="#DejaVuSans-38"/>
       <use x="63.623047" xlink:href="#DejaVuSans-30"/>
       <use x="127.246094" xlink:href="#DejaVuSans-30"/>
      </g>
     </g>
    </g>
    <g id="text_19">
     <!-- Frequency -->
     <g transform="translate(39.832812 207.629687)rotate(-90)scale(0.1 -0.1)">
      <defs>
       <path d="M 628 4666 
L 3309 4666 
L 3309 4134 
L 1259 4134 
L 1259 2759 
L 3109 2759 
L 3109 2228 
L 1259 2228 
L 1259 0 
L 628 0 
L 628 4666 
z
" id="DejaVuSans-46" transform="scale(0.015625)"/>
       <path d="M 947 1747 
Q 947 1113 1208 752 
Q 1469 391 1925 391 
Q 2381 391 2643 752 
Q 2906 1113 2906 1747 
Q 2906 2381 2643 2742 
Q 2381 3103 1925 3103 
Q 1469 3103 1208 2742 
Q 947 2381 947 1747 
z
M 2906 525 
Q 2725 213 2448 61 
Q 2172 -91 1784 -91 
Q 1150 -91 751 415 
Q 353 922 353 1747 
Q 353 2572 751 3078 
Q 1150 3584 1784 3584 
Q 2172 3584 2448 3432 
Q 2725 3281 2906 2969 
L 2906 3500 
L 3481 3500 
L 3481 -1331 
L 2906 -1331 
L 2906 525 
z
" id="DejaVuSans-71" transform="scale(0.015625)"/>
       <path d="M 544 1381 
L 544 3500 
L 1119 3500 
L 1119 1403 
Q 1119 906 1312 657 
Q 1506 409 1894 409 
Q 2359 409 2629 706 
Q 2900 1003 2900 1516 
L 2900 3500 
L 3475 3500 
L 3475 0 
L 2900 0 
L 2900 538 
Q 2691 219 2414 64 
Q 2138 -91 1772 -91 
Q 1169 -91 856 284 
Q 544 659 544 1381 
z
M 1991 3584 
L 1991 3584 
z
" id="DejaVuSans-75" transform="scale(0.015625)"/>
       <path d="M 3122 3366 
L 3122 2828 
Q 2878 2963 2633 3030 
Q 2388 3097 2138 3097 
Q 1578 3097 1268 2742 
Q 959 2388 959 1747 
Q 959 1106 1268 751 
Q 1578 397 2138 397 
Q 2388 397 2633 464 
Q 2878 531 3122 666 
L 3122 134 
Q 2881 22 2623 -34 
Q 2366 -91 2075 -91 
Q 1284 -91 818 406 
Q 353 903 353 1747 
Q 353 2603 823 3093 
Q 1294 3584 2113 3584 
Q 2378 3584 2631 3529 
Q 2884 3475 3122 3366 
z
" id="DejaVuSans-63" transform="scale(0.015625)"/>
      </defs>
      <use xlink:href="#DejaVuSans-46"/>
      <use x="50.269531" xlink:href="#DejaVuSans-72"/>
      <use x="89.132812" xlink:href="#DejaVuSans-65"/>
      <use x="150.65625" xlink:href="#DejaVuSans-71"/>
      <use x="214.132812" xlink:href="#DejaVuSans-75"/>
      <use x="277.511719" xlink:href="#DejaVuSans-65"/>
      <use x="339.035156" xlink:href="#DejaVuSans-6e"/>
      <use x="402.414062" xlink:href="#DejaVuSans-63"/>
      <use x="457.394531" xlink:href="#DejaVuSans-79"/>
     </g>
    </g>
   </g>
   <g id="patch_76">
    <path d="M 72 320.4 
L 72 43.2 
" style="fill:none;stroke:#000000;stroke-linecap:square;stroke-linejoin:miter;stroke-width:0.8;"/>
   </g>
   <g id="patch_77">
    <path d="M 518.4 320.4 
L 518.4 43.2 
" style="fill:none;stroke:#000000;stroke-linecap:square;stroke-linejoin:miter;stroke-width:0.8;"/>
   </g>
   <g id="patch_78">
    <path d="M 72 320.4 
L 518.4 320.4 
" style="fill:none;stroke:#000000;stroke-linecap:square;stroke-linejoin:miter;stroke-width:0.8;"/>
   </g>
   <g id="patch_79">
    <path d="M 72 43.2 
L 518.4 43.2 
" style="fill:none;stroke:#000000;stroke-linecap:square;stroke-linejoin:miter;stroke-width:0.8;"/>
   </g>
   <g id="text_20">
    <!-- Distribution of energy of the system for L = 8.0, T = 1.405 -->
    <g transform="translate(119.363438 37.2)scale(0.12 -0.12)">
     <defs>
      <path d="M 1259 4147 
L 1259 519 
L 2022 519 
Q 2988 519 3436 956 
Q 3884 1394 3884 2338 
Q 3884 3275 3436 3711 
Q 2988 4147 2022 4147 
L 1259 4147 
z
M 628 4666 
L 1925 4666 
Q 3281 4666 3915 4102 
Q 4550 3538 4550 2338 
Q 4550 1131 3912 565 
Q 3275 0 1925 0 
L 628 0 
L 628 4666 
z
" id="DejaVuSans-44" transform="scale(0.015625)"/>
      <path d="M 603 3500 
L 1178 3500 
L 1178 0 
L 603 0 
L 603 3500 
z
M 603 4863 
L 1178 4863 
L 1178 4134 
L 603 4134 
L 603 4863 
z
" id="DejaVuSans-69" transform="scale(0.015625)"/>
      <path d="M 2834 3397 
L 2834 2853 
Q 2591 2978 2328 3040 
Q 2066 3103 1784 3103 
Q 1356 3103 1142 2972 
Q 928 2841 928 2578 
Q 928 2378 1081 2264 
Q 1234 2150 1697 2047 
L 1894 2003 
Q 2506 1872 2764 1633 
Q 3022 1394 3022 966 
Q 3022 478 2636 193 
Q 2250 -91 1575 -91 
Q 1294 -91 989 -36 
Q 684 19 347 128 
L 347 722 
Q 666 556 975 473 
Q 1284 391 1588 391 
Q 1994 391 2212 530 
Q 2431 669 2431 922 
Q 2431 1156 2273 1281 
Q 2116 1406 1581 1522 
L 1381 1569 
Q 847 1681 609 1914 
Q 372 2147 372 2553 
Q 372 3047 722 3315 
Q 1072 3584 1716 3584 
Q 2034 3584 2315 3537 
Q 2597 3491 2834 3397 
z
" id="DejaVuSans-73" transform="scale(0.015625)"/>
      <path d="M 1172 4494 
L 1172 3500 
L 2356 3500 
L 2356 3053 
L 1172 3053 
L 1172 1153 
Q 1172 725 1289 603 
Q 1406 481 1766 481 
L 2356 481 
L 2356 0 
L 1766 0 
Q 1100 0 847 248 
Q 594 497 594 1153 
L 594 3053 
L 172 3053 
L 172 3500 
L 594 3500 
L 594 4494 
L 1172 4494 
z
" id="DejaVuSans-74" transform="scale(0.015625)"/>
      <path d="M 3116 1747 
Q 3116 2381 2855 2742 
Q 2594 3103 2138 3103 
Q 1681 3103 1420 2742 
Q 1159 2381 1159 1747 
Q 1159 1113 1420 752 
Q 1681 391 2138 391 
Q 2594 391 2855 752 
Q 3116 1113 3116 1747 
z
M 1159 2969 
Q 1341 3281 1617 3432 
Q 1894 3584 2278 3584 
Q 2916 3584 3314 3078 
Q 3713 2572 3713 1747 
Q 3713 922 3314 415 
Q 2916 -91 2278 -91 
Q 1894 -91 1617 61 
Q 1341 213 1159 525 
L 1159 0 
L 581 0 
L 581 4863 
L 1159 4863 
L 1159 2969 
z
" id="DejaVuSans-62" transform="scale(0.015625)"/>
      <path d="M 1959 3097 
Q 1497 3097 1228 2736 
Q 959 2375 959 1747 
Q 959 1119 1226 758 
Q 1494 397 1959 397 
Q 2419 397 2687 759 
Q 2956 1122 2956 1747 
Q 2956 2369 2687 2733 
Q 2419 3097 1959 3097 
z
M 1959 3584 
Q 2709 3584 3137 3096 
Q 3566 2609 3566 1747 
Q 3566 888 3137 398 
Q 2709 -91 1959 -91 
Q 1206 -91 779 398 
Q 353 888 353 1747 
Q 353 2609 779 3096 
Q 1206 3584 1959 3584 
z
" id="DejaVuSans-6f" transform="scale(0.015625)"/>
      <path id="DejaVuSans-20" transform="scale(0.015625)"/>
      <path d="M 2375 4863 
L 2375 4384 
L 1825 4384 
Q 1516 4384 1395 4259 
Q 1275 4134 1275 3809 
L 1275 3500 
L 2222 3500 
L 2222 3053 
L 1275 3053 
L 1275 0 
L 697 0 
L 697 3053 
L 147 3053 
L 147 3500 
L 697 3500 
L 697 3744 
Q 697 4328 969 4595 
Q 1241 4863 1831 4863 
L 2375 4863 
z
" id="DejaVuSans-66" transform="scale(0.015625)"/>
      <path d="M 3513 2113 
L 3513 0 
L 2938 0 
L 2938 2094 
Q 2938 2591 2744 2837 
Q 2550 3084 2163 3084 
Q 1697 3084 1428 2787 
Q 1159 2491 1159 1978 
L 1159 0 
L 581 0 
L 581 4863 
L 1159 4863 
L 1159 2956 
Q 1366 3272 1645 3428 
Q 1925 3584 2291 3584 
Q 2894 3584 3203 3211 
Q 3513 2838 3513 2113 
z
" id="DejaVuSans-68" transform="scale(0.015625)"/>
      <path d="M 3328 2828 
Q 3544 3216 3844 3400 
Q 4144 3584 4550 3584 
Q 5097 3584 5394 3201 
Q 5691 2819 5691 2113 
L 5691 0 
L 5113 0 
L 5113 2094 
Q 5113 2597 4934 2840 
Q 4756 3084 4391 3084 
Q 3944 3084 3684 2787 
Q 3425 2491 3425 1978 
L 3425 0 
L 2847 0 
L 2847 2094 
Q 2847 2600 2669 2842 
Q 2491 3084 2119 3084 
Q 1678 3084 1418 2786 
Q 1159 2488 1159 1978 
L 1159 0 
L 581 0 
L 581 3500 
L 1159 3500 
L 1159 2956 
Q 1356 3278 1631 3431 
Q 1906 3584 2284 3584 
Q 2666 3584 2933 3390 
Q 3200 3197 3328 2828 
z
" id="DejaVuSans-6d" transform="scale(0.015625)"/>
      <path d="M 628 4666 
L 1259 4666 
L 1259 531 
L 3531 531 
L 3531 0 
L 628 0 
L 628 4666 
z
" id="DejaVuSans-4c" transform="scale(0.015625)"/>
      <path d="M 678 2906 
L 4684 2906 
L 4684 2381 
L 678 2381 
L 678 2906 
z
M 678 1631 
L 4684 1631 
L 4684 1100 
L 678 1100 
L 678 1631 
z
" id="DejaVuSans-3d" transform="scale(0.015625)"/>
      <path d="M 684 794 
L 1344 794 
L 1344 0 
L 684 0 
L 684 794 
z
" id="DejaVuSans-2e" transform="scale(0.015625)"/>
      <path d="M 750 794 
L 1409 794 
L 1409 256 
L 897 -744 
L 494 -744 
L 750 256 
L 750 794 
z
" id="DejaVuSans-2c" transform="scale(0.015625)"/>
      <path d="M -19 4666 
L 3928 4666 
L 3928 4134 
L 2272 4134 
L 2272 0 
L 1638 0 
L 1638 4134 
L -19 4134 
L -19 4666 
z
" id="DejaVuSans-54" transform="scale(0.015625)"/>
     </defs>
     <use xlink:href="#DejaVuSans-44"/>
     <use x="77.001953" xlink:href="#DejaVuSans-69"/>
     <use x="104.785156" xlink:href="#DejaVuSans-73"/>
     <use x="156.884766" xlink:href="#DejaVuSans-74"/>
     <use x="196.09375" xlink:href="#DejaVuSans-72"/>
     <use x="237.207031" xlink:href="#DejaVuSans-69"/>
     <use x="264.990234" xlink:href="#DejaVuSans-62"/>
     <use x="328.466797" xlink:href="#DejaVuSans-75"/>
     <use x="391.845703" xlink:href="#DejaVuSans-74"/>
     <use x="431.054688" xlink:href="#DejaVuSans-69"/>
     <use x="458.837891" xlink:href="#DejaVuSans-6f"/>
     <use x="520.019531" xlink:href="#DejaVuSans-6e"/>
     <use x="583.398438" xlink:href="#DejaVuSans-20"/>
     <use x="615.185547" xlink:href="#DejaVuSans-6f"/>
     <use x="676.367188" xlink:href="#DejaVuSans-66"/>
     <use x="711.572266" xlink:href="#DejaVuSans-20"/>
     <use x="743.359375" xlink:href="#DejaVuSans-65"/>
     <use x="804.882812" xlink:href="#DejaVuSans-6e"/>
     <use x="868.261719" xlink:href="#DejaVuSans-65"/>
     <use x="929.785156" xlink:href="#DejaVuSans-72"/>
     <use x="969.148438" xlink:href="#DejaVuSans-67"/>
     <use x="1032.625" xlink:href="#DejaVuSans-79"/>
     <use x="1091.804688" xlink:href="#DejaVuSans-20"/>
     <use x="1123.591797" xlink:href="#DejaVuSans-6f"/>
     <use x="1184.773438" xlink:href="#DejaVuSans-66"/>
     <use x="1219.978516" xlink:href="#DejaVuSans-20"/>
     <use x="1251.765625" xlink:href="#DejaVuSans-74"/>
     <use x="1290.974609" xlink:href="#DejaVuSans-68"/>
     <use x="1354.353516" xlink:href="#DejaVuSans-65"/>
     <use x="1415.876953" xlink:href="#DejaVuSans-20"/>
     <use x="1447.664062" xlink:href="#DejaVuSans-73"/>
     <use x="1499.763672" xlink:href="#DejaVuSans-79"/>
     <use x="1558.943359" xlink:href="#DejaVuSans-73"/>
     <use x="1611.042969" xlink:href="#DejaVuSans-74"/>
     <use x="1650.251953" xlink:href="#DejaVuSans-65"/>
     <use x="1711.775391" xlink:href="#DejaVuSans-6d"/>
     <use x="1809.1875" xlink:href="#DejaVuSans-20"/>
     <use x="1840.974609" xlink:href="#DejaVuSans-66"/>
     <use x="1876.179688" xlink:href="#DejaVuSans-6f"/>
     <use x="1937.361328" xlink:href="#DejaVuSans-72"/>
     <use x="1978.474609" xlink:href="#DejaVuSans-20"/>
     <use x="2010.261719" xlink:href="#DejaVuSans-4c"/>
     <use x="2065.974609" xlink:href="#DejaVuSans-20"/>
     <use x="2097.761719" xlink:href="#DejaVuSans-3d"/>
     <use x="2181.550781" xlink:href="#DejaVuSans-20"/>
     <use x="2213.337891" xlink:href="#DejaVuSans-38"/>
     <use x="2276.960938" xlink:href="#DejaVuSans-2e"/>
     <use x="2308.748047" xlink:href="#DejaVuSans-30"/>
     <use x="2372.371094" xlink:href="#DejaVuSans-2c"/>
     <use x="2404.158203" xlink:href="#DejaVuSans-20"/>
     <use x="2435.945312" xlink:href="#DejaVuSans-54"/>
     <use x="2497.029297" xlink:href="#DejaVuSans-20"/>
     <use x="2528.816406" xlink:href="#DejaVuSans-3d"/>
     <use x="2612.605469" xlink:href="#DejaVuSans-20"/>
     <use x="2644.392578" xlink:href="#DejaVuSans-31"/>
     <use x="2708.015625" xlink:href="#DejaVuSans-2e"/>
     <use x="2739.802734" xlink:href="#DejaVuSans-34"/>
     <use x="2803.425781" xlink:href="#DejaVuSans-30"/>
     <use x="2867.048828" xlink:href="#DejaVuSans-35"/>
    </g>
   </g>
  </g>
 </g>
 <defs>
  <clipPath id="p4622d29304">
   <rect height="277.2" width="446.4" x="72" y="43.2"/>
  </clipPath>
 </defs>
</svg>
